<svg width="16" height="10" viewBox="0 0 16 10" fill="none" xmlns="http://www.w3.org/2000/svg">
<path d="M15.4333 4.68332C15.3937 4.58103 15.3342 4.48758 15.2583 4.40832L11.0917 0.241658C11.014 0.16396 10.9217 0.102326 10.8202 0.0602755C10.7187 0.0182253 10.6099 -0.00341797 10.5 -0.00341797C10.2781 -0.00341797 10.0653 0.0847387 9.90833 0.241658C9.83064 0.319357 9.769 0.411599 9.72695 0.513117C9.6849 0.614636 9.66326 0.723442 9.66326 0.833325C9.66326 1.05524 9.75141 1.26807 9.90833 1.42499L12.6583 4.16666H1.33333C1.11232 4.16666 0.900358 4.25446 0.744078 4.41074C0.587798 4.56702 0.5 4.77898 0.5 4.99999C0.5 5.221 0.587798 5.43297 0.744078 5.58925C0.900358 5.74553 1.11232 5.83332 1.33333 5.83332H12.6583L9.90833 8.57499C9.83023 8.65246 9.76823 8.74463 9.72592 8.84618C9.68362 8.94773 9.66183 9.05665 9.66183 9.16666C9.66183 9.27667 9.68362 9.38559 9.72592 9.48714C9.76823 9.58869 9.83023 9.68085 9.90833 9.75832C9.9858 9.83643 10.078 9.89843 10.1795 9.94073C10.2811 9.98304 10.39 10.0048 10.5 10.0048C10.61 10.0048 10.7189 9.98304 10.8205 9.94073C10.922 9.89843 11.0142 9.83643 11.0917 9.75832L15.2583 5.59166C15.3342 5.5124 15.3937 5.41895 15.4333 5.31666C15.5167 5.11377 15.5167 4.88621 15.4333 4.68332Z" fill="#00C2FF"/>
</svg>
