<svg width="376" height="148" viewBox="0 0 376 148" fill="none" xmlns="http://www.w3.org/2000/svg">
<g clip-path="url(#clip0_0_125)">
<g filter="url(#filter0_f_0_125)">
<rect x="-84.1947" y="-271" width="364.989" height="364.989" rx="163.5" transform="rotate(22.0132 -84.1947 -271)" fill="#062D53"/>
</g>
<path d="M113.277 80.375C113.277 80.4987 113.268 80.6061 113.248 80.6973C113.229 80.7819 113.202 80.8535 113.17 80.9121C113.137 80.9707 113.098 81.013 113.053 81.0391C113.007 81.0651 112.958 81.0781 112.906 81.0781H109.703V84.6328C109.703 84.6849 109.69 84.7305 109.664 84.7695C109.638 84.8021 109.596 84.8314 109.537 84.8574C109.485 84.8835 109.413 84.9062 109.322 84.9258C109.231 84.9388 109.117 84.9453 108.98 84.9453C108.85 84.9453 108.736 84.9388 108.639 84.9258C108.548 84.9062 108.473 84.8835 108.414 84.8574C108.362 84.8314 108.323 84.8021 108.297 84.7695C108.271 84.7305 108.258 84.6849 108.258 84.6328V81.0781H105.055C104.996 81.0781 104.944 81.0651 104.898 81.0391C104.859 81.013 104.824 80.9707 104.791 80.9121C104.758 80.8535 104.732 80.7819 104.713 80.6973C104.693 80.6061 104.684 80.4987 104.684 80.375C104.684 80.2578 104.693 80.1569 104.713 80.0723C104.732 79.9811 104.758 79.9062 104.791 79.8477C104.824 79.7891 104.859 79.7467 104.898 79.7207C104.944 79.6947 104.993 79.6816 105.045 79.6816H108.258V76.127C108.258 76.0749 108.271 76.0293 108.297 75.9902C108.323 75.9447 108.362 75.9089 108.414 75.8828C108.473 75.8503 108.548 75.8275 108.639 75.8145C108.736 75.7949 108.85 75.7852 108.98 75.7852C109.117 75.7852 109.231 75.7949 109.322 75.8145C109.413 75.8275 109.485 75.8503 109.537 75.8828C109.596 75.9089 109.638 75.9447 109.664 75.9902C109.69 76.0293 109.703 76.0749 109.703 76.127V79.6816H112.916C112.968 79.6816 113.014 79.6947 113.053 79.7207C113.098 79.7467 113.137 79.7891 113.17 79.8477C113.209 79.9062 113.235 79.9811 113.248 80.0723C113.268 80.1569 113.277 80.2578 113.277 80.375ZM123.082 79.1836C123.082 79.7305 123.049 80.2839 122.984 80.8438C122.919 81.4036 122.809 81.944 122.652 82.4648C122.496 82.9792 122.285 83.4642 122.018 83.9199C121.757 84.3691 121.425 84.763 121.021 85.1016C120.624 85.4401 120.149 85.707 119.596 85.9023C119.049 86.0911 118.411 86.1855 117.682 86.1855C117.402 86.1855 117.128 86.166 116.861 86.127C116.601 86.0944 116.363 86.0521 116.148 86C115.94 85.9479 115.764 85.8926 115.621 85.834C115.478 85.7754 115.374 85.7168 115.309 85.6582C115.243 85.5996 115.195 85.5215 115.162 85.4238C115.136 85.3197 115.123 85.1829 115.123 85.0137C115.123 84.8704 115.126 84.7565 115.133 84.6719C115.146 84.5872 115.162 84.5221 115.182 84.4766C115.201 84.431 115.227 84.4017 115.26 84.3887C115.299 84.3691 115.344 84.3594 115.396 84.3594C115.468 84.3594 115.569 84.3854 115.699 84.4375C115.829 84.4831 115.992 84.5352 116.188 84.5938C116.389 84.6523 116.624 84.7077 116.891 84.7598C117.158 84.8053 117.457 84.8281 117.789 84.8281C118.421 84.8281 118.961 84.7077 119.41 84.4668C119.866 84.2194 120.237 83.8906 120.523 83.4805C120.81 83.0703 121.025 82.5951 121.168 82.0547C121.311 81.5143 121.389 80.9447 121.402 80.3457C121.057 80.5475 120.644 80.7266 120.162 80.8828C119.68 81.0391 119.127 81.1172 118.502 81.1172C117.799 81.1172 117.206 81.0228 116.725 80.834C116.249 80.6387 115.865 80.375 115.572 80.043C115.286 79.7109 115.077 79.3171 114.947 78.8613C114.824 78.4056 114.762 77.9076 114.762 77.3672C114.762 76.8073 114.843 76.2767 115.006 75.7754C115.169 75.2676 115.423 74.8216 115.768 74.4375C116.113 74.0534 116.552 73.7474 117.086 73.5195C117.62 73.2917 118.258 73.1777 119 73.1777C119.527 73.1777 119.993 73.2461 120.396 73.3828C120.807 73.513 121.161 73.7051 121.461 73.959C121.76 74.2064 122.014 74.5091 122.223 74.8672C122.431 75.2188 122.597 75.6191 122.721 76.0684C122.851 76.5176 122.942 77.0059 122.994 77.5332C123.053 78.054 123.082 78.6042 123.082 79.1836ZM121.373 78.998C121.373 78.1647 121.318 77.4648 121.207 76.8984C121.096 76.3255 120.934 75.8633 120.719 75.5117C120.504 75.1602 120.24 74.9062 119.928 74.75C119.615 74.5938 119.254 74.5156 118.844 74.5156C118.421 74.5156 118.059 74.5938 117.76 74.75C117.46 74.8997 117.213 75.1048 117.018 75.3652C116.829 75.6191 116.689 75.9089 116.598 76.2344C116.507 76.5599 116.461 76.8952 116.461 77.2402C116.461 77.6243 116.5 77.9759 116.578 78.2949C116.663 78.6139 116.796 78.8841 116.979 79.1055C117.161 79.3268 117.398 79.4993 117.691 79.623C117.984 79.7402 118.346 79.7988 118.775 79.7988C119.264 79.7988 119.736 79.7272 120.191 79.584C120.647 79.4342 121.041 79.2389 121.373 78.998ZM133.219 79.1836C133.219 79.7305 133.186 80.2839 133.121 80.8438C133.056 81.4036 132.945 81.944 132.789 82.4648C132.633 82.9792 132.421 83.4642 132.154 83.9199C131.894 84.3691 131.562 84.763 131.158 85.1016C130.761 85.4401 130.286 85.707 129.732 85.9023C129.186 86.0911 128.548 86.1855 127.818 86.1855C127.538 86.1855 127.265 86.166 126.998 86.127C126.738 86.0944 126.5 86.0521 126.285 86C126.077 85.9479 125.901 85.8926 125.758 85.834C125.615 85.7754 125.51 85.7168 125.445 85.6582C125.38 85.5996 125.331 85.5215 125.299 85.4238C125.273 85.3197 125.26 85.1829 125.26 85.0137C125.26 84.8704 125.263 84.7565 125.27 84.6719C125.283 84.5872 125.299 84.5221 125.318 84.4766C125.338 84.431 125.364 84.4017 125.396 84.3887C125.436 84.3691 125.481 84.3594 125.533 84.3594C125.605 84.3594 125.706 84.3854 125.836 84.4375C125.966 84.4831 126.129 84.5352 126.324 84.5938C126.526 84.6523 126.76 84.7077 127.027 84.7598C127.294 84.8053 127.594 84.8281 127.926 84.8281C128.557 84.8281 129.098 84.7077 129.547 84.4668C130.003 84.2194 130.374 83.8906 130.66 83.4805C130.947 83.0703 131.161 82.5951 131.305 82.0547C131.448 81.5143 131.526 80.9447 131.539 80.3457C131.194 80.5475 130.781 80.7266 130.299 80.8828C129.817 81.0391 129.264 81.1172 128.639 81.1172C127.936 81.1172 127.343 81.0228 126.861 80.834C126.386 80.6387 126.002 80.375 125.709 80.043C125.423 79.7109 125.214 79.3171 125.084 78.8613C124.96 78.4056 124.898 77.9076 124.898 77.3672C124.898 76.8073 124.98 76.2767 125.143 75.7754C125.305 75.2676 125.559 74.8216 125.904 74.4375C126.249 74.0534 126.689 73.7474 127.223 73.5195C127.757 73.2917 128.395 73.1777 129.137 73.1777C129.664 73.1777 130.13 73.2461 130.533 73.3828C130.943 73.513 131.298 73.7051 131.598 73.959C131.897 74.2064 132.151 74.5091 132.359 74.8672C132.568 75.2188 132.734 75.6191 132.857 76.0684C132.988 76.5176 133.079 77.0059 133.131 77.5332C133.189 78.054 133.219 78.6042 133.219 79.1836ZM131.51 78.998C131.51 78.1647 131.454 77.4648 131.344 76.8984C131.233 76.3255 131.07 75.8633 130.855 75.5117C130.641 75.1602 130.377 74.9062 130.064 74.75C129.752 74.5938 129.391 74.5156 128.98 74.5156C128.557 74.5156 128.196 74.5938 127.896 74.75C127.597 74.8997 127.35 75.1048 127.154 75.3652C126.965 75.6191 126.826 75.9089 126.734 76.2344C126.643 76.5599 126.598 76.8952 126.598 77.2402C126.598 77.6243 126.637 77.9759 126.715 78.2949C126.799 78.6139 126.933 78.8841 127.115 79.1055C127.298 79.3268 127.535 79.4993 127.828 79.623C128.121 79.7402 128.482 79.7988 128.912 79.7988C129.4 79.7988 129.872 79.7272 130.328 79.584C130.784 79.4342 131.178 79.2389 131.51 78.998ZM143.551 82.7578C143.551 83.3047 143.453 83.793 143.258 84.2227C143.062 84.6458 142.779 85.0039 142.408 85.2969C142.044 85.5898 141.591 85.8112 141.051 85.9609C140.51 86.1107 139.892 86.1855 139.195 86.1855C138.544 86.1855 137.962 86.1172 137.447 85.9805C136.933 85.8438 136.497 85.6419 136.139 85.375C135.781 85.1081 135.507 84.7793 135.318 84.3887C135.13 83.998 135.035 83.5521 135.035 83.0508C135.035 82.6536 135.1 82.2891 135.23 81.957C135.361 81.625 135.546 81.319 135.787 81.0391C136.035 80.7591 136.337 80.4987 136.695 80.2578C137.053 80.0104 137.457 79.776 137.906 79.5547C137.516 79.3529 137.171 79.1413 136.871 78.9199C136.572 78.6921 136.318 78.4479 136.109 78.1875C135.901 77.9206 135.742 77.6374 135.631 77.3379C135.527 77.0384 135.475 76.7129 135.475 76.3613C135.475 75.9186 135.553 75.5052 135.709 75.1211C135.872 74.7305 136.113 74.3919 136.432 74.1055C136.757 73.819 137.167 73.5944 137.662 73.4316C138.163 73.2624 138.746 73.1777 139.41 73.1777C140.048 73.1777 140.598 73.2559 141.061 73.4121C141.529 73.5618 141.913 73.7702 142.213 74.0371C142.519 74.2975 142.743 74.6068 142.887 74.9648C143.03 75.3229 143.102 75.707 143.102 76.1172C143.102 76.4492 143.046 76.7682 142.936 77.0742C142.831 77.3802 142.675 77.6699 142.467 77.9434C142.258 78.2168 142.001 78.474 141.695 78.7148C141.396 78.9492 141.051 79.1706 140.66 79.3789C141.122 79.6068 141.533 79.8411 141.891 80.082C142.255 80.3229 142.558 80.5833 142.799 80.8633C143.046 81.1367 143.232 81.4297 143.355 81.7422C143.486 82.0482 143.551 82.3867 143.551 82.7578ZM141.441 76.2734C141.441 76 141.393 75.7526 141.295 75.5312C141.204 75.3099 141.067 75.1211 140.885 74.9648C140.702 74.8086 140.475 74.6914 140.201 74.6133C139.934 74.5286 139.628 74.4863 139.283 74.4863C138.58 74.4863 138.046 74.6458 137.682 74.9648C137.324 75.2839 137.145 75.7201 137.145 76.2734C137.145 76.5273 137.187 76.765 137.271 76.9863C137.363 77.2012 137.499 77.4062 137.682 77.6016C137.87 77.7969 138.105 77.9889 138.385 78.1777C138.671 78.36 139.01 78.5521 139.4 78.7539C140.058 78.4154 140.562 78.041 140.914 77.6309C141.266 77.2207 141.441 76.7682 141.441 76.2734ZM141.852 82.9336C141.852 82.6341 141.796 82.3639 141.686 82.123C141.575 81.8757 141.406 81.6478 141.178 81.4395C140.956 81.2246 140.676 81.0195 140.338 80.8242C140.006 80.6224 139.618 80.4141 139.176 80.1992C138.766 80.401 138.404 80.6029 138.092 80.8047C137.786 81.0065 137.532 81.2148 137.33 81.4297C137.135 81.6445 136.985 81.8724 136.881 82.1133C136.783 82.3477 136.734 82.6081 136.734 82.8945C136.734 83.526 136.949 84.0143 137.379 84.3594C137.815 84.7044 138.463 84.877 139.322 84.877C140.156 84.877 140.784 84.7044 141.207 84.3594C141.637 84.0078 141.852 83.5326 141.852 82.9336ZM153.492 79.1836C153.492 79.7305 153.46 80.2839 153.395 80.8438C153.329 81.4036 153.219 81.944 153.062 82.4648C152.906 82.9792 152.695 83.4642 152.428 83.9199C152.167 84.3691 151.835 84.763 151.432 85.1016C151.035 85.4401 150.559 85.707 150.006 85.9023C149.459 86.0911 148.821 86.1855 148.092 86.1855C147.812 86.1855 147.538 86.166 147.271 86.127C147.011 86.0944 146.773 86.0521 146.559 86C146.35 85.9479 146.174 85.8926 146.031 85.834C145.888 85.7754 145.784 85.7168 145.719 85.6582C145.654 85.5996 145.605 85.5215 145.572 85.4238C145.546 85.3197 145.533 85.1829 145.533 85.0137C145.533 84.8704 145.536 84.7565 145.543 84.6719C145.556 84.5872 145.572 84.5221 145.592 84.4766C145.611 84.431 145.637 84.4017 145.67 84.3887C145.709 84.3691 145.755 84.3594 145.807 84.3594C145.878 84.3594 145.979 84.3854 146.109 84.4375C146.24 84.4831 146.402 84.5352 146.598 84.5938C146.799 84.6523 147.034 84.7077 147.301 84.7598C147.568 84.8053 147.867 84.8281 148.199 84.8281C148.831 84.8281 149.371 84.7077 149.82 84.4668C150.276 84.2194 150.647 83.8906 150.934 83.4805C151.22 83.0703 151.435 82.5951 151.578 82.0547C151.721 81.5143 151.799 80.9447 151.812 80.3457C151.467 80.5475 151.054 80.7266 150.572 80.8828C150.09 81.0391 149.537 81.1172 148.912 81.1172C148.209 81.1172 147.617 81.0228 147.135 80.834C146.66 80.6387 146.275 80.375 145.982 80.043C145.696 79.7109 145.488 79.3171 145.357 78.8613C145.234 78.4056 145.172 77.9076 145.172 77.3672C145.172 76.8073 145.253 76.2767 145.416 75.7754C145.579 75.2676 145.833 74.8216 146.178 74.4375C146.523 74.0534 146.962 73.7474 147.496 73.5195C148.03 73.2917 148.668 73.1777 149.41 73.1777C149.938 73.1777 150.403 73.2461 150.807 73.3828C151.217 73.513 151.572 73.7051 151.871 73.959C152.171 74.2064 152.424 74.5091 152.633 74.8672C152.841 75.2188 153.007 75.6191 153.131 76.0684C153.261 76.5176 153.352 77.0059 153.404 77.5332C153.463 78.054 153.492 78.6042 153.492 79.1836ZM151.783 78.998C151.783 78.1647 151.728 77.4648 151.617 76.8984C151.507 76.3255 151.344 75.8633 151.129 75.5117C150.914 75.1602 150.65 74.9062 150.338 74.75C150.025 74.5938 149.664 74.5156 149.254 74.5156C148.831 74.5156 148.469 74.5938 148.17 74.75C147.87 74.8997 147.623 75.1048 147.428 75.3652C147.239 75.6191 147.099 75.9089 147.008 76.2344C146.917 76.5599 146.871 76.8952 146.871 77.2402C146.871 77.6243 146.91 77.9759 146.988 78.2949C147.073 78.6139 147.206 78.8841 147.389 79.1055C147.571 79.3268 147.809 79.4993 148.102 79.623C148.395 79.7402 148.756 79.7988 149.186 79.7988C149.674 79.7988 150.146 79.7272 150.602 79.584C151.057 79.4342 151.451 79.2389 151.783 78.998ZM163.561 85.3359C163.561 85.4596 163.551 85.5638 163.531 85.6484C163.512 85.7331 163.486 85.8014 163.453 85.8535C163.421 85.9056 163.382 85.9447 163.336 85.9707C163.297 85.9902 163.255 86 163.209 86H156.607C156.562 86 156.52 85.9902 156.48 85.9707C156.441 85.9447 156.402 85.9056 156.363 85.8535C156.331 85.8014 156.305 85.7331 156.285 85.6484C156.266 85.5638 156.256 85.4596 156.256 85.3359C156.256 85.2188 156.266 85.1178 156.285 85.0332C156.305 84.9486 156.327 84.8802 156.354 84.8281C156.386 84.7695 156.422 84.7272 156.461 84.7012C156.507 84.6686 156.555 84.6523 156.607 84.6523H159.244V75.043L156.803 76.498C156.679 76.5632 156.578 76.6022 156.5 76.6152C156.428 76.6283 156.37 76.6152 156.324 76.5762C156.279 76.5306 156.246 76.459 156.227 76.3613C156.214 76.2637 156.207 76.14 156.207 75.9902C156.207 75.8796 156.21 75.7852 156.217 75.707C156.23 75.6289 156.246 75.5638 156.266 75.5117C156.285 75.4596 156.311 75.4141 156.344 75.375C156.383 75.3359 156.432 75.2969 156.49 75.2578L159.4 73.3926C159.426 73.373 159.459 73.3568 159.498 73.3438C159.537 73.3307 159.586 73.3177 159.645 73.3047C159.703 73.2917 159.771 73.2852 159.85 73.2852C159.928 73.2786 160.025 73.2754 160.143 73.2754C160.299 73.2754 160.429 73.2819 160.533 73.2949C160.637 73.3079 160.719 73.3275 160.777 73.3535C160.836 73.373 160.875 73.4023 160.895 73.4414C160.914 73.474 160.924 73.5098 160.924 73.5488V84.6523H163.209C163.261 84.6523 163.31 84.6686 163.355 84.7012C163.401 84.7272 163.437 84.7695 163.463 84.8281C163.495 84.8802 163.518 84.9486 163.531 85.0332C163.551 85.1178 163.561 85.2188 163.561 85.3359ZM178.297 79.1836C178.297 79.7305 178.264 80.2839 178.199 80.8438C178.134 81.4036 178.023 81.944 177.867 82.4648C177.711 82.9792 177.499 83.4642 177.232 83.9199C176.972 84.3691 176.64 84.763 176.236 85.1016C175.839 85.4401 175.364 85.707 174.811 85.9023C174.264 86.0911 173.626 86.1855 172.896 86.1855C172.617 86.1855 172.343 86.166 172.076 86.127C171.816 86.0944 171.578 86.0521 171.363 86C171.155 85.9479 170.979 85.8926 170.836 85.834C170.693 85.7754 170.589 85.7168 170.523 85.6582C170.458 85.5996 170.41 85.5215 170.377 85.4238C170.351 85.3197 170.338 85.1829 170.338 85.0137C170.338 84.8704 170.341 84.7565 170.348 84.6719C170.361 84.5872 170.377 84.5221 170.396 84.4766C170.416 84.431 170.442 84.4017 170.475 84.3887C170.514 84.3691 170.559 84.3594 170.611 84.3594C170.683 84.3594 170.784 84.3854 170.914 84.4375C171.044 84.4831 171.207 84.5352 171.402 84.5938C171.604 84.6523 171.839 84.7077 172.105 84.7598C172.372 84.8053 172.672 84.8281 173.004 84.8281C173.635 84.8281 174.176 84.7077 174.625 84.4668C175.081 84.2194 175.452 83.8906 175.738 83.4805C176.025 83.0703 176.24 82.5951 176.383 82.0547C176.526 81.5143 176.604 80.9447 176.617 80.3457C176.272 80.5475 175.859 80.7266 175.377 80.8828C174.895 81.0391 174.342 81.1172 173.717 81.1172C173.014 81.1172 172.421 81.0228 171.939 80.834C171.464 80.6387 171.08 80.375 170.787 80.043C170.501 79.7109 170.292 79.3171 170.162 78.8613C170.038 78.4056 169.977 77.9076 169.977 77.3672C169.977 76.8073 170.058 76.2767 170.221 75.7754C170.383 75.2676 170.637 74.8216 170.982 74.4375C171.327 74.0534 171.767 73.7474 172.301 73.5195C172.835 73.2917 173.473 73.1777 174.215 73.1777C174.742 73.1777 175.208 73.2461 175.611 73.3828C176.021 73.513 176.376 73.7051 176.676 73.959C176.975 74.2064 177.229 74.5091 177.438 74.8672C177.646 75.2188 177.812 75.6191 177.936 76.0684C178.066 76.5176 178.157 77.0059 178.209 77.5332C178.268 78.054 178.297 78.6042 178.297 79.1836ZM176.588 78.998C176.588 78.1647 176.533 77.4648 176.422 76.8984C176.311 76.3255 176.148 75.8633 175.934 75.5117C175.719 75.1602 175.455 74.9062 175.143 74.75C174.83 74.5938 174.469 74.5156 174.059 74.5156C173.635 74.5156 173.274 74.5938 172.975 74.75C172.675 74.8997 172.428 75.1048 172.232 75.3652C172.044 75.6191 171.904 75.9089 171.812 76.2344C171.721 76.5599 171.676 76.8952 171.676 77.2402C171.676 77.6243 171.715 77.9759 171.793 78.2949C171.878 78.6139 172.011 78.8841 172.193 79.1055C172.376 79.3268 172.613 79.4993 172.906 79.623C173.199 79.7402 173.561 79.7988 173.99 79.7988C174.479 79.7988 174.951 79.7272 175.406 79.584C175.862 79.4342 176.256 79.2389 176.588 78.998ZM188.434 79.1836C188.434 79.7305 188.401 80.2839 188.336 80.8438C188.271 81.4036 188.16 81.944 188.004 82.4648C187.848 82.9792 187.636 83.4642 187.369 83.9199C187.109 84.3691 186.777 84.763 186.373 85.1016C185.976 85.4401 185.501 85.707 184.947 85.9023C184.4 86.0911 183.762 86.1855 183.033 86.1855C182.753 86.1855 182.48 86.166 182.213 86.127C181.952 86.0944 181.715 86.0521 181.5 86C181.292 85.9479 181.116 85.8926 180.973 85.834C180.829 85.7754 180.725 85.7168 180.66 85.6582C180.595 85.5996 180.546 85.5215 180.514 85.4238C180.488 85.3197 180.475 85.1829 180.475 85.0137C180.475 84.8704 180.478 84.7565 180.484 84.6719C180.497 84.5872 180.514 84.5221 180.533 84.4766C180.553 84.431 180.579 84.4017 180.611 84.3887C180.65 84.3691 180.696 84.3594 180.748 84.3594C180.82 84.3594 180.921 84.3854 181.051 84.4375C181.181 84.4831 181.344 84.5352 181.539 84.5938C181.741 84.6523 181.975 84.7077 182.242 84.7598C182.509 84.8053 182.809 84.8281 183.141 84.8281C183.772 84.8281 184.312 84.7077 184.762 84.4668C185.217 84.2194 185.589 83.8906 185.875 83.4805C186.161 83.0703 186.376 82.5951 186.52 82.0547C186.663 81.5143 186.741 80.9447 186.754 80.3457C186.409 80.5475 185.995 80.7266 185.514 80.8828C185.032 81.0391 184.479 81.1172 183.854 81.1172C183.15 81.1172 182.558 81.0228 182.076 80.834C181.601 80.6387 181.217 80.375 180.924 80.043C180.637 79.7109 180.429 79.3171 180.299 78.8613C180.175 78.4056 180.113 77.9076 180.113 77.3672C180.113 76.8073 180.195 76.2767 180.357 75.7754C180.52 75.2676 180.774 74.8216 181.119 74.4375C181.464 74.0534 181.904 73.7474 182.438 73.5195C182.971 73.2917 183.609 73.1777 184.352 73.1777C184.879 73.1777 185.344 73.2461 185.748 73.3828C186.158 73.513 186.513 73.7051 186.812 73.959C187.112 74.2064 187.366 74.5091 187.574 74.8672C187.783 75.2188 187.949 75.6191 188.072 76.0684C188.202 76.5176 188.294 77.0059 188.346 77.5332C188.404 78.054 188.434 78.6042 188.434 79.1836ZM186.725 78.998C186.725 78.1647 186.669 77.4648 186.559 76.8984C186.448 76.3255 186.285 75.8633 186.07 75.5117C185.855 75.1602 185.592 74.9062 185.279 74.75C184.967 74.5938 184.605 74.5156 184.195 74.5156C183.772 74.5156 183.411 74.5938 183.111 74.75C182.812 74.8997 182.564 75.1048 182.369 75.3652C182.18 75.6191 182.04 75.9089 181.949 76.2344C181.858 76.5599 181.812 76.8952 181.812 77.2402C181.812 77.6243 181.852 77.9759 181.93 78.2949C182.014 78.6139 182.148 78.8841 182.33 79.1055C182.512 79.3268 182.75 79.4993 183.043 79.623C183.336 79.7402 183.697 79.7988 184.127 79.7988C184.615 79.7988 185.087 79.7272 185.543 79.584C185.999 79.4342 186.393 79.2389 186.725 78.998ZM198.57 79.1836C198.57 79.7305 198.538 80.2839 198.473 80.8438C198.408 81.4036 198.297 81.944 198.141 82.4648C197.984 82.9792 197.773 83.4642 197.506 83.9199C197.245 84.3691 196.913 84.763 196.51 85.1016C196.113 85.4401 195.637 85.707 195.084 85.9023C194.537 86.0911 193.899 86.1855 193.17 86.1855C192.89 86.1855 192.617 86.166 192.35 86.127C192.089 86.0944 191.852 86.0521 191.637 86C191.428 85.9479 191.253 85.8926 191.109 85.834C190.966 85.7754 190.862 85.7168 190.797 85.6582C190.732 85.5996 190.683 85.5215 190.65 85.4238C190.624 85.3197 190.611 85.1829 190.611 85.0137C190.611 84.8704 190.615 84.7565 190.621 84.6719C190.634 84.5872 190.65 84.5221 190.67 84.4766C190.689 84.431 190.715 84.4017 190.748 84.3887C190.787 84.3691 190.833 84.3594 190.885 84.3594C190.956 84.3594 191.057 84.3854 191.188 84.4375C191.318 84.4831 191.48 84.5352 191.676 84.5938C191.878 84.6523 192.112 84.7077 192.379 84.7598C192.646 84.8053 192.945 84.8281 193.277 84.8281C193.909 84.8281 194.449 84.7077 194.898 84.4668C195.354 84.2194 195.725 83.8906 196.012 83.4805C196.298 83.0703 196.513 82.5951 196.656 82.0547C196.799 81.5143 196.878 80.9447 196.891 80.3457C196.546 80.5475 196.132 80.7266 195.65 80.8828C195.169 81.0391 194.615 81.1172 193.99 81.1172C193.287 81.1172 192.695 81.0228 192.213 80.834C191.738 80.6387 191.354 80.375 191.061 80.043C190.774 79.7109 190.566 79.3171 190.436 78.8613C190.312 78.4056 190.25 77.9076 190.25 77.3672C190.25 76.8073 190.331 76.2767 190.494 75.7754C190.657 75.2676 190.911 74.8216 191.256 74.4375C191.601 74.0534 192.04 73.7474 192.574 73.5195C193.108 73.2917 193.746 73.1777 194.488 73.1777C195.016 73.1777 195.481 73.2461 195.885 73.3828C196.295 73.513 196.65 73.7051 196.949 73.959C197.249 74.2064 197.503 74.5091 197.711 74.8672C197.919 75.2188 198.085 75.6191 198.209 76.0684C198.339 76.5176 198.43 77.0059 198.482 77.5332C198.541 78.054 198.57 78.6042 198.57 79.1836ZM196.861 78.998C196.861 78.1647 196.806 77.4648 196.695 76.8984C196.585 76.3255 196.422 75.8633 196.207 75.5117C195.992 75.1602 195.729 74.9062 195.416 74.75C195.104 74.5938 194.742 74.5156 194.332 74.5156C193.909 74.5156 193.548 74.5938 193.248 74.75C192.949 74.8997 192.701 75.1048 192.506 75.3652C192.317 75.6191 192.177 75.9089 192.086 76.2344C191.995 76.5599 191.949 76.8952 191.949 77.2402C191.949 77.6243 191.988 77.9759 192.066 78.2949C192.151 78.6139 192.285 78.8841 192.467 79.1055C192.649 79.3268 192.887 79.4993 193.18 79.623C193.473 79.7402 193.834 79.7988 194.264 79.7988C194.752 79.7988 195.224 79.7272 195.68 79.584C196.135 79.4342 196.529 79.2389 196.861 78.998ZM205.035 81.0684C205.035 81.3223 205.006 81.498 204.947 81.5957C204.889 81.6934 204.804 81.7422 204.693 81.7422H200.611C200.494 81.7422 200.406 81.6934 200.348 81.5957C200.289 81.4915 200.26 81.3158 200.26 81.0684C200.26 80.821 200.289 80.6484 200.348 80.5508C200.406 80.4531 200.494 80.4043 200.611 80.4043H204.693C204.745 80.4043 204.791 80.4141 204.83 80.4336C204.876 80.4531 204.911 80.4922 204.938 80.5508C204.97 80.6029 204.993 80.6712 205.006 80.7559C205.025 80.8405 205.035 80.9447 205.035 81.0684ZM214.84 79.1836C214.84 79.7305 214.807 80.2839 214.742 80.8438C214.677 81.4036 214.566 81.944 214.41 82.4648C214.254 82.9792 214.042 83.4642 213.775 83.9199C213.515 84.3691 213.183 84.763 212.779 85.1016C212.382 85.4401 211.907 85.707 211.354 85.9023C210.807 86.0911 210.169 86.1855 209.439 86.1855C209.16 86.1855 208.886 86.166 208.619 86.127C208.359 86.0944 208.121 86.0521 207.906 86C207.698 85.9479 207.522 85.8926 207.379 85.834C207.236 85.7754 207.132 85.7168 207.066 85.6582C207.001 85.5996 206.952 85.5215 206.92 85.4238C206.894 85.3197 206.881 85.1829 206.881 85.0137C206.881 84.8704 206.884 84.7565 206.891 84.6719C206.904 84.5872 206.92 84.5221 206.939 84.4766C206.959 84.431 206.985 84.4017 207.018 84.3887C207.057 84.3691 207.102 84.3594 207.154 84.3594C207.226 84.3594 207.327 84.3854 207.457 84.4375C207.587 84.4831 207.75 84.5352 207.945 84.5938C208.147 84.6523 208.382 84.7077 208.648 84.7598C208.915 84.8053 209.215 84.8281 209.547 84.8281C210.178 84.8281 210.719 84.7077 211.168 84.4668C211.624 84.2194 211.995 83.8906 212.281 83.4805C212.568 83.0703 212.783 82.5951 212.926 82.0547C213.069 81.5143 213.147 80.9447 213.16 80.3457C212.815 80.5475 212.402 80.7266 211.92 80.8828C211.438 81.0391 210.885 81.1172 210.26 81.1172C209.557 81.1172 208.964 81.0228 208.482 80.834C208.007 80.6387 207.623 80.375 207.33 80.043C207.044 79.7109 206.835 79.3171 206.705 78.8613C206.581 78.4056 206.52 77.9076 206.52 77.3672C206.52 76.8073 206.601 76.2767 206.764 75.7754C206.926 75.2676 207.18 74.8216 207.525 74.4375C207.87 74.0534 208.31 73.7474 208.844 73.5195C209.378 73.2917 210.016 73.1777 210.758 73.1777C211.285 73.1777 211.751 73.2461 212.154 73.3828C212.564 73.513 212.919 73.7051 213.219 73.959C213.518 74.2064 213.772 74.5091 213.98 74.8672C214.189 75.2188 214.355 75.6191 214.479 76.0684C214.609 76.5176 214.7 77.0059 214.752 77.5332C214.811 78.054 214.84 78.6042 214.84 79.1836ZM213.131 78.998C213.131 78.1647 213.076 77.4648 212.965 76.8984C212.854 76.3255 212.691 75.8633 212.477 75.5117C212.262 75.1602 211.998 74.9062 211.686 74.75C211.373 74.5938 211.012 74.5156 210.602 74.5156C210.178 74.5156 209.817 74.5938 209.518 74.75C209.218 74.8997 208.971 75.1048 208.775 75.3652C208.587 75.6191 208.447 75.9089 208.355 76.2344C208.264 76.5599 208.219 76.8952 208.219 77.2402C208.219 77.6243 208.258 77.9759 208.336 78.2949C208.421 78.6139 208.554 78.8841 208.736 79.1055C208.919 79.3268 209.156 79.4993 209.449 79.623C209.742 79.7402 210.104 79.7988 210.533 79.7988C211.021 79.7988 211.493 79.7272 211.949 79.584C212.405 79.4342 212.799 79.2389 213.131 78.998ZM224.977 79.1836C224.977 79.7305 224.944 80.2839 224.879 80.8438C224.814 81.4036 224.703 81.944 224.547 82.4648C224.391 82.9792 224.179 83.4642 223.912 83.9199C223.652 84.3691 223.32 84.763 222.916 85.1016C222.519 85.4401 222.044 85.707 221.49 85.9023C220.943 86.0911 220.305 86.1855 219.576 86.1855C219.296 86.1855 219.023 86.166 218.756 86.127C218.495 86.0944 218.258 86.0521 218.043 86C217.835 85.9479 217.659 85.8926 217.516 85.834C217.372 85.7754 217.268 85.7168 217.203 85.6582C217.138 85.5996 217.089 85.5215 217.057 85.4238C217.031 85.3197 217.018 85.1829 217.018 85.0137C217.018 84.8704 217.021 84.7565 217.027 84.6719C217.04 84.5872 217.057 84.5221 217.076 84.4766C217.096 84.431 217.122 84.4017 217.154 84.3887C217.193 84.3691 217.239 84.3594 217.291 84.3594C217.363 84.3594 217.464 84.3854 217.594 84.4375C217.724 84.4831 217.887 84.5352 218.082 84.5938C218.284 84.6523 218.518 84.7077 218.785 84.7598C219.052 84.8053 219.352 84.8281 219.684 84.8281C220.315 84.8281 220.855 84.7077 221.305 84.4668C221.76 84.2194 222.132 83.8906 222.418 83.4805C222.704 83.0703 222.919 82.5951 223.062 82.0547C223.206 81.5143 223.284 80.9447 223.297 80.3457C222.952 80.5475 222.538 80.7266 222.057 80.8828C221.575 81.0391 221.021 81.1172 220.396 81.1172C219.693 81.1172 219.101 81.0228 218.619 80.834C218.144 80.6387 217.76 80.375 217.467 80.043C217.18 79.7109 216.972 79.3171 216.842 78.8613C216.718 78.4056 216.656 77.9076 216.656 77.3672C216.656 76.8073 216.738 76.2767 216.9 75.7754C217.063 75.2676 217.317 74.8216 217.662 74.4375C218.007 74.0534 218.447 73.7474 218.98 73.5195C219.514 73.2917 220.152 73.1777 220.895 73.1777C221.422 73.1777 221.887 73.2461 222.291 73.3828C222.701 73.513 223.056 73.7051 223.355 73.959C223.655 74.2064 223.909 74.5091 224.117 74.8672C224.326 75.2188 224.492 75.6191 224.615 76.0684C224.745 76.5176 224.837 77.0059 224.889 77.5332C224.947 78.054 224.977 78.6042 224.977 79.1836ZM223.268 78.998C223.268 78.1647 223.212 77.4648 223.102 76.8984C222.991 76.3255 222.828 75.8633 222.613 75.5117C222.398 75.1602 222.135 74.9062 221.822 74.75C221.51 74.5938 221.148 74.5156 220.738 74.5156C220.315 74.5156 219.954 74.5938 219.654 74.75C219.355 74.8997 219.107 75.1048 218.912 75.3652C218.723 75.6191 218.583 75.9089 218.492 76.2344C218.401 76.5599 218.355 76.8952 218.355 77.2402C218.355 77.6243 218.395 77.9759 218.473 78.2949C218.557 78.6139 218.691 78.8841 218.873 79.1055C219.055 79.3268 219.293 79.4993 219.586 79.623C219.879 79.7402 220.24 79.7988 220.67 79.7988C221.158 79.7988 221.63 79.7272 222.086 79.584C222.542 79.4342 222.936 79.2389 223.268 78.998ZM231.441 81.0684C231.441 81.3223 231.412 81.498 231.354 81.5957C231.295 81.6934 231.21 81.7422 231.1 81.7422H227.018C226.9 81.7422 226.812 81.6934 226.754 81.5957C226.695 81.4915 226.666 81.3158 226.666 81.0684C226.666 80.821 226.695 80.6484 226.754 80.5508C226.812 80.4531 226.9 80.4043 227.018 80.4043H231.1C231.152 80.4043 231.197 80.4141 231.236 80.4336C231.282 80.4531 231.318 80.4922 231.344 80.5508C231.376 80.6029 231.399 80.6712 231.412 80.7559C231.432 80.8405 231.441 80.9447 231.441 81.0684ZM241.246 79.1836C241.246 79.7305 241.214 80.2839 241.148 80.8438C241.083 81.4036 240.973 81.944 240.816 82.4648C240.66 82.9792 240.449 83.4642 240.182 83.9199C239.921 84.3691 239.589 84.763 239.186 85.1016C238.788 85.4401 238.313 85.707 237.76 85.9023C237.213 86.0911 236.575 86.1855 235.846 86.1855C235.566 86.1855 235.292 86.166 235.025 86.127C234.765 86.0944 234.527 86.0521 234.312 86C234.104 85.9479 233.928 85.8926 233.785 85.834C233.642 85.7754 233.538 85.7168 233.473 85.6582C233.408 85.5996 233.359 85.5215 233.326 85.4238C233.3 85.3197 233.287 85.1829 233.287 85.0137C233.287 84.8704 233.29 84.7565 233.297 84.6719C233.31 84.5872 233.326 84.5221 233.346 84.4766C233.365 84.431 233.391 84.4017 233.424 84.3887C233.463 84.3691 233.508 84.3594 233.561 84.3594C233.632 84.3594 233.733 84.3854 233.863 84.4375C233.993 84.4831 234.156 84.5352 234.352 84.5938C234.553 84.6523 234.788 84.7077 235.055 84.7598C235.322 84.8053 235.621 84.8281 235.953 84.8281C236.585 84.8281 237.125 84.7077 237.574 84.4668C238.03 84.2194 238.401 83.8906 238.688 83.4805C238.974 83.0703 239.189 82.5951 239.332 82.0547C239.475 81.5143 239.553 80.9447 239.566 80.3457C239.221 80.5475 238.808 80.7266 238.326 80.8828C237.844 81.0391 237.291 81.1172 236.666 81.1172C235.963 81.1172 235.37 81.0228 234.889 80.834C234.413 80.6387 234.029 80.375 233.736 80.043C233.45 79.7109 233.242 79.3171 233.111 78.8613C232.988 78.4056 232.926 77.9076 232.926 77.3672C232.926 76.8073 233.007 76.2767 233.17 75.7754C233.333 75.2676 233.587 74.8216 233.932 74.4375C234.277 74.0534 234.716 73.7474 235.25 73.5195C235.784 73.2917 236.422 73.1777 237.164 73.1777C237.691 73.1777 238.157 73.2461 238.561 73.3828C238.971 73.513 239.326 73.7051 239.625 73.959C239.924 74.2064 240.178 74.5091 240.387 74.8672C240.595 75.2188 240.761 75.6191 240.885 76.0684C241.015 76.5176 241.106 77.0059 241.158 77.5332C241.217 78.054 241.246 78.6042 241.246 79.1836ZM239.537 78.998C239.537 78.1647 239.482 77.4648 239.371 76.8984C239.26 76.3255 239.098 75.8633 238.883 75.5117C238.668 75.1602 238.404 74.9062 238.092 74.75C237.779 74.5938 237.418 74.5156 237.008 74.5156C236.585 74.5156 236.223 74.5938 235.924 74.75C235.624 74.8997 235.377 75.1048 235.182 75.3652C234.993 75.6191 234.853 75.9089 234.762 76.2344C234.671 76.5599 234.625 76.8952 234.625 77.2402C234.625 77.6243 234.664 77.9759 234.742 78.2949C234.827 78.6139 234.96 78.8841 235.143 79.1055C235.325 79.3268 235.562 79.4993 235.855 79.623C236.148 79.7402 236.51 79.7988 236.939 79.7988C237.428 79.7988 237.9 79.7272 238.355 79.584C238.811 79.4342 239.205 79.2389 239.537 78.998ZM251.383 79.1836C251.383 79.7305 251.35 80.2839 251.285 80.8438C251.22 81.4036 251.109 81.944 250.953 82.4648C250.797 82.9792 250.585 83.4642 250.318 83.9199C250.058 84.3691 249.726 84.763 249.322 85.1016C248.925 85.4401 248.45 85.707 247.896 85.9023C247.35 86.0911 246.712 86.1855 245.982 86.1855C245.702 86.1855 245.429 86.166 245.162 86.127C244.902 86.0944 244.664 86.0521 244.449 86C244.241 85.9479 244.065 85.8926 243.922 85.834C243.779 85.7754 243.674 85.7168 243.609 85.6582C243.544 85.5996 243.495 85.5215 243.463 85.4238C243.437 85.3197 243.424 85.1829 243.424 85.0137C243.424 84.8704 243.427 84.7565 243.434 84.6719C243.447 84.5872 243.463 84.5221 243.482 84.4766C243.502 84.431 243.528 84.4017 243.561 84.3887C243.6 84.3691 243.645 84.3594 243.697 84.3594C243.769 84.3594 243.87 84.3854 244 84.4375C244.13 84.4831 244.293 84.5352 244.488 84.5938C244.69 84.6523 244.924 84.7077 245.191 84.7598C245.458 84.8053 245.758 84.8281 246.09 84.8281C246.721 84.8281 247.262 84.7077 247.711 84.4668C248.167 84.2194 248.538 83.8906 248.824 83.4805C249.111 83.0703 249.326 82.5951 249.469 82.0547C249.612 81.5143 249.69 80.9447 249.703 80.3457C249.358 80.5475 248.945 80.7266 248.463 80.8828C247.981 81.0391 247.428 81.1172 246.803 81.1172C246.1 81.1172 245.507 81.0228 245.025 80.834C244.55 80.6387 244.166 80.375 243.873 80.043C243.587 79.7109 243.378 79.3171 243.248 78.8613C243.124 78.4056 243.062 77.9076 243.062 77.3672C243.062 76.8073 243.144 76.2767 243.307 75.7754C243.469 75.2676 243.723 74.8216 244.068 74.4375C244.413 74.0534 244.853 73.7474 245.387 73.5195C245.921 73.2917 246.559 73.1777 247.301 73.1777C247.828 73.1777 248.294 73.2461 248.697 73.3828C249.107 73.513 249.462 73.7051 249.762 73.959C250.061 74.2064 250.315 74.5091 250.523 74.8672C250.732 75.2188 250.898 75.6191 251.021 76.0684C251.152 76.5176 251.243 77.0059 251.295 77.5332C251.354 78.054 251.383 78.6042 251.383 79.1836ZM249.674 78.998C249.674 78.1647 249.618 77.4648 249.508 76.8984C249.397 76.3255 249.234 75.8633 249.02 75.5117C248.805 75.1602 248.541 74.9062 248.229 74.75C247.916 74.5938 247.555 74.5156 247.145 74.5156C246.721 74.5156 246.36 74.5938 246.061 74.75C245.761 74.8997 245.514 75.1048 245.318 75.3652C245.13 75.6191 244.99 75.9089 244.898 76.2344C244.807 76.5599 244.762 76.8952 244.762 77.2402C244.762 77.6243 244.801 77.9759 244.879 78.2949C244.964 78.6139 245.097 78.8841 245.279 79.1055C245.462 79.3268 245.699 79.4993 245.992 79.623C246.285 79.7402 246.646 79.7988 247.076 79.7988C247.564 79.7988 248.036 79.7272 248.492 79.584C248.948 79.4342 249.342 79.2389 249.674 78.998Z" fill="#BCBCBC"/>
<path d="M111.812 108.418C111.812 108.529 111.809 108.626 111.803 108.711C111.796 108.789 111.783 108.857 111.764 108.916C111.751 108.968 111.731 109.017 111.705 109.062C111.686 109.102 111.633 109.163 111.549 109.248C111.471 109.326 111.334 109.427 111.139 109.551C110.943 109.668 110.722 109.775 110.475 109.873C110.234 109.964 109.97 110.039 109.684 110.098C109.397 110.156 109.101 110.186 108.795 110.186C108.163 110.186 107.604 110.081 107.115 109.873C106.627 109.665 106.217 109.362 105.885 108.965C105.559 108.561 105.309 108.07 105.133 107.49C104.964 106.904 104.879 106.23 104.879 105.469C104.879 104.603 104.983 103.861 105.191 103.242C105.406 102.617 105.696 102.106 106.061 101.709C106.432 101.312 106.865 101.019 107.359 100.83C107.861 100.635 108.401 100.537 108.98 100.537C109.26 100.537 109.531 100.563 109.791 100.615C110.058 100.667 110.302 100.736 110.523 100.82C110.745 100.905 110.94 101.003 111.109 101.113C111.285 101.224 111.412 101.318 111.49 101.396C111.568 101.475 111.62 101.536 111.646 101.582C111.679 101.628 111.705 101.683 111.725 101.748C111.744 101.807 111.757 101.875 111.764 101.953C111.77 102.031 111.773 102.129 111.773 102.246C111.773 102.5 111.744 102.679 111.686 102.783C111.627 102.881 111.555 102.93 111.471 102.93C111.373 102.93 111.259 102.878 111.129 102.773C111.005 102.663 110.846 102.542 110.65 102.412C110.455 102.282 110.217 102.165 109.938 102.061C109.664 101.95 109.339 101.895 108.961 101.895C108.186 101.895 107.59 102.194 107.174 102.793C106.764 103.385 106.559 104.248 106.559 105.381C106.559 105.947 106.611 106.445 106.715 106.875C106.826 107.298 106.985 107.653 107.193 107.939C107.402 108.226 107.656 108.441 107.955 108.584C108.261 108.721 108.609 108.789 109 108.789C109.371 108.789 109.697 108.73 109.977 108.613C110.257 108.496 110.497 108.369 110.699 108.232C110.908 108.089 111.08 107.962 111.217 107.852C111.36 107.734 111.471 107.676 111.549 107.676C111.594 107.676 111.633 107.689 111.666 107.715C111.699 107.741 111.725 107.786 111.744 107.852C111.77 107.91 111.786 107.988 111.793 108.086C111.806 108.177 111.812 108.288 111.812 108.418ZM121.949 105.264C121.949 105.98 121.855 106.641 121.666 107.246C121.477 107.845 121.194 108.363 120.816 108.799C120.445 109.235 119.977 109.577 119.41 109.824C118.85 110.065 118.199 110.186 117.457 110.186C116.734 110.186 116.103 110.078 115.562 109.863C115.029 109.648 114.583 109.336 114.225 108.926C113.867 108.516 113.6 108.018 113.424 107.432C113.248 106.846 113.16 106.182 113.16 105.439C113.16 104.723 113.251 104.066 113.434 103.467C113.622 102.861 113.902 102.34 114.273 101.904C114.651 101.468 115.12 101.13 115.68 100.889C116.24 100.648 116.894 100.527 117.643 100.527C118.365 100.527 118.993 100.635 119.527 100.85C120.068 101.064 120.517 101.377 120.875 101.787C121.233 102.197 121.5 102.695 121.676 103.281C121.858 103.867 121.949 104.528 121.949 105.264ZM120.25 105.371C120.25 104.896 120.204 104.447 120.113 104.023C120.029 103.6 119.885 103.229 119.684 102.91C119.482 102.591 119.208 102.34 118.863 102.158C118.518 101.969 118.089 101.875 117.574 101.875C117.099 101.875 116.689 101.96 116.344 102.129C116.005 102.298 115.725 102.539 115.504 102.852C115.283 103.158 115.117 103.522 115.006 103.945C114.902 104.368 114.85 104.831 114.85 105.332C114.85 105.814 114.892 106.266 114.977 106.689C115.068 107.113 115.214 107.484 115.416 107.803C115.624 108.115 115.901 108.366 116.246 108.555C116.591 108.737 117.021 108.828 117.535 108.828C118.004 108.828 118.411 108.743 118.756 108.574C119.101 108.405 119.384 108.167 119.605 107.861C119.827 107.555 119.99 107.191 120.094 106.768C120.198 106.344 120.25 105.879 120.25 105.371ZM137.359 109.756C137.359 109.808 137.346 109.854 137.32 109.893C137.294 109.925 137.252 109.954 137.193 109.98C137.135 110.007 137.053 110.026 136.949 110.039C136.845 110.052 136.715 110.059 136.559 110.059C136.396 110.059 136.262 110.052 136.158 110.039C136.054 110.026 135.969 110.007 135.904 109.98C135.846 109.954 135.803 109.925 135.777 109.893C135.751 109.854 135.738 109.808 135.738 109.756V104.414C135.738 104.043 135.706 103.704 135.641 103.398C135.576 103.092 135.471 102.829 135.328 102.607C135.185 102.386 135.003 102.217 134.781 102.1C134.56 101.982 134.299 101.924 134 101.924C133.629 101.924 133.255 102.067 132.877 102.354C132.506 102.64 132.096 103.06 131.646 103.613V109.756C131.646 109.808 131.633 109.854 131.607 109.893C131.581 109.925 131.536 109.954 131.471 109.98C131.412 110.007 131.331 110.026 131.227 110.039C131.122 110.052 130.992 110.059 130.836 110.059C130.686 110.059 130.556 110.052 130.445 110.039C130.341 110.026 130.257 110.007 130.191 109.98C130.133 109.954 130.09 109.925 130.064 109.893C130.045 109.854 130.035 109.808 130.035 109.756V104.414C130.035 104.043 129.999 103.704 129.928 103.398C129.856 103.092 129.749 102.829 129.605 102.607C129.462 102.386 129.28 102.217 129.059 102.1C128.844 101.982 128.587 101.924 128.287 101.924C127.916 101.924 127.542 102.067 127.164 102.354C126.786 102.64 126.376 103.06 125.934 103.613V109.756C125.934 109.808 125.921 109.854 125.895 109.893C125.868 109.925 125.826 109.954 125.768 109.98C125.709 110.007 125.628 110.026 125.523 110.039C125.419 110.052 125.286 110.059 125.123 110.059C124.967 110.059 124.837 110.052 124.732 110.039C124.628 110.026 124.544 110.007 124.479 109.98C124.42 109.954 124.378 109.925 124.352 109.893C124.332 109.854 124.322 109.808 124.322 109.756V100.967C124.322 100.915 124.332 100.872 124.352 100.84C124.371 100.801 124.41 100.768 124.469 100.742C124.527 100.71 124.602 100.69 124.693 100.684C124.785 100.671 124.905 100.664 125.055 100.664C125.198 100.664 125.315 100.671 125.406 100.684C125.504 100.69 125.579 100.71 125.631 100.742C125.683 100.768 125.719 100.801 125.738 100.84C125.764 100.872 125.777 100.915 125.777 100.967V102.129C126.272 101.576 126.751 101.172 127.213 100.918C127.682 100.658 128.154 100.527 128.629 100.527C128.993 100.527 129.319 100.57 129.605 100.654C129.898 100.739 130.156 100.859 130.377 101.016C130.598 101.165 130.787 101.348 130.943 101.562C131.1 101.771 131.23 102.005 131.334 102.266C131.627 101.947 131.904 101.676 132.164 101.455C132.431 101.234 132.685 101.055 132.926 100.918C133.173 100.781 133.411 100.684 133.639 100.625C133.873 100.56 134.107 100.527 134.342 100.527C134.908 100.527 135.383 100.628 135.768 100.83C136.152 101.025 136.461 101.289 136.695 101.621C136.936 101.953 137.105 102.344 137.203 102.793C137.307 103.236 137.359 103.704 137.359 104.199V109.756ZM148.385 105.225C148.385 105.993 148.3 106.683 148.131 107.295C147.968 107.907 147.724 108.428 147.398 108.857C147.079 109.281 146.682 109.609 146.207 109.844C145.732 110.072 145.188 110.186 144.576 110.186C144.316 110.186 144.075 110.16 143.854 110.107C143.632 110.055 143.414 109.974 143.199 109.863C142.991 109.753 142.783 109.613 142.574 109.443C142.366 109.274 142.145 109.076 141.91 108.848V113.242C141.91 113.294 141.897 113.34 141.871 113.379C141.845 113.418 141.803 113.451 141.744 113.477C141.686 113.503 141.604 113.522 141.5 113.535C141.396 113.548 141.262 113.555 141.1 113.555C140.943 113.555 140.813 113.548 140.709 113.535C140.605 113.522 140.52 113.503 140.455 113.477C140.396 113.451 140.354 113.418 140.328 113.379C140.309 113.34 140.299 113.294 140.299 113.242V100.967C140.299 100.908 140.309 100.863 140.328 100.83C140.348 100.791 140.387 100.758 140.445 100.732C140.504 100.706 140.579 100.69 140.67 100.684C140.761 100.671 140.872 100.664 141.002 100.664C141.139 100.664 141.249 100.671 141.334 100.684C141.425 100.69 141.5 100.706 141.559 100.732C141.617 100.758 141.656 100.791 141.676 100.83C141.702 100.863 141.715 100.908 141.715 100.967V102.148C141.982 101.875 142.239 101.637 142.486 101.436C142.734 101.234 142.981 101.068 143.229 100.938C143.482 100.801 143.74 100.7 144 100.635C144.267 100.563 144.547 100.527 144.84 100.527C145.478 100.527 146.021 100.651 146.471 100.898C146.92 101.146 147.285 101.484 147.564 101.914C147.851 102.344 148.059 102.845 148.189 103.418C148.32 103.984 148.385 104.587 148.385 105.225ZM146.686 105.41C146.686 104.961 146.65 104.528 146.578 104.111C146.513 103.688 146.396 103.314 146.227 102.988C146.064 102.663 145.842 102.402 145.562 102.207C145.283 102.012 144.934 101.914 144.518 101.914C144.309 101.914 144.104 101.947 143.902 102.012C143.701 102.07 143.495 102.168 143.287 102.305C143.079 102.435 142.861 102.611 142.633 102.832C142.405 103.047 142.164 103.314 141.91 103.633V107.129C142.353 107.669 142.773 108.083 143.17 108.369C143.567 108.656 143.984 108.799 144.42 108.799C144.824 108.799 145.169 108.701 145.455 108.506C145.748 108.311 145.982 108.05 146.158 107.725C146.34 107.399 146.474 107.035 146.559 106.631C146.643 106.227 146.686 105.82 146.686 105.41ZM157.428 109.766C157.428 109.844 157.402 109.902 157.35 109.941C157.298 109.98 157.226 110.01 157.135 110.029C157.044 110.049 156.91 110.059 156.734 110.059C156.565 110.059 156.428 110.049 156.324 110.029C156.227 110.01 156.155 109.98 156.109 109.941C156.064 109.902 156.041 109.844 156.041 109.766V108.887C155.657 109.297 155.227 109.616 154.752 109.844C154.283 110.072 153.785 110.186 153.258 110.186C152.796 110.186 152.376 110.124 151.998 110C151.627 109.883 151.308 109.71 151.041 109.482C150.781 109.255 150.576 108.975 150.426 108.643C150.283 108.311 150.211 107.933 150.211 107.51C150.211 107.015 150.312 106.585 150.514 106.221C150.715 105.856 151.005 105.553 151.383 105.312C151.76 105.072 152.223 104.893 152.77 104.775C153.316 104.652 153.932 104.59 154.615 104.59H155.826V103.906C155.826 103.568 155.79 103.268 155.719 103.008C155.647 102.747 155.53 102.533 155.367 102.363C155.211 102.188 155.006 102.057 154.752 101.973C154.498 101.882 154.186 101.836 153.814 101.836C153.417 101.836 153.059 101.885 152.74 101.982C152.428 102.074 152.151 102.178 151.91 102.295C151.676 102.406 151.477 102.51 151.314 102.607C151.158 102.699 151.041 102.744 150.963 102.744C150.911 102.744 150.865 102.731 150.826 102.705C150.787 102.679 150.751 102.64 150.719 102.588C150.693 102.536 150.673 102.471 150.66 102.393C150.647 102.308 150.641 102.217 150.641 102.119C150.641 101.956 150.65 101.829 150.67 101.738C150.696 101.641 150.751 101.549 150.836 101.465C150.927 101.38 151.08 101.283 151.295 101.172C151.51 101.055 151.757 100.951 152.037 100.859C152.317 100.762 152.623 100.684 152.955 100.625C153.287 100.56 153.622 100.527 153.961 100.527C154.592 100.527 155.13 100.599 155.572 100.742C156.015 100.885 156.373 101.097 156.646 101.377C156.92 101.65 157.118 101.992 157.242 102.402C157.366 102.812 157.428 103.291 157.428 103.838V109.766ZM155.826 105.752H154.449C154.007 105.752 153.622 105.791 153.297 105.869C152.971 105.941 152.701 106.051 152.486 106.201C152.271 106.344 152.112 106.52 152.008 106.729C151.91 106.93 151.861 107.165 151.861 107.432C151.861 107.887 152.005 108.252 152.291 108.525C152.584 108.792 152.991 108.926 153.512 108.926C153.935 108.926 154.326 108.818 154.684 108.604C155.048 108.389 155.429 108.06 155.826 107.617V105.752ZM167.965 109.756C167.965 109.808 167.952 109.854 167.926 109.893C167.9 109.925 167.857 109.954 167.799 109.98C167.74 110.007 167.659 110.026 167.555 110.039C167.451 110.052 167.32 110.059 167.164 110.059C167.001 110.059 166.868 110.052 166.764 110.039C166.66 110.026 166.578 110.007 166.52 109.98C166.461 109.954 166.419 109.925 166.393 109.893C166.367 109.854 166.354 109.808 166.354 109.756V104.609C166.354 104.108 166.314 103.704 166.236 103.398C166.158 103.092 166.044 102.829 165.895 102.607C165.745 102.386 165.549 102.217 165.309 102.1C165.074 101.982 164.801 101.924 164.488 101.924C164.085 101.924 163.681 102.067 163.277 102.354C162.874 102.64 162.451 103.06 162.008 103.613V109.756C162.008 109.808 161.995 109.854 161.969 109.893C161.943 109.925 161.9 109.954 161.842 109.98C161.783 110.007 161.702 110.026 161.598 110.039C161.493 110.052 161.36 110.059 161.197 110.059C161.041 110.059 160.911 110.052 160.807 110.039C160.702 110.026 160.618 110.007 160.553 109.98C160.494 109.954 160.452 109.925 160.426 109.893C160.406 109.854 160.396 109.808 160.396 109.756V100.967C160.396 100.915 160.406 100.872 160.426 100.84C160.445 100.801 160.484 100.768 160.543 100.742C160.602 100.71 160.676 100.69 160.768 100.684C160.859 100.671 160.979 100.664 161.129 100.664C161.272 100.664 161.389 100.671 161.48 100.684C161.578 100.69 161.653 100.71 161.705 100.742C161.757 100.768 161.793 100.801 161.812 100.84C161.839 100.872 161.852 100.915 161.852 100.967V102.129C162.346 101.576 162.838 101.172 163.326 100.918C163.821 100.658 164.319 100.527 164.82 100.527C165.406 100.527 165.898 100.628 166.295 100.83C166.699 101.025 167.024 101.289 167.271 101.621C167.519 101.953 167.695 102.344 167.799 102.793C167.91 103.236 167.965 103.77 167.965 104.395V109.756ZM174.537 110L173.365 113.232C173.326 113.337 173.225 113.415 173.062 113.467C172.906 113.525 172.665 113.555 172.34 113.555C172.171 113.555 172.034 113.545 171.93 113.525C171.826 113.512 171.744 113.486 171.686 113.447C171.633 113.408 171.604 113.356 171.598 113.291C171.591 113.226 171.607 113.148 171.646 113.057L172.857 110C172.799 109.974 172.743 109.932 172.691 109.873C172.639 109.814 172.604 109.753 172.584 109.688L169.449 101.289C169.397 101.152 169.371 101.045 169.371 100.967C169.371 100.889 169.397 100.827 169.449 100.781C169.501 100.736 169.586 100.706 169.703 100.693C169.82 100.674 169.977 100.664 170.172 100.664C170.367 100.664 170.52 100.671 170.631 100.684C170.742 100.69 170.829 100.706 170.895 100.732C170.96 100.758 171.005 100.798 171.031 100.85C171.064 100.895 171.096 100.96 171.129 101.045L173.639 108.096H173.668L176.09 101.006C176.129 100.882 176.174 100.804 176.227 100.771C176.285 100.732 176.37 100.706 176.48 100.693C176.591 100.674 176.751 100.664 176.959 100.664C177.141 100.664 177.291 100.674 177.408 100.693C177.525 100.706 177.61 100.736 177.662 100.781C177.721 100.827 177.75 100.889 177.75 100.967C177.75 101.045 177.73 101.143 177.691 101.26L174.537 110ZM187.164 109.756C187.164 109.808 187.151 109.854 187.125 109.893C187.099 109.925 187.057 109.954 186.998 109.98C186.939 110.007 186.858 110.026 186.754 110.039C186.65 110.052 186.52 110.059 186.363 110.059C186.201 110.059 186.067 110.052 185.963 110.039C185.859 110.026 185.777 110.007 185.719 109.98C185.66 109.954 185.618 109.925 185.592 109.893C185.566 109.854 185.553 109.808 185.553 109.756V104.609C185.553 104.108 185.514 103.704 185.436 103.398C185.357 103.092 185.243 102.829 185.094 102.607C184.944 102.386 184.749 102.217 184.508 102.1C184.273 101.982 184 101.924 183.688 101.924C183.284 101.924 182.88 102.067 182.477 102.354C182.073 102.64 181.65 103.06 181.207 103.613V109.756C181.207 109.808 181.194 109.854 181.168 109.893C181.142 109.925 181.1 109.954 181.041 109.98C180.982 110.007 180.901 110.026 180.797 110.039C180.693 110.052 180.559 110.059 180.396 110.059C180.24 110.059 180.11 110.052 180.006 110.039C179.902 110.026 179.817 110.007 179.752 109.98C179.693 109.954 179.651 109.925 179.625 109.893C179.605 109.854 179.596 109.808 179.596 109.756V100.967C179.596 100.915 179.605 100.872 179.625 100.84C179.645 100.801 179.684 100.768 179.742 100.742C179.801 100.71 179.876 100.69 179.967 100.684C180.058 100.671 180.178 100.664 180.328 100.664C180.471 100.664 180.589 100.671 180.68 100.684C180.777 100.69 180.852 100.71 180.904 100.742C180.956 100.768 180.992 100.801 181.012 100.84C181.038 100.872 181.051 100.915 181.051 100.967V102.129C181.546 101.576 182.037 101.172 182.525 100.918C183.02 100.658 183.518 100.527 184.02 100.527C184.605 100.527 185.097 100.628 185.494 100.83C185.898 101.025 186.223 101.289 186.471 101.621C186.718 101.953 186.894 102.344 186.998 102.793C187.109 103.236 187.164 103.77 187.164 104.395V109.756ZM196.725 109.766C196.725 109.844 196.699 109.902 196.646 109.941C196.594 109.98 196.523 110.01 196.432 110.029C196.34 110.049 196.207 110.059 196.031 110.059C195.862 110.059 195.725 110.049 195.621 110.029C195.523 110.01 195.452 109.98 195.406 109.941C195.361 109.902 195.338 109.844 195.338 109.766V108.887C194.954 109.297 194.524 109.616 194.049 109.844C193.58 110.072 193.082 110.186 192.555 110.186C192.092 110.186 191.673 110.124 191.295 110C190.924 109.883 190.605 109.71 190.338 109.482C190.077 109.255 189.872 108.975 189.723 108.643C189.579 108.311 189.508 107.933 189.508 107.51C189.508 107.015 189.609 106.585 189.811 106.221C190.012 105.856 190.302 105.553 190.68 105.312C191.057 105.072 191.52 104.893 192.066 104.775C192.613 104.652 193.229 104.59 193.912 104.59H195.123V103.906C195.123 103.568 195.087 103.268 195.016 103.008C194.944 102.747 194.827 102.533 194.664 102.363C194.508 102.188 194.303 102.057 194.049 101.973C193.795 101.882 193.482 101.836 193.111 101.836C192.714 101.836 192.356 101.885 192.037 101.982C191.725 102.074 191.448 102.178 191.207 102.295C190.973 102.406 190.774 102.51 190.611 102.607C190.455 102.699 190.338 102.744 190.26 102.744C190.208 102.744 190.162 102.731 190.123 102.705C190.084 102.679 190.048 102.64 190.016 102.588C189.99 102.536 189.97 102.471 189.957 102.393C189.944 102.308 189.938 102.217 189.938 102.119C189.938 101.956 189.947 101.829 189.967 101.738C189.993 101.641 190.048 101.549 190.133 101.465C190.224 101.38 190.377 101.283 190.592 101.172C190.807 101.055 191.054 100.951 191.334 100.859C191.614 100.762 191.92 100.684 192.252 100.625C192.584 100.56 192.919 100.527 193.258 100.527C193.889 100.527 194.426 100.599 194.869 100.742C195.312 100.885 195.67 101.097 195.943 101.377C196.217 101.65 196.415 101.992 196.539 102.402C196.663 102.812 196.725 103.291 196.725 103.838V109.766ZM195.123 105.752H193.746C193.303 105.752 192.919 105.791 192.594 105.869C192.268 105.941 191.998 106.051 191.783 106.201C191.568 106.344 191.409 106.52 191.305 106.729C191.207 106.93 191.158 107.165 191.158 107.432C191.158 107.887 191.301 108.252 191.588 108.525C191.881 108.792 192.288 108.926 192.809 108.926C193.232 108.926 193.622 108.818 193.98 108.604C194.345 108.389 194.726 108.06 195.123 107.617V105.752ZM212.73 109.756C212.73 109.808 212.717 109.854 212.691 109.893C212.665 109.925 212.623 109.954 212.564 109.98C212.506 110.007 212.424 110.026 212.32 110.039C212.216 110.052 212.086 110.059 211.93 110.059C211.767 110.059 211.633 110.052 211.529 110.039C211.425 110.026 211.34 110.007 211.275 109.98C211.217 109.954 211.174 109.925 211.148 109.893C211.122 109.854 211.109 109.808 211.109 109.756V104.414C211.109 104.043 211.077 103.704 211.012 103.398C210.947 103.092 210.842 102.829 210.699 102.607C210.556 102.386 210.374 102.217 210.152 102.1C209.931 101.982 209.671 101.924 209.371 101.924C209 101.924 208.626 102.067 208.248 102.354C207.877 102.64 207.467 103.06 207.018 103.613V109.756C207.018 109.808 207.005 109.854 206.979 109.893C206.952 109.925 206.907 109.954 206.842 109.98C206.783 110.007 206.702 110.026 206.598 110.039C206.493 110.052 206.363 110.059 206.207 110.059C206.057 110.059 205.927 110.052 205.816 110.039C205.712 110.026 205.628 110.007 205.562 109.98C205.504 109.954 205.462 109.925 205.436 109.893C205.416 109.854 205.406 109.808 205.406 109.756V104.414C205.406 104.043 205.37 103.704 205.299 103.398C205.227 103.092 205.12 102.829 204.977 102.607C204.833 102.386 204.651 102.217 204.43 102.1C204.215 101.982 203.958 101.924 203.658 101.924C203.287 101.924 202.913 102.067 202.535 102.354C202.158 102.64 201.747 103.06 201.305 103.613V109.756C201.305 109.808 201.292 109.854 201.266 109.893C201.24 109.925 201.197 109.954 201.139 109.98C201.08 110.007 200.999 110.026 200.895 110.039C200.79 110.052 200.657 110.059 200.494 110.059C200.338 110.059 200.208 110.052 200.104 110.039C199.999 110.026 199.915 110.007 199.85 109.98C199.791 109.954 199.749 109.925 199.723 109.893C199.703 109.854 199.693 109.808 199.693 109.756V100.967C199.693 100.915 199.703 100.872 199.723 100.84C199.742 100.801 199.781 100.768 199.84 100.742C199.898 100.71 199.973 100.69 200.064 100.684C200.156 100.671 200.276 100.664 200.426 100.664C200.569 100.664 200.686 100.671 200.777 100.684C200.875 100.69 200.95 100.71 201.002 100.742C201.054 100.768 201.09 100.801 201.109 100.84C201.135 100.872 201.148 100.915 201.148 100.967V102.129C201.643 101.576 202.122 101.172 202.584 100.918C203.053 100.658 203.525 100.527 204 100.527C204.365 100.527 204.69 100.57 204.977 100.654C205.27 100.739 205.527 100.859 205.748 101.016C205.969 101.165 206.158 101.348 206.314 101.562C206.471 101.771 206.601 102.005 206.705 102.266C206.998 101.947 207.275 101.676 207.535 101.455C207.802 101.234 208.056 101.055 208.297 100.918C208.544 100.781 208.782 100.684 209.01 100.625C209.244 100.56 209.479 100.527 209.713 100.527C210.279 100.527 210.755 100.628 211.139 100.83C211.523 101.025 211.832 101.289 212.066 101.621C212.307 101.953 212.477 102.344 212.574 102.793C212.678 103.236 212.73 103.704 212.73 104.199V109.756ZM223.17 104.98C223.17 105.234 223.105 105.417 222.975 105.527C222.851 105.632 222.708 105.684 222.545 105.684H216.783C216.783 106.172 216.832 106.611 216.93 107.002C217.027 107.393 217.19 107.728 217.418 108.008C217.646 108.288 217.942 108.503 218.307 108.652C218.671 108.802 219.117 108.877 219.645 108.877C220.061 108.877 220.432 108.844 220.758 108.779C221.083 108.708 221.363 108.63 221.598 108.545C221.839 108.46 222.034 108.385 222.184 108.32C222.34 108.249 222.457 108.213 222.535 108.213C222.581 108.213 222.62 108.226 222.652 108.252C222.691 108.271 222.721 108.304 222.74 108.35C222.76 108.395 222.773 108.46 222.779 108.545C222.792 108.623 222.799 108.721 222.799 108.838C222.799 108.923 222.796 108.997 222.789 109.062C222.783 109.121 222.773 109.176 222.76 109.229C222.753 109.274 222.737 109.316 222.711 109.355C222.691 109.395 222.662 109.434 222.623 109.473C222.59 109.505 222.486 109.564 222.311 109.648C222.135 109.727 221.907 109.805 221.627 109.883C221.347 109.961 221.021 110.029 220.65 110.088C220.286 110.153 219.895 110.186 219.479 110.186C218.756 110.186 218.121 110.085 217.574 109.883C217.034 109.681 216.578 109.382 216.207 108.984C215.836 108.587 215.556 108.089 215.367 107.49C215.178 106.891 215.084 106.195 215.084 105.4C215.084 104.645 215.182 103.968 215.377 103.369C215.572 102.764 215.852 102.253 216.217 101.836C216.588 101.413 217.034 101.09 217.555 100.869C218.076 100.641 218.658 100.527 219.303 100.527C219.993 100.527 220.579 100.638 221.061 100.859C221.549 101.081 221.949 101.38 222.262 101.758C222.574 102.129 222.802 102.568 222.945 103.076C223.095 103.577 223.17 104.115 223.17 104.688V104.98ZM221.549 104.502C221.568 103.656 221.38 102.992 220.982 102.51C220.592 102.028 220.009 101.787 219.234 101.787C218.837 101.787 218.489 101.862 218.189 102.012C217.89 102.161 217.639 102.36 217.438 102.607C217.236 102.855 217.079 103.145 216.969 103.477C216.858 103.802 216.796 104.144 216.783 104.502H221.549ZM240.309 102.49C240.309 102.933 240.279 103.385 240.221 103.848C240.169 104.31 240.081 104.759 239.957 105.195C239.833 105.632 239.671 106.045 239.469 106.436C239.267 106.82 239.02 107.158 238.727 107.451C238.434 107.744 238.092 107.975 237.701 108.145C237.317 108.307 236.874 108.389 236.373 108.389C236.106 108.389 235.859 108.359 235.631 108.301C235.403 108.236 235.201 108.145 235.025 108.027C234.85 107.91 234.7 107.76 234.576 107.578C234.459 107.389 234.378 107.174 234.332 106.934C234.072 107.194 233.818 107.419 233.57 107.607C233.329 107.79 233.092 107.939 232.857 108.057C232.623 108.174 232.392 108.258 232.164 108.311C231.943 108.363 231.725 108.389 231.51 108.389C231.23 108.389 230.982 108.363 230.768 108.311C230.553 108.252 230.361 108.171 230.191 108.066C230.029 107.956 229.889 107.822 229.771 107.666C229.654 107.51 229.557 107.334 229.479 107.139C229.4 106.943 229.345 106.729 229.312 106.494C229.28 106.26 229.264 106.006 229.264 105.732C229.264 105.452 229.286 105.133 229.332 104.775C229.378 104.411 229.452 104.036 229.557 103.652C229.661 103.268 229.804 102.894 229.986 102.529C230.169 102.158 230.393 101.829 230.66 101.543C230.934 101.25 231.256 101.016 231.627 100.84C231.998 100.658 232.431 100.566 232.926 100.566C233.134 100.566 233.333 100.592 233.521 100.645C233.717 100.69 233.902 100.765 234.078 100.869C234.254 100.973 234.423 101.104 234.586 101.26C234.749 101.416 234.915 101.602 235.084 101.816L235.25 100.957C235.276 100.866 235.335 100.798 235.426 100.752C235.517 100.706 235.686 100.684 235.934 100.684C236.051 100.684 236.148 100.69 236.227 100.703C236.311 100.716 236.376 100.736 236.422 100.762C236.467 100.781 236.497 100.807 236.51 100.84C236.529 100.872 236.533 100.911 236.52 100.957L235.65 105.449C235.546 106.016 235.572 106.436 235.729 106.709C235.885 106.976 236.181 107.109 236.617 107.109C236.884 107.109 237.125 107.044 237.34 106.914C237.555 106.777 237.743 106.595 237.906 106.367C238.069 106.139 238.206 105.876 238.316 105.576C238.427 105.27 238.518 104.951 238.59 104.619C238.661 104.281 238.714 103.936 238.746 103.584C238.779 103.232 238.795 102.894 238.795 102.568C238.795 102.002 238.717 101.465 238.561 100.957C238.411 100.443 238.15 99.9935 237.779 99.6094C237.408 99.2188 236.91 98.9095 236.285 98.6816C235.667 98.4473 234.889 98.3301 233.951 98.3301C233.183 98.3301 232.499 98.4147 231.9 98.584C231.301 98.7533 230.774 98.9844 230.318 99.2773C229.863 99.5638 229.472 99.8958 229.146 100.273C228.821 100.651 228.544 101.055 228.316 101.484C228.095 101.908 227.916 102.344 227.779 102.793C227.643 103.236 227.538 103.665 227.467 104.082C227.395 104.492 227.346 104.88 227.32 105.244C227.301 105.609 227.291 105.918 227.291 106.172C227.291 106.895 227.372 107.555 227.535 108.154C227.704 108.753 227.994 109.271 228.404 109.707C228.814 110.143 229.365 110.482 230.055 110.723C230.745 110.964 231.614 111.084 232.662 111.084C233.137 111.084 233.567 111.055 233.951 110.996C234.335 110.944 234.667 110.885 234.947 110.82C235.234 110.762 235.465 110.703 235.641 110.645C235.816 110.592 235.937 110.566 236.002 110.566C236.041 110.566 236.074 110.576 236.1 110.596C236.132 110.622 236.155 110.658 236.168 110.703C236.188 110.755 236.201 110.817 236.207 110.889C236.214 110.967 236.217 111.061 236.217 111.172C236.217 111.263 236.214 111.338 236.207 111.396C236.207 111.455 236.201 111.507 236.188 111.553C236.174 111.605 236.155 111.65 236.129 111.689C236.109 111.729 236.08 111.764 236.041 111.797C236.002 111.829 235.888 111.878 235.699 111.943C235.517 112.008 235.266 112.074 234.947 112.139C234.635 112.204 234.267 112.259 233.844 112.305C233.421 112.35 232.955 112.373 232.447 112.373C231.23 112.373 230.198 112.23 229.352 111.943C228.512 111.657 227.825 111.247 227.291 110.713C226.764 110.179 226.383 109.538 226.148 108.789C225.914 108.04 225.797 107.204 225.797 106.279C225.797 105.941 225.813 105.553 225.846 105.117C225.885 104.674 225.953 104.206 226.051 103.711C226.155 103.21 226.298 102.702 226.48 102.188C226.663 101.667 226.897 101.159 227.184 100.664C227.477 100.169 227.828 99.7038 228.238 99.2676C228.655 98.8249 229.143 98.4408 229.703 98.1152C230.27 97.7832 230.914 97.5228 231.637 97.334C232.366 97.1452 233.189 97.0508 234.107 97.0508C235.175 97.0508 236.096 97.181 236.871 97.4414C237.652 97.6953 238.297 98.0566 238.805 98.5254C239.312 98.9941 239.69 99.5671 239.938 100.244C240.185 100.915 240.309 101.663 240.309 102.49ZM234.645 103.125C234.397 102.708 234.143 102.389 233.883 102.168C233.622 101.947 233.326 101.836 232.994 101.836C232.721 101.836 232.473 101.904 232.252 102.041C232.031 102.171 231.839 102.344 231.676 102.559C231.513 102.767 231.373 103.005 231.256 103.271C231.145 103.538 231.054 103.812 230.982 104.092C230.911 104.372 230.859 104.645 230.826 104.912C230.8 105.173 230.787 105.404 230.787 105.605C230.787 106.087 230.872 106.458 231.041 106.719C231.217 106.979 231.51 107.109 231.92 107.109C232.076 107.109 232.236 107.083 232.398 107.031C232.561 106.973 232.734 106.888 232.916 106.777C233.098 106.66 233.29 106.51 233.492 106.328C233.701 106.139 233.928 105.918 234.176 105.664L234.645 103.125ZM245.133 109.756C245.133 109.808 245.12 109.854 245.094 109.893C245.068 109.925 245.025 109.954 244.967 109.98C244.908 110.007 244.827 110.026 244.723 110.039C244.618 110.052 244.485 110.059 244.322 110.059C244.166 110.059 244.036 110.052 243.932 110.039C243.827 110.026 243.743 110.007 243.678 109.98C243.619 109.954 243.577 109.925 243.551 109.893C243.531 109.854 243.521 109.808 243.521 109.756V100.967C243.521 100.921 243.531 100.879 243.551 100.84C243.577 100.801 243.619 100.768 243.678 100.742C243.743 100.716 243.827 100.697 243.932 100.684C244.036 100.671 244.166 100.664 244.322 100.664C244.485 100.664 244.618 100.671 244.723 100.684C244.827 100.697 244.908 100.716 244.967 100.742C245.025 100.768 245.068 100.801 245.094 100.84C245.12 100.879 245.133 100.921 245.133 100.967V109.756ZM245.318 97.998C245.318 98.3757 245.247 98.6328 245.104 98.7695C244.96 98.9062 244.697 98.9746 244.312 98.9746C243.935 98.9746 243.674 98.9095 243.531 98.7793C243.395 98.6426 243.326 98.3887 243.326 98.0176C243.326 97.64 243.398 97.3828 243.541 97.2461C243.684 97.1094 243.948 97.041 244.332 97.041C244.71 97.041 244.967 97.1094 245.104 97.2461C245.247 97.3763 245.318 97.627 245.318 97.998ZM255.68 109.756C255.68 109.808 255.667 109.854 255.641 109.893C255.615 109.925 255.572 109.954 255.514 109.98C255.455 110.007 255.374 110.026 255.27 110.039C255.165 110.052 255.035 110.059 254.879 110.059C254.716 110.059 254.583 110.052 254.479 110.039C254.374 110.026 254.293 110.007 254.234 109.98C254.176 109.954 254.133 109.925 254.107 109.893C254.081 109.854 254.068 109.808 254.068 109.756V104.609C254.068 104.108 254.029 103.704 253.951 103.398C253.873 103.092 253.759 102.829 253.609 102.607C253.46 102.386 253.264 102.217 253.023 102.1C252.789 101.982 252.516 101.924 252.203 101.924C251.799 101.924 251.396 102.067 250.992 102.354C250.589 102.64 250.165 103.06 249.723 103.613V109.756C249.723 109.808 249.71 109.854 249.684 109.893C249.658 109.925 249.615 109.954 249.557 109.98C249.498 110.007 249.417 110.026 249.312 110.039C249.208 110.052 249.075 110.059 248.912 110.059C248.756 110.059 248.626 110.052 248.521 110.039C248.417 110.026 248.333 110.007 248.268 109.98C248.209 109.954 248.167 109.925 248.141 109.893C248.121 109.854 248.111 109.808 248.111 109.756V100.967C248.111 100.915 248.121 100.872 248.141 100.84C248.16 100.801 248.199 100.768 248.258 100.742C248.316 100.71 248.391 100.69 248.482 100.684C248.574 100.671 248.694 100.664 248.844 100.664C248.987 100.664 249.104 100.671 249.195 100.684C249.293 100.69 249.368 100.71 249.42 100.742C249.472 100.768 249.508 100.801 249.527 100.84C249.553 100.872 249.566 100.915 249.566 100.967V102.129C250.061 101.576 250.553 101.172 251.041 100.918C251.536 100.658 252.034 100.527 252.535 100.527C253.121 100.527 253.613 100.628 254.01 100.83C254.413 101.025 254.739 101.289 254.986 101.621C255.234 101.953 255.41 102.344 255.514 102.793C255.624 103.236 255.68 103.77 255.68 104.395V109.756ZM263.316 97.3535C263.316 97.4772 263.31 97.5781 263.297 97.6562C263.284 97.7279 263.268 97.7865 263.248 97.832C263.235 97.8776 263.215 97.9102 263.189 97.9297C263.163 97.9427 263.131 97.9492 263.092 97.9492C263.046 97.9492 262.988 97.9362 262.916 97.9102C262.851 97.8776 262.77 97.8451 262.672 97.8125C262.574 97.7734 262.457 97.7409 262.32 97.7148C262.19 97.6823 262.037 97.666 261.861 97.666C261.62 97.666 261.415 97.7051 261.246 97.7832C261.077 97.8613 260.94 97.985 260.836 98.1543C260.732 98.3171 260.657 98.5319 260.611 98.7988C260.566 99.0592 260.543 99.3783 260.543 99.7559V100.713H262.506C262.558 100.713 262.6 100.726 262.633 100.752C262.672 100.771 262.704 100.811 262.73 100.869C262.763 100.921 262.786 100.99 262.799 101.074C262.818 101.159 262.828 101.263 262.828 101.387C262.828 101.621 262.799 101.79 262.74 101.895C262.682 101.999 262.604 102.051 262.506 102.051H260.543V109.756C260.543 109.808 260.53 109.854 260.504 109.893C260.478 109.925 260.432 109.954 260.367 109.98C260.309 110.007 260.227 110.026 260.123 110.039C260.019 110.052 259.889 110.059 259.732 110.059C259.576 110.059 259.446 110.052 259.342 110.039C259.238 110.026 259.153 110.007 259.088 109.98C259.029 109.954 258.987 109.925 258.961 109.893C258.935 109.854 258.922 109.808 258.922 109.756V102.051H257.682C257.577 102.051 257.499 101.999 257.447 101.895C257.395 101.79 257.369 101.621 257.369 101.387C257.369 101.263 257.376 101.159 257.389 101.074C257.402 100.99 257.421 100.921 257.447 100.869C257.473 100.811 257.506 100.771 257.545 100.752C257.584 100.726 257.63 100.713 257.682 100.713H258.922V99.8047C258.922 99.1927 258.977 98.6686 259.088 98.2324C259.205 97.7897 259.381 97.4284 259.615 97.1484C259.85 96.8685 260.143 96.6634 260.494 96.5332C260.852 96.3965 261.272 96.3281 261.754 96.3281C261.982 96.3281 262.203 96.3509 262.418 96.3965C262.633 96.4355 262.799 96.4811 262.916 96.5332C263.033 96.5788 263.111 96.6211 263.15 96.6602C263.189 96.6992 263.222 96.7513 263.248 96.8164C263.274 96.875 263.29 96.9499 263.297 97.041C263.31 97.1257 263.316 97.2298 263.316 97.3535ZM272.359 105.264C272.359 105.98 272.265 106.641 272.076 107.246C271.887 107.845 271.604 108.363 271.227 108.799C270.855 109.235 270.387 109.577 269.82 109.824C269.26 110.065 268.609 110.186 267.867 110.186C267.145 110.186 266.513 110.078 265.973 109.863C265.439 109.648 264.993 109.336 264.635 108.926C264.277 108.516 264.01 108.018 263.834 107.432C263.658 106.846 263.57 106.182 263.57 105.439C263.57 104.723 263.661 104.066 263.844 103.467C264.033 102.861 264.312 102.34 264.684 101.904C265.061 101.468 265.53 101.13 266.09 100.889C266.65 100.648 267.304 100.527 268.053 100.527C268.775 100.527 269.404 100.635 269.938 100.85C270.478 101.064 270.927 101.377 271.285 101.787C271.643 102.197 271.91 102.695 272.086 103.281C272.268 103.867 272.359 104.528 272.359 105.264ZM270.66 105.371C270.66 104.896 270.615 104.447 270.523 104.023C270.439 103.6 270.296 103.229 270.094 102.91C269.892 102.591 269.618 102.34 269.273 102.158C268.928 101.969 268.499 101.875 267.984 101.875C267.509 101.875 267.099 101.96 266.754 102.129C266.415 102.298 266.135 102.539 265.914 102.852C265.693 103.158 265.527 103.522 265.416 103.945C265.312 104.368 265.26 104.831 265.26 105.332C265.26 105.814 265.302 106.266 265.387 106.689C265.478 107.113 265.624 107.484 265.826 107.803C266.035 108.115 266.311 108.366 266.656 108.555C267.001 108.737 267.431 108.828 267.945 108.828C268.414 108.828 268.821 108.743 269.166 108.574C269.511 108.405 269.794 108.167 270.016 107.861C270.237 107.555 270.4 107.191 270.504 106.768C270.608 106.344 270.66 105.879 270.66 105.371ZM276.812 108.936C276.812 109.398 276.734 109.707 276.578 109.863C276.428 110.013 276.152 110.088 275.748 110.088C275.357 110.088 275.087 110.013 274.938 109.863C274.788 109.714 274.713 109.414 274.713 108.965C274.713 108.503 274.788 108.197 274.938 108.047C275.094 107.891 275.374 107.812 275.777 107.812C276.168 107.812 276.438 107.887 276.588 108.037C276.738 108.187 276.812 108.486 276.812 108.936ZM286.109 108.418C286.109 108.529 286.106 108.626 286.1 108.711C286.093 108.789 286.08 108.857 286.061 108.916C286.048 108.968 286.028 109.017 286.002 109.062C285.982 109.102 285.93 109.163 285.846 109.248C285.768 109.326 285.631 109.427 285.436 109.551C285.24 109.668 285.019 109.775 284.771 109.873C284.531 109.964 284.267 110.039 283.98 110.098C283.694 110.156 283.398 110.186 283.092 110.186C282.46 110.186 281.9 110.081 281.412 109.873C280.924 109.665 280.514 109.362 280.182 108.965C279.856 108.561 279.605 108.07 279.43 107.49C279.26 106.904 279.176 106.23 279.176 105.469C279.176 104.603 279.28 103.861 279.488 103.242C279.703 102.617 279.993 102.106 280.357 101.709C280.729 101.312 281.161 101.019 281.656 100.83C282.158 100.635 282.698 100.537 283.277 100.537C283.557 100.537 283.827 100.563 284.088 100.615C284.355 100.667 284.599 100.736 284.82 100.82C285.042 100.905 285.237 101.003 285.406 101.113C285.582 101.224 285.709 101.318 285.787 101.396C285.865 101.475 285.917 101.536 285.943 101.582C285.976 101.628 286.002 101.683 286.021 101.748C286.041 101.807 286.054 101.875 286.061 101.953C286.067 102.031 286.07 102.129 286.07 102.246C286.07 102.5 286.041 102.679 285.982 102.783C285.924 102.881 285.852 102.93 285.768 102.93C285.67 102.93 285.556 102.878 285.426 102.773C285.302 102.663 285.143 102.542 284.947 102.412C284.752 102.282 284.514 102.165 284.234 102.061C283.961 101.95 283.635 101.895 283.258 101.895C282.483 101.895 281.887 102.194 281.471 102.793C281.061 103.385 280.855 104.248 280.855 105.381C280.855 105.947 280.908 106.445 281.012 106.875C281.122 107.298 281.282 107.653 281.49 107.939C281.699 108.226 281.952 108.441 282.252 108.584C282.558 108.721 282.906 108.789 283.297 108.789C283.668 108.789 283.993 108.73 284.273 108.613C284.553 108.496 284.794 108.369 284.996 108.232C285.204 108.089 285.377 107.962 285.514 107.852C285.657 107.734 285.768 107.676 285.846 107.676C285.891 107.676 285.93 107.689 285.963 107.715C285.995 107.741 286.021 107.786 286.041 107.852C286.067 107.91 286.083 107.988 286.09 108.086C286.103 108.177 286.109 108.288 286.109 108.418ZM296.246 105.264C296.246 105.98 296.152 106.641 295.963 107.246C295.774 107.845 295.491 108.363 295.113 108.799C294.742 109.235 294.273 109.577 293.707 109.824C293.147 110.065 292.496 110.186 291.754 110.186C291.031 110.186 290.4 110.078 289.859 109.863C289.326 109.648 288.88 109.336 288.521 108.926C288.163 108.516 287.896 108.018 287.721 107.432C287.545 106.846 287.457 106.182 287.457 105.439C287.457 104.723 287.548 104.066 287.73 103.467C287.919 102.861 288.199 102.34 288.57 101.904C288.948 101.468 289.417 101.13 289.977 100.889C290.536 100.648 291.191 100.527 291.939 100.527C292.662 100.527 293.29 100.635 293.824 100.85C294.365 101.064 294.814 101.377 295.172 101.787C295.53 102.197 295.797 102.695 295.973 103.281C296.155 103.867 296.246 104.528 296.246 105.264ZM294.547 105.371C294.547 104.896 294.501 104.447 294.41 104.023C294.326 103.6 294.182 103.229 293.98 102.91C293.779 102.591 293.505 102.34 293.16 102.158C292.815 101.969 292.385 101.875 291.871 101.875C291.396 101.875 290.986 101.96 290.641 102.129C290.302 102.298 290.022 102.539 289.801 102.852C289.579 103.158 289.413 103.522 289.303 103.945C289.199 104.368 289.146 104.831 289.146 105.332C289.146 105.814 289.189 106.266 289.273 106.689C289.365 107.113 289.511 107.484 289.713 107.803C289.921 108.115 290.198 108.366 290.543 108.555C290.888 108.737 291.318 108.828 291.832 108.828C292.301 108.828 292.708 108.743 293.053 108.574C293.398 108.405 293.681 108.167 293.902 107.861C294.124 107.555 294.286 107.191 294.391 106.768C294.495 106.344 294.547 105.879 294.547 105.371ZM311.656 109.756C311.656 109.808 311.643 109.854 311.617 109.893C311.591 109.925 311.549 109.954 311.49 109.98C311.432 110.007 311.35 110.026 311.246 110.039C311.142 110.052 311.012 110.059 310.855 110.059C310.693 110.059 310.559 110.052 310.455 110.039C310.351 110.026 310.266 110.007 310.201 109.98C310.143 109.954 310.1 109.925 310.074 109.893C310.048 109.854 310.035 109.808 310.035 109.756V104.414C310.035 104.043 310.003 103.704 309.938 103.398C309.872 103.092 309.768 102.829 309.625 102.607C309.482 102.386 309.299 102.217 309.078 102.1C308.857 101.982 308.596 101.924 308.297 101.924C307.926 101.924 307.551 102.067 307.174 102.354C306.803 102.64 306.393 103.06 305.943 103.613V109.756C305.943 109.808 305.93 109.854 305.904 109.893C305.878 109.925 305.833 109.954 305.768 109.98C305.709 110.007 305.628 110.026 305.523 110.039C305.419 110.052 305.289 110.059 305.133 110.059C304.983 110.059 304.853 110.052 304.742 110.039C304.638 110.026 304.553 110.007 304.488 109.98C304.43 109.954 304.387 109.925 304.361 109.893C304.342 109.854 304.332 109.808 304.332 109.756V104.414C304.332 104.043 304.296 103.704 304.225 103.398C304.153 103.092 304.046 102.829 303.902 102.607C303.759 102.386 303.577 102.217 303.355 102.1C303.141 101.982 302.883 101.924 302.584 101.924C302.213 101.924 301.839 102.067 301.461 102.354C301.083 102.64 300.673 103.06 300.23 103.613V109.756C300.23 109.808 300.217 109.854 300.191 109.893C300.165 109.925 300.123 109.954 300.064 109.98C300.006 110.007 299.924 110.026 299.82 110.039C299.716 110.052 299.583 110.059 299.42 110.059C299.264 110.059 299.133 110.052 299.029 110.039C298.925 110.026 298.84 110.007 298.775 109.98C298.717 109.954 298.674 109.925 298.648 109.893C298.629 109.854 298.619 109.808 298.619 109.756V100.967C298.619 100.915 298.629 100.872 298.648 100.84C298.668 100.801 298.707 100.768 298.766 100.742C298.824 100.71 298.899 100.69 298.99 100.684C299.081 100.671 299.202 100.664 299.352 100.664C299.495 100.664 299.612 100.671 299.703 100.684C299.801 100.69 299.876 100.71 299.928 100.742C299.98 100.768 300.016 100.801 300.035 100.84C300.061 100.872 300.074 100.915 300.074 100.967V102.129C300.569 101.576 301.048 101.172 301.51 100.918C301.979 100.658 302.451 100.527 302.926 100.527C303.29 100.527 303.616 100.57 303.902 100.654C304.195 100.739 304.452 100.859 304.674 101.016C304.895 101.165 305.084 101.348 305.24 101.562C305.396 101.771 305.527 102.005 305.631 102.266C305.924 101.947 306.201 101.676 306.461 101.455C306.728 101.234 306.982 101.055 307.223 100.918C307.47 100.781 307.708 100.684 307.936 100.625C308.17 100.56 308.404 100.527 308.639 100.527C309.205 100.527 309.68 100.628 310.064 100.83C310.449 101.025 310.758 101.289 310.992 101.621C311.233 101.953 311.402 102.344 311.5 102.793C311.604 103.236 311.656 103.704 311.656 104.199V109.756Z" fill="#BCBCBC"/>
<path d="M118.164 49.3203C118.164 49.5482 118.155 49.7441 118.137 49.9082C118.128 50.0632 118.109 50.1999 118.082 50.3184C118.055 50.4277 118.018 50.5234 117.973 50.6055C117.927 50.6875 117.854 50.7832 117.754 50.8926C117.654 50.9928 117.458 51.125 117.166 51.2891C116.883 51.4531 116.533 51.6126 116.113 51.7676C115.703 51.9134 115.229 52.0365 114.691 52.1367C114.163 52.237 113.589 52.2871 112.969 52.2871C111.757 52.2871 110.663 52.1003 109.688 51.7266C108.712 51.3529 107.883 50.7969 107.199 50.0586C106.516 49.3112 105.992 48.3815 105.627 47.2695C105.262 46.1576 105.08 44.8633 105.08 43.3867C105.08 41.8828 105.281 40.5475 105.682 39.3809C106.083 38.2142 106.643 37.2344 107.363 36.4414C108.083 35.6484 108.945 35.0469 109.947 34.6367C110.959 34.2266 112.071 34.0215 113.283 34.0215C113.775 34.0215 114.249 34.0625 114.705 34.1445C115.161 34.2266 115.58 34.3359 115.963 34.4727C116.355 34.6003 116.706 34.7507 117.016 34.9238C117.326 35.097 117.54 35.2474 117.658 35.375C117.786 35.4935 117.872 35.5938 117.918 35.6758C117.964 35.7578 118 35.8626 118.027 35.9902C118.055 36.1178 118.073 36.2682 118.082 36.4414C118.1 36.6146 118.109 36.8288 118.109 37.084C118.109 37.3574 118.1 37.5898 118.082 37.7812C118.064 37.9727 118.032 38.1276 117.986 38.2461C117.941 38.3646 117.886 38.4512 117.822 38.5059C117.758 38.5605 117.686 38.5879 117.604 38.5879C117.467 38.5879 117.294 38.5104 117.084 38.3555C116.874 38.1914 116.601 38.0137 116.264 37.8223C115.936 37.6217 115.539 37.444 115.074 37.2891C114.618 37.125 114.072 37.043 113.434 37.043C112.732 37.043 112.103 37.1888 111.547 37.4805C111 37.763 110.531 38.1732 110.139 38.7109C109.756 39.2396 109.464 39.8822 109.264 40.6387C109.063 41.3952 108.963 42.2474 108.963 43.1953C108.963 44.2344 109.068 45.1367 109.277 45.9023C109.496 46.6589 109.801 47.2832 110.193 47.7754C110.594 48.2676 111.073 48.6367 111.629 48.8828C112.194 49.1198 112.827 49.2383 113.529 49.2383C114.167 49.2383 114.719 49.1654 115.184 49.0195C115.648 48.8646 116.045 48.696 116.373 48.5137C116.71 48.3314 116.984 48.1673 117.193 48.0215C117.412 47.8757 117.581 47.8027 117.699 47.8027C117.79 47.8027 117.863 47.821 117.918 47.8574C117.973 47.8939 118.018 47.9668 118.055 48.0762C118.091 48.1855 118.118 48.3405 118.137 48.541C118.155 48.7324 118.164 48.9922 118.164 49.3203ZM132.875 45.3145C132.875 46.3535 132.738 47.3014 132.465 48.1582C132.191 49.015 131.777 49.7533 131.221 50.373C130.665 50.9928 129.967 51.4714 129.129 51.8086C128.29 52.1458 127.311 52.3145 126.189 52.3145C125.105 52.3145 124.161 52.1641 123.359 51.8633C122.557 51.5625 121.892 51.125 121.363 50.5508C120.835 49.9766 120.443 49.2702 120.188 48.4316C119.932 47.5931 119.805 46.6361 119.805 45.5605C119.805 44.5215 119.941 43.5736 120.215 42.7168C120.497 41.8509 120.917 41.1126 121.473 40.502C122.029 39.8822 122.721 39.4036 123.551 39.0664C124.389 38.7292 125.369 38.5605 126.49 38.5605C127.584 38.5605 128.532 38.7109 129.334 39.0117C130.136 39.3034 130.797 39.7363 131.316 40.3105C131.845 40.8848 132.237 41.5911 132.492 42.4297C132.747 43.2682 132.875 44.2298 132.875 45.3145ZM129.334 45.4512C129.334 44.8496 129.284 44.2982 129.184 43.7969C129.092 43.2865 128.933 42.8444 128.705 42.4707C128.477 42.097 128.172 41.8053 127.789 41.5957C127.415 41.3861 126.941 41.2812 126.367 41.2812C125.857 41.2812 125.41 41.377 125.027 41.5684C124.645 41.7507 124.33 42.0241 124.084 42.3887C123.838 42.7441 123.651 43.1771 123.523 43.6875C123.405 44.1888 123.346 44.763 123.346 45.4102C123.346 46.0117 123.396 46.5677 123.496 47.0781C123.596 47.5794 123.756 48.0169 123.975 48.3906C124.202 48.7643 124.508 49.056 124.891 49.2656C125.273 49.4661 125.747 49.5664 126.312 49.5664C126.832 49.5664 127.283 49.4753 127.666 49.293C128.049 49.1016 128.363 48.8281 128.609 48.4727C128.855 48.1172 129.038 47.6888 129.156 47.1875C129.275 46.6771 129.334 46.0983 129.334 45.4512ZM147.258 51.5352C147.258 51.6263 147.23 51.7083 147.176 51.7812C147.121 51.8451 147.03 51.8997 146.902 51.9453C146.775 51.9909 146.597 52.0228 146.369 52.041C146.15 52.0684 145.877 52.082 145.549 52.082C145.212 52.082 144.929 52.0684 144.701 52.041C144.482 52.0228 144.309 51.9909 144.182 51.9453C144.054 51.8997 143.963 51.8451 143.908 51.7812C143.854 51.7083 143.826 51.6263 143.826 51.5352V44.5762C143.826 43.9837 143.781 43.5189 143.689 43.1816C143.607 42.8444 143.484 42.5573 143.32 42.3203C143.156 42.0742 142.942 41.8874 142.678 41.7598C142.423 41.623 142.122 41.5547 141.775 41.5547C141.338 41.5547 140.896 41.7142 140.449 42.0332C140.003 42.3522 139.538 42.8171 139.055 43.4277V51.5352C139.055 51.6263 139.027 51.7083 138.973 51.7812C138.918 51.8451 138.822 51.8997 138.686 51.9453C138.558 51.9909 138.385 52.0228 138.166 52.041C137.947 52.0684 137.669 52.082 137.332 52.082C136.995 52.082 136.717 52.0684 136.498 52.041C136.279 52.0228 136.102 51.9909 135.965 51.9453C135.837 51.8997 135.746 51.8451 135.691 51.7812C135.637 51.7083 135.609 51.6263 135.609 51.5352V39.3398C135.609 39.2487 135.632 39.1712 135.678 39.1074C135.723 39.0345 135.805 38.9753 135.924 38.9297C136.042 38.8841 136.193 38.8522 136.375 38.834C136.566 38.8066 136.803 38.793 137.086 38.793C137.378 38.793 137.619 38.8066 137.811 38.834C138.002 38.8522 138.148 38.8841 138.248 38.9297C138.357 38.9753 138.435 39.0345 138.48 39.1074C138.526 39.1712 138.549 39.2487 138.549 39.3398V40.748C139.223 40.0189 139.907 39.472 140.6 39.1074C141.301 38.7428 142.031 38.5605 142.787 38.5605C143.617 38.5605 144.314 38.6973 144.879 38.9707C145.453 39.2441 145.913 39.6178 146.26 40.0918C146.615 40.5566 146.87 41.1035 147.025 41.7324C147.18 42.3613 147.258 43.1178 147.258 44.002V51.5352ZM157.594 50.332C157.594 50.7331 157.566 51.043 157.512 51.2617C157.466 51.4714 157.402 51.6217 157.32 51.7129C157.238 51.7949 157.115 51.8724 156.951 51.9453C156.796 52.0091 156.609 52.0638 156.391 52.1094C156.181 52.1641 155.949 52.2051 155.693 52.2324C155.447 52.2598 155.197 52.2734 154.941 52.2734C154.258 52.2734 153.665 52.1868 153.164 52.0137C152.663 51.8405 152.248 51.5762 151.92 51.2207C151.592 50.8561 151.35 50.4004 151.195 49.8535C151.04 49.3066 150.963 48.6595 150.963 47.9121V41.6641H149.5C149.327 41.6641 149.195 41.5592 149.104 41.3496C149.012 41.1309 148.967 40.7708 148.967 40.2695C148.967 40.0052 148.976 39.7819 148.994 39.5996C149.021 39.4173 149.058 39.276 149.104 39.1758C149.149 39.0664 149.204 38.9889 149.268 38.9434C149.34 38.8978 149.423 38.875 149.514 38.875H150.963V36.1543C150.963 36.0632 150.986 35.9811 151.031 35.9082C151.086 35.8353 151.177 35.776 151.305 35.7305C151.441 35.6758 151.619 35.6393 151.838 35.6211C152.066 35.5938 152.344 35.5801 152.672 35.5801C153.009 35.5801 153.287 35.5938 153.506 35.6211C153.734 35.6393 153.911 35.6758 154.039 35.7305C154.167 35.776 154.258 35.8353 154.312 35.9082C154.367 35.9811 154.395 36.0632 154.395 36.1543V38.875H157.047C157.138 38.875 157.215 38.8978 157.279 38.9434C157.352 38.9889 157.411 39.0664 157.457 39.1758C157.503 39.276 157.535 39.4173 157.553 39.5996C157.58 39.7819 157.594 40.0052 157.594 40.2695C157.594 40.7708 157.548 41.1309 157.457 41.3496C157.366 41.5592 157.234 41.6641 157.061 41.6641H154.395V47.3926C154.395 48.0579 154.499 48.5592 154.709 48.8965C154.919 49.2246 155.292 49.3887 155.83 49.3887C156.012 49.3887 156.176 49.375 156.322 49.3477C156.468 49.3112 156.596 49.2747 156.705 49.2383C156.824 49.1927 156.919 49.1562 156.992 49.1289C157.074 49.0924 157.147 49.0742 157.211 49.0742C157.266 49.0742 157.316 49.0924 157.361 49.1289C157.416 49.1562 157.457 49.2201 157.484 49.3203C157.512 49.4115 157.535 49.5391 157.553 49.7031C157.58 49.8672 157.594 50.0768 157.594 50.332ZM170.199 51.5762C170.199 51.7038 170.154 51.804 170.062 51.877C169.971 51.9499 169.826 52 169.625 52.0273C169.434 52.0638 169.146 52.082 168.764 52.082C168.354 52.082 168.053 52.0638 167.861 52.0273C167.679 52 167.547 51.9499 167.465 51.877C167.392 51.804 167.355 51.7038 167.355 51.5762V50.6055C166.854 51.1432 166.28 51.5625 165.633 51.8633C164.995 52.1641 164.284 52.3145 163.5 52.3145C162.853 52.3145 162.256 52.2279 161.709 52.0547C161.171 51.8906 160.702 51.6445 160.301 51.3164C159.909 50.9792 159.604 50.5645 159.385 50.0723C159.166 49.5801 159.057 49.0059 159.057 48.3496C159.057 47.6387 159.193 47.0234 159.467 46.5039C159.749 45.9753 160.164 45.5423 160.711 45.2051C161.267 44.8587 161.955 44.6035 162.775 44.4395C163.596 44.2754 164.548 44.1934 165.633 44.1934H166.822V43.4551C166.822 43.0723 166.781 42.7396 166.699 42.457C166.626 42.1654 166.499 41.9238 166.316 41.7324C166.143 41.541 165.906 41.3997 165.605 41.3086C165.314 41.2174 164.949 41.1719 164.512 41.1719C163.938 41.1719 163.423 41.2357 162.967 41.3633C162.52 41.4909 162.124 41.6322 161.777 41.7871C161.431 41.9421 161.139 42.0833 160.902 42.2109C160.674 42.3385 160.488 42.4023 160.342 42.4023C160.242 42.4023 160.15 42.3704 160.068 42.3066C159.995 42.2428 159.932 42.1517 159.877 42.0332C159.831 41.9147 159.795 41.7689 159.768 41.5957C159.74 41.4225 159.727 41.2311 159.727 41.0215C159.727 40.7389 159.749 40.5156 159.795 40.3516C159.84 40.1875 159.927 40.0417 160.055 39.9141C160.182 39.7773 160.406 39.6315 160.725 39.4766C161.044 39.3125 161.417 39.1621 161.846 39.0254C162.274 38.8887 162.739 38.7793 163.24 38.6973C163.751 38.6061 164.275 38.5605 164.812 38.5605C165.77 38.5605 166.585 38.6562 167.26 38.8477C167.943 39.0299 168.504 39.3171 168.941 39.709C169.379 40.0918 169.698 40.5885 169.898 41.1992C170.099 41.8099 170.199 42.5345 170.199 43.373V51.5762ZM166.822 46.3535H165.51C164.954 46.3535 164.48 46.3945 164.088 46.4766C163.696 46.5586 163.377 46.6816 163.131 46.8457C162.885 47.0098 162.702 47.2103 162.584 47.4473C162.475 47.6751 162.42 47.9395 162.42 48.2402C162.42 48.7507 162.579 49.1517 162.898 49.4434C163.227 49.735 163.678 49.8809 164.252 49.8809C164.735 49.8809 165.177 49.7578 165.578 49.5117C165.988 49.2656 166.403 48.9056 166.822 48.4316V46.3535ZM182.873 49.5938C182.873 49.8307 182.864 50.0312 182.846 50.1953C182.837 50.3503 182.818 50.4824 182.791 50.5918C182.773 50.7012 182.745 50.7923 182.709 50.8652C182.682 50.929 182.613 51.0156 182.504 51.125C182.395 51.2253 182.208 51.3529 181.943 51.5078C181.679 51.6536 181.378 51.7858 181.041 51.9043C180.704 52.0228 180.335 52.1185 179.934 52.1914C179.542 52.2643 179.136 52.3008 178.717 52.3008C177.778 52.3008 176.944 52.1549 176.215 51.8633C175.495 51.5716 174.889 51.1432 174.396 50.5781C173.904 50.0039 173.531 49.3066 173.275 48.4863C173.029 47.666 172.906 46.7272 172.906 45.6699C172.906 44.4486 173.057 43.3958 173.357 42.5117C173.667 41.6185 174.096 40.8802 174.643 40.2969C175.189 39.7135 175.837 39.2806 176.584 38.998C177.331 38.7155 178.152 38.5742 179.045 38.5742C179.41 38.5742 179.765 38.6061 180.111 38.6699C180.467 38.7337 180.795 38.8203 181.096 38.9297C181.406 39.0391 181.679 39.1621 181.916 39.2988C182.162 39.4355 182.335 39.554 182.436 39.6543C182.536 39.7546 182.604 39.8411 182.641 39.9141C182.686 39.9779 182.718 40.0645 182.736 40.1738C182.764 40.2832 182.782 40.4199 182.791 40.584C182.809 40.7389 182.818 40.9303 182.818 41.1582C182.818 41.6868 182.773 42.0605 182.682 42.2793C182.59 42.4889 182.472 42.5938 182.326 42.5938C182.171 42.5938 182.007 42.5299 181.834 42.4023C181.661 42.2747 181.456 42.1335 181.219 41.9785C180.982 41.8236 180.699 41.6823 180.371 41.5547C180.043 41.4271 179.651 41.3633 179.195 41.3633C178.302 41.3633 177.618 41.7096 177.145 42.4023C176.671 43.0859 176.434 44.0931 176.434 45.4238C176.434 46.0801 176.493 46.6589 176.611 47.1602C176.73 47.6615 176.903 48.0807 177.131 48.418C177.368 48.7552 177.66 49.0104 178.006 49.1836C178.361 49.3477 178.771 49.4297 179.236 49.4297C179.71 49.4297 180.116 49.3613 180.453 49.2246C180.799 49.0788 181.1 48.9193 181.355 48.7461C181.611 48.5729 181.825 48.418 181.998 48.2812C182.171 48.1354 182.317 48.0625 182.436 48.0625C182.518 48.0625 182.586 48.0853 182.641 48.1309C182.695 48.1764 182.736 48.263 182.764 48.3906C182.8 48.5091 182.827 48.6641 182.846 48.8555C182.864 49.0469 182.873 49.293 182.873 49.5938ZM192.594 50.332C192.594 50.7331 192.566 51.043 192.512 51.2617C192.466 51.4714 192.402 51.6217 192.32 51.7129C192.238 51.7949 192.115 51.8724 191.951 51.9453C191.796 52.0091 191.609 52.0638 191.391 52.1094C191.181 52.1641 190.949 52.2051 190.693 52.2324C190.447 52.2598 190.197 52.2734 189.941 52.2734C189.258 52.2734 188.665 52.1868 188.164 52.0137C187.663 51.8405 187.248 51.5762 186.92 51.2207C186.592 50.8561 186.35 50.4004 186.195 49.8535C186.04 49.3066 185.963 48.6595 185.963 47.9121V41.6641H184.5C184.327 41.6641 184.195 41.5592 184.104 41.3496C184.012 41.1309 183.967 40.7708 183.967 40.2695C183.967 40.0052 183.976 39.7819 183.994 39.5996C184.021 39.4173 184.058 39.276 184.104 39.1758C184.149 39.0664 184.204 38.9889 184.268 38.9434C184.34 38.8978 184.423 38.875 184.514 38.875H185.963V36.1543C185.963 36.0632 185.986 35.9811 186.031 35.9082C186.086 35.8353 186.177 35.776 186.305 35.7305C186.441 35.6758 186.619 35.6393 186.838 35.6211C187.066 35.5938 187.344 35.5801 187.672 35.5801C188.009 35.5801 188.287 35.5938 188.506 35.6211C188.734 35.6393 188.911 35.6758 189.039 35.7305C189.167 35.776 189.258 35.8353 189.312 35.9082C189.367 35.9811 189.395 36.0632 189.395 36.1543V38.875H192.047C192.138 38.875 192.215 38.8978 192.279 38.9434C192.352 38.9889 192.411 39.0664 192.457 39.1758C192.503 39.276 192.535 39.4173 192.553 39.5996C192.58 39.7819 192.594 40.0052 192.594 40.2695C192.594 40.7708 192.548 41.1309 192.457 41.3496C192.366 41.5592 192.234 41.6641 192.061 41.6641H189.395V47.3926C189.395 48.0579 189.499 48.5592 189.709 48.8965C189.919 49.2246 190.292 49.3887 190.83 49.3887C191.012 49.3887 191.176 49.375 191.322 49.3477C191.468 49.3112 191.596 49.2747 191.705 49.2383C191.824 49.1927 191.919 49.1562 191.992 49.1289C192.074 49.0924 192.147 49.0742 192.211 49.0742C192.266 49.0742 192.316 49.0924 192.361 49.1289C192.416 49.1562 192.457 49.2201 192.484 49.3203C192.512 49.4115 192.535 49.5391 192.553 49.7031C192.58 49.8672 192.594 50.0768 192.594 50.332Z" fill="white"/>
<path d="M64.4673 32.0174C61.892 30.5269 58.8284 30.1325 55.9596 30.9012L34.825 36.5642C28.8328 38.1698 25.2955 44.2996 26.8948 50.2684L31.4234 67.1691C33.0227 73.1379 39.1724 76.6721 45.1432 75.0722L66.2778 69.4093C72.2486 67.8094 75.8094 61.6732 74.2101 55.7045L69.6816 38.8037C68.9134 35.937 67.0437 33.503 64.4673 32.0174Z" fill="url(#paint0_linear_0_125)"/>
<g filter="url(#filter1_f_0_125)">
<path d="M58.6136 37.5757C56.9886 36.5794 55.0669 36.2965 53.2766 36.7762L40.0873 40.3102C36.3477 41.3122 34.1824 45.2948 35.2324 49.2137L38.2057 60.3102C39.2558 64.2291 43.1357 66.5918 46.8619 65.5934L60.0512 62.0593C63.7774 61.0609 65.9574 57.0744 64.9074 53.1555L61.9341 42.059C61.4297 40.1768 60.239 38.5689 58.6136 37.5757Z" fill="#EF5641"/>
</g>
<g filter="url(#filter2_b_0_125)">
<mask id="path-9-outside-1_0_125" maskUnits="userSpaceOnUse" x="37.5297" y="38.5027" width="52" height="47" fill="black">
<rect fill="white" x="37.5297" y="38.5027" width="52" height="47"/>
<path d="M84.31 43.1638C81.964 40.8129 78.7751 39.5027 75.46 39.5027H51.0384C44.1141 39.5027 38.5297 45.0896 38.5297 51.9867V71.516C38.5297 78.4131 44.1389 84 51.0384 84H75.46C82.3596 84 87.9712 78.4131 87.9712 71.516V51.9867C87.9712 48.6741 86.6585 45.5098 84.31 43.1638Z"/>
</mask>
<path d="M84.31 43.1638C81.964 40.8129 78.7751 39.5027 75.46 39.5027H51.0384C44.1141 39.5027 38.5297 45.0896 38.5297 51.9867V71.516C38.5297 78.4131 44.1389 84 51.0384 84H75.46C82.3596 84 87.9712 78.4131 87.9712 71.516V51.9867C87.9712 48.6741 86.6585 45.5098 84.31 43.1638Z" fill="#FFAC95" fill-opacity="0.4"/>
<path d="M83.6022 43.8702C83.9923 44.2611 84.6255 44.2618 85.0164 43.8717C85.4073 43.4816 85.408 42.8484 85.0179 42.4575L83.6022 43.8702ZM85.0168 42.4563C84.626 42.066 83.9929 42.0664 83.6025 42.4571C83.2122 42.8478 83.2126 43.481 83.6033 43.8713L85.0168 42.4563ZM85.0179 42.4575C82.4826 39.9169 79.0383 38.5027 75.46 38.5027V40.5027C78.5118 40.5027 81.4454 41.7089 83.6022 43.8702L85.0179 42.4575ZM75.46 38.5027H51.0384V40.5027H75.46V38.5027ZM51.0384 38.5027C43.563 38.5027 37.5297 44.5361 37.5297 51.9867H39.5297C39.5297 45.643 44.6653 40.5027 51.0384 40.5027V38.5027ZM37.5297 51.9867V71.516H39.5297V51.9867H37.5297ZM37.5297 71.516C37.5297 78.9678 43.589 85 51.0384 85V83C44.6887 83 39.5297 77.8584 39.5297 71.516H37.5297ZM51.0384 85H75.46V83H51.0384V85ZM75.46 85C82.9091 85 88.9712 78.9681 88.9712 71.516H86.9712C86.9712 77.8581 81.81 83 75.46 83V85ZM88.9712 71.516V51.9867H86.9712V71.516H88.9712ZM88.9712 51.9867C88.9712 48.4082 87.5526 44.9896 85.0168 42.4563L83.6033 43.8713C85.7644 46.0301 86.9712 48.94 86.9712 51.9867H88.9712Z" fill="url(#paint1_linear_0_125)" mask="url(#path-9-outside-1_0_125)"/>
</g>
<g filter="url(#filter3_bd_0_125)">
<mask id="path-11-inside-2_0_125" fill="white">
<path d="M79.591 55.472L79.3932 55.6698L68.2417 64.594C66.8598 65.6817 65.1516 66.275 63.3989 66.275C61.6412 66.275 59.9627 65.6817 58.5783 64.594L47.3304 55.8181L47.0066 55.4968C46.4405 54.7551 46.5146 53.6922 47.1821 53.0247C47.8224 52.3572 48.8853 52.2831 49.6542 52.8517L60.7785 61.7511C62.2345 62.9402 64.2888 62.9402 65.7226 61.7511L76.8692 52.8517C77.2425 52.5056 77.7369 52.33 78.256 52.3572C78.748 52.4067 79.2201 52.6316 79.5638 53C80.1818 53.7169 80.1818 54.7551 79.591 55.472Z"/>
</mask>
<path d="M79.591 55.472L79.3932 55.6698L68.2417 64.594C66.8598 65.6817 65.1516 66.275 63.3989 66.275C61.6412 66.275 59.9627 65.6817 58.5783 64.594L47.3304 55.8181L47.0066 55.4968C46.4405 54.7551 46.5146 53.6922 47.1821 53.0247C47.8224 52.3572 48.8853 52.2831 49.6542 52.8517L60.7785 61.7511C62.2345 62.9402 64.2888 62.9402 65.7226 61.7511L76.8692 52.8517C77.2425 52.5056 77.7369 52.33 78.256 52.3572C78.748 52.4067 79.2201 52.6316 79.5638 53C80.1818 53.7169 80.1818 54.7551 79.591 55.472Z" fill="url(#paint2_linear_0_125)"/>
<path d="M79.3932 55.6698L79.5182 55.826L79.5268 55.8191L79.5346 55.8112L79.3932 55.6698ZM68.2417 64.594L68.3654 64.7512L68.3666 64.7501L68.2417 64.594ZM58.5783 64.594L58.7019 64.4367L58.7014 64.4363L58.5783 64.594ZM47.3304 55.8181L47.1895 55.9601L47.198 55.9685L47.2074 55.9758L47.3304 55.8181ZM47.0066 55.4968L46.8476 55.6181L46.8559 55.629L46.8657 55.6387L47.0066 55.4968ZM47.1821 53.0247L47.3235 53.1661L47.3264 53.1631L47.1821 53.0247ZM49.6542 52.8517L49.7792 52.6954L49.7731 52.6908L49.6542 52.8517ZM60.7785 61.7511L60.905 61.5962L60.9034 61.5949L60.7785 61.7511ZM65.7226 61.7511L65.5978 61.5948L65.595 61.5972L65.7226 61.7511ZM76.8692 52.8517L76.994 53.0079L76.9998 53.0033L77.0052 52.9983L76.8692 52.8517ZM78.256 52.3572L78.2761 52.158L78.2665 52.1575L78.256 52.3572ZM79.5638 53L79.7154 52.8693L79.71 52.8635L79.5638 53ZM79.4495 55.3306L79.2518 55.5284L79.5346 55.8112L79.7324 55.6135L79.4495 55.3306ZM79.2682 55.5137L68.1167 64.4378L68.3666 64.7501L79.5182 55.826L79.2682 55.5137ZM68.118 64.4368C66.7712 65.4969 65.1065 66.075 63.3989 66.075V66.475C65.1967 66.475 66.9484 65.8665 68.3654 64.7511L68.118 64.4368ZM63.3989 66.075C61.6871 66.075 60.0518 65.4974 58.7019 64.4367L58.4548 64.7513C59.8736 65.866 61.5954 66.475 63.3989 66.475V66.075ZM58.7014 64.4363L47.4534 55.6605L47.2074 55.9758L58.4553 64.7517L58.7014 64.4363ZM47.4713 55.6762L47.1475 55.3548L46.8657 55.6387L47.1895 55.9601L47.4713 55.6762ZM47.1656 55.3754C46.661 54.7145 46.7259 53.7637 47.3235 53.1661L47.0407 52.8833C46.3033 53.6206 46.2199 54.7958 46.8476 55.6181L47.1656 55.3754ZM47.3264 53.1631C47.8934 52.5721 48.843 52.5005 49.5352 53.0125L49.7731 52.6908C48.9277 52.0656 47.7513 52.1424 47.0378 52.8862L47.3264 53.1631ZM49.5292 53.0078L60.6536 61.9073L60.9034 61.5949L49.7791 52.6955L49.5292 53.0078ZM60.652 61.906C62.1811 63.1547 64.3419 63.156 65.8503 61.9051L65.595 61.5972C64.2358 62.7244 62.288 62.7256 60.905 61.5962L60.652 61.906ZM65.8474 61.9074L76.994 53.0079L76.7444 52.6954L65.5978 61.5948L65.8474 61.9074ZM77.0052 52.9983C77.3377 52.6901 77.7788 52.5325 78.2456 52.557L78.2665 52.1575C77.695 52.1276 77.1473 52.3211 76.7332 52.705L77.0052 52.9983ZM78.236 52.5562C78.6816 52.601 79.1083 52.8049 79.4175 53.1364L79.71 52.8635C79.332 52.4584 78.8144 52.2123 78.276 52.1582L78.236 52.5562ZM79.4123 53.1306C79.966 53.7728 79.9662 54.7022 79.4366 55.3449L79.7453 55.5992C80.3973 54.8081 80.3976 53.6609 79.7152 52.8694L79.4123 53.1306Z" fill="url(#paint3_linear_0_125)" fill-opacity="0.5" mask="url(#path-11-inside-2_0_125)"/>
</g>
</g>
<rect x="1" y="1" width="373.333" height="146" stroke="url(#paint4_linear_0_125)" stroke-width="2"/>
<defs>
<filter id="filter0_f_0_125" x="-335.68" y="-385.68" width="704.545" height="704.546" filterUnits="userSpaceOnUse" color-interpolation-filters="sRGB">
<feFlood flood-opacity="0" result="BackgroundImageFix"/>
<feBlend mode="normal" in="SourceGraphic" in2="BackgroundImageFix" result="shape"/>
<feGaussianBlur stdDeviation="82" result="effect1_foregroundBlur_0_125"/>
</filter>
<filter id="filter1_f_0_125" x="18.9676" y="20.5483" width="62.2035" height="61.2738" filterUnits="userSpaceOnUse" color-interpolation-filters="sRGB">
<feFlood flood-opacity="0" result="BackgroundImageFix"/>
<feBlend mode="normal" in="SourceGraphic" in2="BackgroundImageFix" result="shape"/>
<feGaussianBlur stdDeviation="8" result="effect1_foregroundBlur_0_125"/>
</filter>
<filter id="filter2_b_0_125" x="22.5297" y="23.5027" width="81.4415" height="76.4973" filterUnits="userSpaceOnUse" color-interpolation-filters="sRGB">
<feFlood flood-opacity="0" result="BackgroundImageFix"/>
<feGaussianBlur in="BackgroundImageFix" stdDeviation="7.5"/>
<feComposite in2="SourceAlpha" operator="in" result="effect1_backgroundBlur_0_125"/>
<feBlend mode="normal" in="SourceGraphic" in2="effect1_backgroundBlur_0_125" result="shape"/>
</filter>
<filter id="filter3_bd_0_125" x="31.627" y="37.3545" width="63.4037" height="43.9205" filterUnits="userSpaceOnUse" color-interpolation-filters="sRGB">
<feFlood flood-opacity="0" result="BackgroundImageFix"/>
<feGaussianBlur in="BackgroundImageFix" stdDeviation="7.5"/>
<feComposite in2="SourceAlpha" operator="in" result="effect1_backgroundBlur_0_125"/>
<feColorMatrix in="SourceAlpha" type="matrix" values="0 0 0 0 0 0 0 0 0 0 0 0 0 0 0 0 0 0 127 0" result="hardAlpha"/>
<feOffset dx="5" dy="5"/>
<feGaussianBlur stdDeviation="5"/>
<feColorMatrix type="matrix" values="0 0 0 0 1 0 0 0 0 0.447059 0 0 0 0 0.368627 0 0 0 0.5 0"/>
<feBlend mode="normal" in2="effect1_backgroundBlur_0_125" result="effect2_dropShadow_0_125"/>
<feBlend mode="normal" in="SourceGraphic" in2="effect2_dropShadow_0_125" result="shape"/>
</filter>
<linearGradient id="paint0_linear_0_125" x1="54.3934" y1="54.7211" x2="23.6197" y2="83.8019" gradientUnits="userSpaceOnUse">
<stop stop-color="#FFA78F"/>
<stop offset="1" stop-color="#F23E2C"/>
</linearGradient>
<linearGradient id="paint1_linear_0_125" x1="46.4" y1="44.6867" x2="74.0169" y2="82.6913" gradientUnits="userSpaceOnUse">
<stop stop-color="white" stop-opacity="0.25"/>
<stop offset="1" stop-color="white" stop-opacity="0"/>
</linearGradient>
<linearGradient id="paint2_linear_0_125" x1="77.6624" y1="54.8683" x2="40.6409" y2="57.7647" gradientUnits="userSpaceOnUse">
<stop stop-color="white"/>
<stop offset="1" stop-color="white" stop-opacity="0.2"/>
</linearGradient>
<linearGradient id="paint3_linear_0_125" x1="78.5995" y1="59.6092" x2="46.3892" y2="62.8291" gradientUnits="userSpaceOnUse">
<stop stop-color="white"/>
<stop offset="1" stop-color="white" stop-opacity="0"/>
</linearGradient>
<linearGradient id="paint4_linear_0_125" x1="0" y1="0" x2="158.409" y2="218.75" gradientUnits="userSpaceOnUse">
<stop stop-color="#306CA8"/>
<stop offset="1" stop-color="#306CA8" stop-opacity="0"/>
</linearGradient>
<clipPath id="clip0_0_125">
<rect width="375.333" height="148" fill="white"/>
</clipPath>
</defs>
</svg>
