<svg width="376" height="148" viewBox="0 0 376 148" fill="none" xmlns="http://www.w3.org/2000/svg">
<g clip-path="url(#clip0_0_157)">
<g filter="url(#filter0_f_0_157)">
<rect x="-83.528" y="-271" width="364.989" height="364.989" rx="163.5" transform="rotate(22.0132 -83.528 -271)" fill="#062D53"/>
</g>
<path d="M120.087 85.7461C120.087 85.7982 120.074 85.8438 120.048 85.8828C120.022 85.9219 119.976 85.9544 119.911 85.9805C119.846 86 119.761 86.0163 119.657 86.0293C119.559 86.0488 119.429 86.0586 119.266 86.0586C119.117 86.0586 118.986 86.0488 118.876 86.0293C118.772 86.0163 118.687 86 118.622 85.9805C118.563 85.9544 118.521 85.9219 118.495 85.8828C118.469 85.8438 118.456 85.7982 118.456 85.7461V74.7402H118.436L113.934 85.7949C113.915 85.8405 113.885 85.8796 113.846 85.9121C113.814 85.9447 113.762 85.974 113.69 86C113.625 86.0195 113.544 86.0326 113.446 86.0391C113.355 86.0521 113.244 86.0586 113.114 86.0586C112.977 86.0586 112.86 86.0521 112.762 86.0391C112.665 86.026 112.583 86.0098 112.518 85.9902C112.453 85.9642 112.401 85.9349 112.362 85.9023C112.329 85.8698 112.307 85.834 112.294 85.7949L107.987 74.7402H107.977V85.7461C107.977 85.7982 107.964 85.8438 107.938 85.8828C107.912 85.9219 107.867 85.9544 107.801 85.9805C107.736 86 107.652 86.0163 107.548 86.0293C107.443 86.0488 107.31 86.0586 107.147 86.0586C106.991 86.0586 106.861 86.0488 106.757 86.0293C106.652 86.0163 106.568 86 106.503 85.9805C106.444 85.9544 106.402 85.9219 106.376 85.8828C106.356 85.8438 106.346 85.7982 106.346 85.7461V74.125C106.346 73.8516 106.418 73.6562 106.561 73.5391C106.704 73.4219 106.864 73.3633 107.04 73.3633H108.055C108.264 73.3633 108.446 73.3828 108.602 73.4219C108.758 73.4609 108.895 73.5228 109.012 73.6074C109.13 73.6921 109.227 73.7995 109.305 73.9297C109.383 74.0599 109.452 74.2129 109.51 74.3887L113.173 83.5391H113.221L117.03 74.418C117.102 74.2227 117.18 74.0566 117.264 73.9199C117.349 73.7832 117.44 73.6758 117.538 73.5977C117.642 73.513 117.756 73.4544 117.88 73.4219C118.003 73.3828 118.147 73.3633 118.309 73.3633H119.374C119.471 73.3633 119.563 73.3796 119.647 73.4121C119.738 73.4382 119.813 73.4837 119.872 73.5488C119.937 73.6074 119.989 73.6855 120.028 73.7832C120.067 73.8743 120.087 73.9883 120.087 74.125V85.7461ZM131.444 81.2637C131.444 81.9798 131.35 82.6406 131.161 83.2461C130.972 83.8451 130.689 84.3626 130.311 84.7988C129.94 85.235 129.471 85.5768 128.905 85.8242C128.345 86.0651 127.694 86.1855 126.952 86.1855C126.229 86.1855 125.598 86.0781 125.057 85.8633C124.523 85.6484 124.077 85.3359 123.719 84.9258C123.361 84.5156 123.094 84.0176 122.919 83.4316C122.743 82.8457 122.655 82.1816 122.655 81.4395C122.655 80.7233 122.746 80.0658 122.928 79.4668C123.117 78.8613 123.397 78.3405 123.768 77.9043C124.146 77.4681 124.615 77.1296 125.174 76.8887C125.734 76.6478 126.389 76.5273 127.137 76.5273C127.86 76.5273 128.488 76.6348 129.022 76.8496C129.563 77.0645 130.012 77.377 130.37 77.7871C130.728 78.1973 130.995 78.6953 131.171 79.2812C131.353 79.8672 131.444 80.528 131.444 81.2637ZM129.745 81.3711C129.745 80.8958 129.699 80.4466 129.608 80.0234C129.523 79.6003 129.38 79.2292 129.178 78.9102C128.977 78.5911 128.703 78.3405 128.358 78.1582C128.013 77.9694 127.583 77.875 127.069 77.875C126.594 77.875 126.184 77.9596 125.839 78.1289C125.5 78.2982 125.22 78.5391 124.999 78.8516C124.777 79.1576 124.611 79.5221 124.501 79.9453C124.397 80.3685 124.344 80.8307 124.344 81.332C124.344 81.8138 124.387 82.2663 124.471 82.6895C124.563 83.1126 124.709 83.4837 124.911 83.8027C125.119 84.1152 125.396 84.3659 125.741 84.5547C126.086 84.737 126.516 84.8281 127.03 84.8281C127.499 84.8281 127.906 84.7435 128.251 84.5742C128.596 84.4049 128.879 84.1673 129.1 83.8613C129.322 83.5553 129.484 83.1908 129.589 82.7676C129.693 82.3444 129.745 81.8789 129.745 81.3711ZM141.385 85.7559C141.385 85.8079 141.372 85.8535 141.346 85.8926C141.32 85.9251 141.278 85.9544 141.219 85.9805C141.161 86.0065 141.079 86.026 140.975 86.0391C140.871 86.0521 140.741 86.0586 140.585 86.0586C140.422 86.0586 140.288 86.0521 140.184 86.0391C140.08 86.026 139.999 86.0065 139.94 85.9805C139.882 85.9544 139.839 85.9251 139.813 85.8926C139.787 85.8535 139.774 85.8079 139.774 85.7559V80.6094C139.774 80.1081 139.735 79.7044 139.657 79.3984C139.579 79.0924 139.465 78.8288 139.315 78.6074C139.165 78.3861 138.97 78.2168 138.729 78.0996C138.495 77.9824 138.221 77.9238 137.909 77.9238C137.505 77.9238 137.102 78.0671 136.698 78.3535C136.294 78.64 135.871 79.0599 135.428 79.6133V85.7559C135.428 85.8079 135.415 85.8535 135.389 85.8926C135.363 85.9251 135.321 85.9544 135.262 85.9805C135.204 86.0065 135.122 86.026 135.018 86.0391C134.914 86.0521 134.781 86.0586 134.618 86.0586C134.462 86.0586 134.331 86.0521 134.227 86.0391C134.123 86.026 134.038 86.0065 133.973 85.9805C133.915 85.9544 133.872 85.9251 133.846 85.8926C133.827 85.8535 133.817 85.8079 133.817 85.7559V76.9668C133.817 76.9147 133.827 76.8724 133.846 76.8398C133.866 76.8008 133.905 76.7682 133.964 76.7422C134.022 76.7096 134.097 76.6901 134.188 76.6836C134.279 76.6706 134.4 76.6641 134.549 76.6641C134.693 76.6641 134.81 76.6706 134.901 76.6836C134.999 76.6901 135.074 76.7096 135.126 76.7422C135.178 76.7682 135.214 76.8008 135.233 76.8398C135.259 76.8724 135.272 76.9147 135.272 76.9668V78.1289C135.767 77.5755 136.258 77.1719 136.747 76.918C137.242 76.6576 137.74 76.5273 138.241 76.5273C138.827 76.5273 139.318 76.6283 139.716 76.8301C140.119 77.0254 140.445 77.2891 140.692 77.6211C140.939 77.9531 141.115 78.3438 141.219 78.793C141.33 79.2357 141.385 79.7695 141.385 80.3945V85.7559ZM152.811 81.0684C152.811 81.3223 152.782 81.498 152.723 81.5957C152.665 81.6934 152.58 81.7422 152.469 81.7422H148.387C148.27 81.7422 148.182 81.6934 148.124 81.5957C148.065 81.4915 148.036 81.3158 148.036 81.0684C148.036 80.821 148.065 80.6484 148.124 80.5508C148.182 80.4531 148.27 80.4043 148.387 80.4043H152.469C152.522 80.4043 152.567 80.4141 152.606 80.4336C152.652 80.4531 152.688 80.4922 152.714 80.5508C152.746 80.6029 152.769 80.6712 152.782 80.7559C152.801 80.8405 152.811 80.9447 152.811 81.0684ZM166.346 74.0859C166.346 74.2096 166.34 74.3171 166.327 74.4082C166.314 74.4993 166.291 74.5742 166.258 74.6328C166.226 74.6849 166.187 74.724 166.141 74.75C166.102 74.776 166.06 74.7891 166.014 74.7891H161.385V79.0859H165.76C165.806 79.0859 165.848 79.099 165.887 79.125C165.933 79.1445 165.972 79.1803 166.005 79.2324C166.037 79.2845 166.06 79.3561 166.073 79.4473C166.086 79.5319 166.092 79.6426 166.092 79.7793C166.092 79.903 166.086 80.0104 166.073 80.1016C166.06 80.1862 166.037 80.2578 166.005 80.3164C165.972 80.3685 165.933 80.4108 165.887 80.4434C165.848 80.4694 165.806 80.4824 165.76 80.4824H161.385V85.7461C161.385 85.7917 161.372 85.8372 161.346 85.8828C161.32 85.9219 161.275 85.9544 161.21 85.9805C161.145 86 161.06 86.0163 160.956 86.0293C160.852 86.0488 160.715 86.0586 160.546 86.0586C160.389 86.0586 160.256 86.0488 160.145 86.0293C160.035 86.0163 159.947 86 159.882 85.9805C159.816 85.9544 159.771 85.9219 159.745 85.8828C159.719 85.8372 159.706 85.7917 159.706 85.7461V74.0469C159.706 73.793 159.771 73.6172 159.901 73.5195C160.038 73.4154 160.181 73.3633 160.331 73.3633H166.014C166.06 73.3633 166.102 73.3763 166.141 73.4023C166.187 73.4284 166.226 73.4707 166.258 73.5293C166.291 73.5879 166.314 73.666 166.327 73.7637C166.34 73.8548 166.346 73.9622 166.346 74.0859ZM173.856 77.543C173.856 77.6862 173.853 77.8066 173.846 77.9043C173.84 78.002 173.827 78.0801 173.807 78.1387C173.788 78.1908 173.762 78.2331 173.729 78.2656C173.703 78.2917 173.664 78.3047 173.612 78.3047C173.56 78.3047 173.495 78.2917 173.417 78.2656C173.345 78.2331 173.26 78.2038 173.163 78.1777C173.072 78.1452 172.967 78.1159 172.85 78.0898C172.733 78.0638 172.606 78.0508 172.469 78.0508C172.307 78.0508 172.147 78.0833 171.991 78.1484C171.835 78.2135 171.669 78.321 171.493 78.4707C171.324 78.6204 171.145 78.819 170.956 79.0664C170.767 79.3138 170.559 79.6165 170.331 79.9746V85.7559C170.331 85.8079 170.318 85.8535 170.292 85.8926C170.266 85.9251 170.223 85.9544 170.165 85.9805C170.106 86.0065 170.025 86.026 169.921 86.0391C169.816 86.0521 169.683 86.0586 169.52 86.0586C169.364 86.0586 169.234 86.0521 169.13 86.0391C169.025 86.026 168.941 86.0065 168.876 85.9805C168.817 85.9544 168.775 85.9251 168.749 85.8926C168.729 85.8535 168.719 85.8079 168.719 85.7559V76.9668C168.719 76.9147 168.729 76.8724 168.749 76.8398C168.768 76.8008 168.807 76.7682 168.866 76.7422C168.924 76.7096 168.999 76.6901 169.091 76.6836C169.182 76.6706 169.302 76.6641 169.452 76.6641C169.595 76.6641 169.712 76.6706 169.803 76.6836C169.901 76.6901 169.976 76.7096 170.028 76.7422C170.08 76.7682 170.116 76.8008 170.135 76.8398C170.161 76.8724 170.174 76.9147 170.174 76.9668V78.2461C170.415 77.8945 170.64 77.6081 170.848 77.3867C171.063 77.1654 171.265 76.9928 171.454 76.8691C171.643 76.7389 171.828 76.651 172.01 76.6055C172.199 76.5534 172.388 76.5273 172.577 76.5273C172.661 76.5273 172.756 76.5339 172.86 76.5469C172.971 76.5534 173.085 76.5697 173.202 76.5957C173.319 76.6217 173.423 76.651 173.514 76.6836C173.612 76.7161 173.68 76.7487 173.719 76.7812C173.758 76.8138 173.785 76.8464 173.798 76.8789C173.811 76.9049 173.82 76.9408 173.827 76.9863C173.84 77.0319 173.846 77.1003 173.846 77.1914C173.853 77.276 173.856 77.3932 173.856 77.543ZM177.303 85.7559C177.303 85.8079 177.29 85.8535 177.264 85.8926C177.238 85.9251 177.196 85.9544 177.137 85.9805C177.079 86.0065 176.997 86.026 176.893 86.0391C176.789 86.0521 176.656 86.0586 176.493 86.0586C176.337 86.0586 176.206 86.0521 176.102 86.0391C175.998 86.026 175.913 86.0065 175.848 85.9805C175.79 85.9544 175.747 85.9251 175.721 85.8926C175.702 85.8535 175.692 85.8079 175.692 85.7559V76.9668C175.692 76.9212 175.702 76.8789 175.721 76.8398C175.747 76.8008 175.79 76.7682 175.848 76.7422C175.913 76.7161 175.998 76.6966 176.102 76.6836C176.206 76.6706 176.337 76.6641 176.493 76.6641C176.656 76.6641 176.789 76.6706 176.893 76.6836C176.997 76.6966 177.079 76.7161 177.137 76.7422C177.196 76.7682 177.238 76.8008 177.264 76.8398C177.29 76.8789 177.303 76.9212 177.303 76.9668V85.7559ZM177.489 73.998C177.489 74.3757 177.417 74.6328 177.274 74.7695C177.131 74.9062 176.867 74.9746 176.483 74.9746C176.105 74.9746 175.845 74.9095 175.702 74.7793C175.565 74.6426 175.497 74.3887 175.497 74.0176C175.497 73.64 175.568 73.3828 175.712 73.2461C175.855 73.1094 176.119 73.041 176.503 73.041C176.88 73.041 177.137 73.1094 177.274 73.2461C177.417 73.3763 177.489 73.627 177.489 73.998ZM182.665 78.1875C182.665 78.3958 182.648 78.5716 182.616 78.7148C182.59 78.8581 182.535 78.9753 182.45 79.0664C182.372 79.151 182.268 79.2129 182.137 79.252C182.007 79.2845 181.841 79.3008 181.639 79.3008C181.431 79.3008 181.262 79.2845 181.132 79.252C181.001 79.2129 180.897 79.151 180.819 79.0664C180.741 78.9753 180.686 78.8581 180.653 78.7148C180.627 78.5716 180.614 78.3958 180.614 78.1875C180.614 77.9661 180.627 77.7839 180.653 77.6406C180.686 77.4909 180.741 77.3737 180.819 77.2891C180.897 77.1979 181.001 77.1361 181.132 77.1035C181.262 77.0645 181.431 77.0449 181.639 77.0449C181.841 77.0449 182.007 77.0645 182.137 77.1035C182.268 77.1361 182.372 77.1979 182.45 77.2891C182.535 77.3737 182.59 77.4909 182.616 77.6406C182.648 77.7839 182.665 77.9661 182.665 78.1875ZM182.665 84.9648C182.665 85.1797 182.648 85.3587 182.616 85.502C182.59 85.6452 182.535 85.7624 182.45 85.8535C182.372 85.9382 182.268 85.9967 182.137 86.0293C182.007 86.0684 181.841 86.0879 181.639 86.0879C181.431 86.0879 181.262 86.0684 181.132 86.0293C181.001 85.9967 180.897 85.9382 180.819 85.8535C180.741 85.7624 180.686 85.6452 180.653 85.502C180.627 85.3587 180.614 85.1797 180.614 84.9648C180.614 84.75 180.627 84.571 180.653 84.4277C180.686 84.278 180.741 84.1608 180.819 84.0762C180.897 83.9915 181.001 83.9297 181.132 83.8906C181.262 83.8516 181.431 83.832 181.639 83.832C181.841 83.832 182.007 83.8516 182.137 83.8906C182.268 83.9297 182.372 83.9915 182.45 84.0762C182.535 84.1608 182.59 84.278 182.616 84.4277C182.648 84.571 182.665 84.75 182.665 84.9648ZM197.987 82.7578C197.987 83.3047 197.889 83.793 197.694 84.2227C197.499 84.6458 197.216 85.0039 196.844 85.2969C196.48 85.5898 196.027 85.8112 195.487 85.9609C194.947 86.1107 194.328 86.1855 193.632 86.1855C192.98 86.1855 192.398 86.1172 191.883 85.9805C191.369 85.8438 190.933 85.6419 190.575 85.375C190.217 85.1081 189.943 84.7793 189.755 84.3887C189.566 83.998 189.471 83.5521 189.471 83.0508C189.471 82.6536 189.536 82.2891 189.667 81.957C189.797 81.625 189.982 81.319 190.223 81.0391C190.471 80.7591 190.773 80.4987 191.132 80.2578C191.49 80.0104 191.893 79.776 192.342 79.5547C191.952 79.3529 191.607 79.1413 191.307 78.9199C191.008 78.6921 190.754 78.4479 190.546 78.1875C190.337 77.9206 190.178 77.6374 190.067 77.3379C189.963 77.0384 189.911 76.7129 189.911 76.3613C189.911 75.9186 189.989 75.5052 190.145 75.1211C190.308 74.7305 190.549 74.3919 190.868 74.1055C191.193 73.819 191.604 73.5944 192.098 73.4316C192.6 73.2624 193.182 73.1777 193.846 73.1777C194.484 73.1777 195.035 73.2559 195.497 73.4121C195.966 73.5618 196.35 73.7702 196.649 74.0371C196.955 74.2975 197.18 74.6068 197.323 74.9648C197.466 75.3229 197.538 75.707 197.538 76.1172C197.538 76.4492 197.482 76.7682 197.372 77.0742C197.268 77.3802 197.111 77.6699 196.903 77.9434C196.695 78.2168 196.438 78.474 196.132 78.7148C195.832 78.9492 195.487 79.1706 195.096 79.3789C195.559 79.6068 195.969 79.8411 196.327 80.082C196.691 80.3229 196.994 80.5833 197.235 80.8633C197.482 81.1367 197.668 81.4297 197.792 81.7422C197.922 82.0482 197.987 82.3867 197.987 82.7578ZM195.878 76.2734C195.878 76 195.829 75.7526 195.731 75.5312C195.64 75.3099 195.503 75.1211 195.321 74.9648C195.139 74.8086 194.911 74.6914 194.637 74.6133C194.37 74.5286 194.064 74.4863 193.719 74.4863C193.016 74.4863 192.482 74.6458 192.118 74.9648C191.76 75.2839 191.581 75.7201 191.581 76.2734C191.581 76.5273 191.623 76.765 191.708 76.9863C191.799 77.2012 191.936 77.4062 192.118 77.6016C192.307 77.7969 192.541 77.9889 192.821 78.1777C193.107 78.36 193.446 78.5521 193.837 78.7539C194.494 78.4154 194.999 78.041 195.35 77.6309C195.702 77.2207 195.878 76.7682 195.878 76.2734ZM196.288 82.9336C196.288 82.6341 196.232 82.3639 196.122 82.123C196.011 81.8757 195.842 81.6478 195.614 81.4395C195.393 81.2246 195.113 81.0195 194.774 80.8242C194.442 80.6224 194.055 80.4141 193.612 80.1992C193.202 80.401 192.841 80.6029 192.528 80.8047C192.222 81.0065 191.968 81.2148 191.766 81.4297C191.571 81.6445 191.421 81.8724 191.317 82.1133C191.219 82.3477 191.171 82.6081 191.171 82.8945C191.171 83.526 191.385 84.0143 191.815 84.3594C192.251 84.7044 192.899 84.877 193.758 84.877C194.592 84.877 195.22 84.7044 195.643 84.3594C196.073 84.0078 196.288 83.5326 196.288 82.9336ZM202.684 78.1875C202.684 78.3958 202.668 78.5716 202.635 78.7148C202.609 78.8581 202.554 78.9753 202.469 79.0664C202.391 79.151 202.287 79.2129 202.157 79.252C202.027 79.2845 201.861 79.3008 201.659 79.3008C201.451 79.3008 201.281 79.2845 201.151 79.252C201.021 79.2129 200.917 79.151 200.839 79.0664C200.76 78.9753 200.705 78.8581 200.673 78.7148C200.647 78.5716 200.633 78.3958 200.633 78.1875C200.633 77.9661 200.647 77.7839 200.673 77.6406C200.705 77.4909 200.76 77.3737 200.839 77.2891C200.917 77.1979 201.021 77.1361 201.151 77.1035C201.281 77.0645 201.451 77.0449 201.659 77.0449C201.861 77.0449 202.027 77.0645 202.157 77.1035C202.287 77.1361 202.391 77.1979 202.469 77.2891C202.554 77.3737 202.609 77.4909 202.635 77.6406C202.668 77.7839 202.684 77.9661 202.684 78.1875ZM202.684 84.9648C202.684 85.1797 202.668 85.3587 202.635 85.502C202.609 85.6452 202.554 85.7624 202.469 85.8535C202.391 85.9382 202.287 85.9967 202.157 86.0293C202.027 86.0684 201.861 86.0879 201.659 86.0879C201.451 86.0879 201.281 86.0684 201.151 86.0293C201.021 85.9967 200.917 85.9382 200.839 85.8535C200.76 85.7624 200.705 85.6452 200.673 85.502C200.647 85.3587 200.633 85.1797 200.633 84.9648C200.633 84.75 200.647 84.571 200.673 84.4277C200.705 84.278 200.76 84.1608 200.839 84.0762C200.917 83.9915 201.021 83.9297 201.151 83.8906C201.281 83.8516 201.451 83.832 201.659 83.832C201.861 83.832 202.027 83.8516 202.157 83.8906C202.287 83.9297 202.391 83.9915 202.469 84.0762C202.554 84.1608 202.609 84.278 202.635 84.4277C202.668 84.571 202.684 84.75 202.684 84.9648ZM213.602 79.6523C213.602 80.6224 213.524 81.5078 213.368 82.3086C213.218 83.1094 212.964 83.7995 212.606 84.3789C212.255 84.9518 211.792 85.3978 211.219 85.7168C210.647 86.0293 209.94 86.1855 209.1 86.1855C208.306 86.1855 207.635 86.0456 207.089 85.7656C206.548 85.4792 206.112 85.0625 205.78 84.5156C205.448 83.9622 205.21 83.2852 205.067 82.4844C204.93 81.6771 204.862 80.7526 204.862 79.7109C204.862 78.7474 204.94 77.8652 205.096 77.0645C205.253 76.2572 205.507 75.5671 205.858 74.9941C206.21 74.4147 206.672 73.9688 207.245 73.6562C207.818 73.3372 208.521 73.1777 209.354 73.1777C210.155 73.1777 210.826 73.321 211.366 73.6074C211.913 73.8874 212.352 74.304 212.684 74.8574C213.016 75.4043 213.251 76.0814 213.387 76.8887C213.531 77.6895 213.602 78.6107 213.602 79.6523ZM211.883 79.7695C211.883 79.138 211.861 78.5716 211.815 78.0703C211.77 77.569 211.701 77.1263 211.61 76.7422C211.525 76.3581 211.411 76.0293 211.268 75.7559C211.132 75.4759 210.966 75.248 210.77 75.0723C210.575 74.89 210.35 74.7598 210.096 74.6816C209.849 74.597 209.569 74.5547 209.257 74.5547C208.703 74.5547 208.254 74.6849 207.909 74.9453C207.564 75.2057 207.29 75.5638 207.089 76.0195C206.893 76.4753 206.76 77.0091 206.688 77.6211C206.617 78.2331 206.581 78.8906 206.581 79.5938C206.581 80.5378 206.63 81.3418 206.727 82.0059C206.825 82.6634 206.978 83.2005 207.186 83.6172C207.401 84.0339 207.671 84.3366 207.997 84.5254C208.329 84.7142 208.729 84.8086 209.198 84.8086C209.563 84.8086 209.882 84.75 210.155 84.6328C210.435 84.5156 210.673 84.3496 210.868 84.1348C211.07 83.9134 211.236 83.6497 211.366 83.3438C211.496 83.0378 211.6 82.6992 211.678 82.3281C211.757 81.957 211.809 81.5566 211.835 81.127C211.867 80.6908 211.883 80.2383 211.883 79.7695ZM223.739 79.6523C223.739 80.6224 223.661 81.5078 223.505 82.3086C223.355 83.1094 223.101 83.7995 222.743 84.3789C222.391 84.9518 221.929 85.3978 221.356 85.7168C220.783 86.0293 220.077 86.1855 219.237 86.1855C218.443 86.1855 217.772 86.0456 217.225 85.7656C216.685 85.4792 216.249 85.0625 215.917 84.5156C215.585 83.9622 215.347 83.2852 215.204 82.4844C215.067 81.6771 214.999 80.7526 214.999 79.7109C214.999 78.7474 215.077 77.8652 215.233 77.0645C215.389 76.2572 215.643 75.5671 215.995 74.9941C216.346 74.4147 216.809 73.9688 217.382 73.6562C217.954 73.3372 218.658 73.1777 219.491 73.1777C220.292 73.1777 220.962 73.321 221.503 73.6074C222.049 73.8874 222.489 74.304 222.821 74.8574C223.153 75.4043 223.387 76.0814 223.524 76.8887C223.667 77.6895 223.739 78.6107 223.739 79.6523ZM222.02 79.7695C222.02 79.138 221.997 78.5716 221.952 78.0703C221.906 77.569 221.838 77.1263 221.747 76.7422C221.662 76.3581 221.548 76.0293 221.405 75.7559C221.268 75.4759 221.102 75.248 220.907 75.0723C220.712 74.89 220.487 74.7598 220.233 74.6816C219.986 74.597 219.706 74.5547 219.393 74.5547C218.84 74.5547 218.391 74.6849 218.046 74.9453C217.701 75.2057 217.427 75.5638 217.225 76.0195C217.03 76.4753 216.897 77.0091 216.825 77.6211C216.753 78.2331 216.717 78.8906 216.717 79.5938C216.717 80.5378 216.766 81.3418 216.864 82.0059C216.962 82.6634 217.115 83.2005 217.323 83.6172C217.538 84.0339 217.808 84.3366 218.133 84.5254C218.466 84.7142 218.866 84.8086 219.335 84.8086C219.699 84.8086 220.018 84.75 220.292 84.6328C220.572 84.5156 220.809 84.3496 221.005 84.1348C221.206 83.9134 221.372 83.6497 221.503 83.3438C221.633 83.0378 221.737 82.6992 221.815 82.3281C221.893 81.957 221.945 81.5566 221.971 81.127C222.004 80.6908 222.02 80.2383 222.02 79.7695ZM232.548 85.7656C232.548 85.8438 232.522 85.9023 232.469 85.9414C232.417 85.9805 232.346 86.0098 232.255 86.0293C232.163 86.0488 232.03 86.0586 231.854 86.0586C231.685 86.0586 231.548 86.0488 231.444 86.0293C231.346 86.0098 231.275 85.9805 231.229 85.9414C231.184 85.9023 231.161 85.8438 231.161 85.7656V84.8867C230.777 85.2969 230.347 85.6159 229.872 85.8438C229.403 86.0716 228.905 86.1855 228.378 86.1855C227.915 86.1855 227.495 86.1237 227.118 86C226.747 85.8828 226.428 85.7103 226.161 85.4824C225.9 85.2546 225.695 84.9746 225.546 84.6426C225.402 84.3105 225.331 83.9329 225.331 83.5098C225.331 83.015 225.432 82.5853 225.633 82.2207C225.835 81.8561 226.125 81.5534 226.503 81.3125C226.88 81.0716 227.342 80.8926 227.889 80.7754C228.436 80.6517 229.051 80.5898 229.735 80.5898H230.946V79.9062C230.946 79.5677 230.91 79.2682 230.839 79.0078C230.767 78.7474 230.65 78.5326 230.487 78.3633C230.331 78.1875 230.126 78.0573 229.872 77.9727C229.618 77.8815 229.305 77.8359 228.934 77.8359C228.537 77.8359 228.179 77.8848 227.86 77.9824C227.548 78.0736 227.271 78.1777 227.03 78.2949C226.796 78.4056 226.597 78.5098 226.434 78.6074C226.278 78.6986 226.161 78.7441 226.083 78.7441C226.031 78.7441 225.985 78.7311 225.946 78.7051C225.907 78.679 225.871 78.64 225.839 78.5879C225.813 78.5358 225.793 78.4707 225.78 78.3926C225.767 78.3079 225.76 78.2168 225.76 78.1191C225.76 77.9564 225.77 77.8294 225.79 77.7383C225.816 77.6406 225.871 77.5495 225.956 77.4648C226.047 77.3802 226.2 77.2826 226.415 77.1719C226.63 77.0547 226.877 76.9505 227.157 76.8594C227.437 76.7617 227.743 76.6836 228.075 76.625C228.407 76.5599 228.742 76.5273 229.081 76.5273C229.712 76.5273 230.249 76.599 230.692 76.7422C231.135 76.8854 231.493 77.097 231.766 77.377C232.04 77.6504 232.238 77.9922 232.362 78.4023C232.486 78.8125 232.548 79.291 232.548 79.8379V85.7656ZM230.946 81.752H229.569C229.126 81.752 228.742 81.791 228.417 81.8691C228.091 81.9408 227.821 82.0514 227.606 82.2012C227.391 82.3444 227.232 82.5202 227.128 82.7285C227.03 82.9303 226.981 83.1647 226.981 83.4316C226.981 83.8874 227.124 84.252 227.411 84.5254C227.704 84.7923 228.111 84.9258 228.632 84.9258C229.055 84.9258 229.445 84.8184 229.803 84.6035C230.168 84.3887 230.549 84.0599 230.946 83.6172V81.752ZM248.553 85.7559C248.553 85.8079 248.54 85.8535 248.514 85.8926C248.488 85.9251 248.446 85.9544 248.387 85.9805C248.329 86.0065 248.247 86.026 248.143 86.0391C248.039 86.0521 247.909 86.0586 247.753 86.0586C247.59 86.0586 247.456 86.0521 247.352 86.0391C247.248 86.026 247.163 86.0065 247.098 85.9805C247.04 85.9544 246.997 85.9251 246.971 85.8926C246.945 85.8535 246.932 85.8079 246.932 85.7559V80.4141C246.932 80.043 246.9 79.7044 246.835 79.3984C246.77 79.0924 246.665 78.8288 246.522 78.6074C246.379 78.3861 246.197 78.2168 245.975 78.0996C245.754 77.9824 245.494 77.9238 245.194 77.9238C244.823 77.9238 244.449 78.0671 244.071 78.3535C243.7 78.64 243.29 79.0599 242.841 79.6133V85.7559C242.841 85.8079 242.827 85.8535 242.801 85.8926C242.775 85.9251 242.73 85.9544 242.665 85.9805C242.606 86.0065 242.525 86.026 242.421 86.0391C242.316 86.0521 242.186 86.0586 242.03 86.0586C241.88 86.0586 241.75 86.0521 241.639 86.0391C241.535 86.026 241.451 86.0065 241.385 85.9805C241.327 85.9544 241.285 85.9251 241.258 85.8926C241.239 85.8535 241.229 85.8079 241.229 85.7559V80.4141C241.229 80.043 241.193 79.7044 241.122 79.3984C241.05 79.0924 240.943 78.8288 240.799 78.6074C240.656 78.3861 240.474 78.2168 240.253 78.0996C240.038 77.9824 239.781 77.9238 239.481 77.9238C239.11 77.9238 238.736 78.0671 238.358 78.3535C237.98 78.64 237.57 79.0599 237.128 79.6133V85.7559C237.128 85.8079 237.115 85.8535 237.089 85.8926C237.063 85.9251 237.02 85.9544 236.962 85.9805C236.903 86.0065 236.822 86.026 236.717 86.0391C236.613 86.0521 236.48 86.0586 236.317 86.0586C236.161 86.0586 236.031 86.0521 235.926 86.0391C235.822 86.026 235.738 86.0065 235.673 85.9805C235.614 85.9544 235.572 85.9251 235.546 85.8926C235.526 85.8535 235.516 85.8079 235.516 85.7559V76.9668C235.516 76.9147 235.526 76.8724 235.546 76.8398C235.565 76.8008 235.604 76.7682 235.663 76.7422C235.721 76.7096 235.796 76.6901 235.887 76.6836C235.979 76.6706 236.099 76.6641 236.249 76.6641C236.392 76.6641 236.509 76.6706 236.6 76.6836C236.698 76.6901 236.773 76.7096 236.825 76.7422C236.877 76.7682 236.913 76.8008 236.932 76.8398C236.958 76.8724 236.971 76.9147 236.971 76.9668V78.1289C237.466 77.5755 237.945 77.1719 238.407 76.918C238.876 76.6576 239.348 76.5273 239.823 76.5273C240.188 76.5273 240.513 76.5697 240.799 76.6543C241.092 76.7389 241.35 76.8594 241.571 77.0156C241.792 77.1654 241.981 77.3477 242.137 77.5625C242.294 77.7708 242.424 78.0052 242.528 78.2656C242.821 77.9466 243.098 77.6764 243.358 77.4551C243.625 77.2337 243.879 77.0547 244.12 76.918C244.367 76.7812 244.605 76.6836 244.833 76.625C245.067 76.5599 245.301 76.5273 245.536 76.5273C246.102 76.5273 246.577 76.6283 246.962 76.8301C247.346 77.0254 247.655 77.2891 247.889 77.6211C248.13 77.9531 248.299 78.3438 248.397 78.793C248.501 79.2357 248.553 79.7044 248.553 80.1992V85.7559ZM260.594 85.1113C260.594 85.3001 260.581 85.4499 260.555 85.5605C260.529 85.6712 260.49 85.7526 260.438 85.8047C260.386 85.8568 260.308 85.9056 260.204 85.9512C260.1 85.9967 259.979 86.0326 259.842 86.0586C259.712 86.0911 259.572 86.1172 259.423 86.1367C259.273 86.1562 259.123 86.166 258.973 86.166C258.518 86.166 258.127 86.1074 257.801 85.9902C257.476 85.8665 257.209 85.6842 257.001 85.4434C256.792 85.196 256.639 84.8867 256.542 84.5156C256.451 84.138 256.405 83.6953 256.405 83.1875V78.0508H255.174C255.077 78.0508 254.999 77.9987 254.94 77.8945C254.882 77.7904 254.852 77.6211 254.852 77.3867C254.852 77.263 254.859 77.1589 254.872 77.0742C254.891 76.9896 254.914 76.9212 254.94 76.8691C254.966 76.8105 254.999 76.7715 255.038 76.752C255.083 76.7259 255.132 76.7129 255.184 76.7129H256.405V74.623C256.405 74.5775 256.415 74.5352 256.434 74.4961C256.46 74.457 256.503 74.4245 256.561 74.3984C256.626 74.3659 256.711 74.3431 256.815 74.3301C256.919 74.3171 257.049 74.3105 257.206 74.3105C257.369 74.3105 257.502 74.3171 257.606 74.3301C257.71 74.3431 257.792 74.3659 257.85 74.3984C257.909 74.4245 257.951 74.457 257.977 74.4961C258.003 74.5352 258.016 74.5775 258.016 74.623V76.7129H260.272C260.324 76.7129 260.37 76.7259 260.409 76.752C260.448 76.7715 260.48 76.8105 260.507 76.8691C260.539 76.9212 260.562 76.9896 260.575 77.0742C260.588 77.1589 260.594 77.263 260.594 77.3867C260.594 77.6211 260.565 77.7904 260.507 77.8945C260.448 77.9987 260.37 78.0508 260.272 78.0508H258.016V82.9531C258.016 83.5586 258.104 84.0176 258.28 84.3301C258.462 84.6361 258.785 84.7891 259.247 84.7891C259.397 84.7891 259.53 84.776 259.647 84.75C259.764 84.7174 259.869 84.6849 259.96 84.6523C260.051 84.6198 260.129 84.5905 260.194 84.5645C260.259 84.5319 260.318 84.5156 260.37 84.5156C260.402 84.5156 260.432 84.5254 260.458 84.5449C260.49 84.5579 260.513 84.5872 260.526 84.6328C260.546 84.6784 260.562 84.7402 260.575 84.8184C260.588 84.8965 260.594 84.9941 260.594 85.1113ZM270.702 81.2637C270.702 81.9798 270.607 82.6406 270.419 83.2461C270.23 83.8451 269.947 84.3626 269.569 84.7988C269.198 85.235 268.729 85.5768 268.163 85.8242C267.603 86.0651 266.952 86.1855 266.21 86.1855C265.487 86.1855 264.855 86.0781 264.315 85.8633C263.781 85.6484 263.335 85.3359 262.977 84.9258C262.619 84.5156 262.352 84.0176 262.176 83.4316C262.001 82.8457 261.913 82.1816 261.913 81.4395C261.913 80.7233 262.004 80.0658 262.186 79.4668C262.375 78.8613 262.655 78.3405 263.026 77.9043C263.404 77.4681 263.872 77.1296 264.432 76.8887C264.992 76.6478 265.647 76.5273 266.395 76.5273C267.118 76.5273 267.746 76.6348 268.28 76.8496C268.82 77.0645 269.27 77.377 269.628 77.7871C269.986 78.1973 270.253 78.6953 270.428 79.2812C270.611 79.8672 270.702 80.528 270.702 81.2637ZM269.003 81.3711C269.003 80.8958 268.957 80.4466 268.866 80.0234C268.781 79.6003 268.638 79.2292 268.436 78.9102C268.234 78.5911 267.961 78.3405 267.616 78.1582C267.271 77.9694 266.841 77.875 266.327 77.875C265.852 77.875 265.441 77.9596 265.096 78.1289C264.758 78.2982 264.478 78.5391 264.257 78.8516C264.035 79.1576 263.869 79.5221 263.758 79.9453C263.654 80.3685 263.602 80.8307 263.602 81.332C263.602 81.8138 263.645 82.2663 263.729 82.6895C263.82 83.1126 263.967 83.4837 264.169 83.8027C264.377 84.1152 264.654 84.3659 264.999 84.5547C265.344 84.737 265.773 84.8281 266.288 84.8281C266.757 84.8281 267.163 84.7435 267.508 84.5742C267.854 84.4049 268.137 84.1673 268.358 83.8613C268.579 83.5553 268.742 83.1908 268.846 82.7676C268.951 82.3444 269.003 81.8789 269.003 81.3711ZM285.077 81.9375C285.077 82.6146 284.963 83.2168 284.735 83.7441C284.507 84.2715 284.185 84.7174 283.768 85.082C283.352 85.4401 282.854 85.7135 282.274 85.9023C281.701 86.0911 281.063 86.1855 280.36 86.1855C279.969 86.1855 279.598 86.1562 279.247 86.0977C278.895 86.0456 278.583 85.9805 278.309 85.9023C278.036 85.8177 277.811 85.7363 277.635 85.6582C277.46 85.5801 277.346 85.5182 277.294 85.4727C277.248 85.4271 277.216 85.3848 277.196 85.3457C277.176 85.3066 277.157 85.2611 277.137 85.209C277.124 85.1504 277.115 85.0788 277.108 84.9941C277.102 84.9095 277.098 84.8086 277.098 84.6914C277.098 84.5807 277.102 84.4831 277.108 84.3984C277.121 84.3073 277.141 84.2357 277.167 84.1836C277.193 84.125 277.222 84.0827 277.255 84.0566C277.294 84.0306 277.336 84.0176 277.382 84.0176C277.447 84.0176 277.548 84.0599 277.684 84.1445C277.821 84.2227 278.003 84.3105 278.231 84.4082C278.466 84.4993 278.752 84.5872 279.091 84.6719C279.436 84.7565 279.842 84.7988 280.311 84.7988C280.747 84.7988 281.148 84.7467 281.512 84.6426C281.877 84.5384 282.189 84.3757 282.45 84.1543C282.717 83.9329 282.925 83.6562 283.075 83.3242C283.225 82.9857 283.299 82.5755 283.299 82.0938C283.299 81.6901 283.234 81.3353 283.104 81.0293C282.98 80.7168 282.785 80.4596 282.518 80.2578C282.258 80.0495 281.926 79.8965 281.522 79.7988C281.119 79.6947 280.637 79.6426 280.077 79.6426C279.68 79.6426 279.338 79.6621 279.051 79.7012C278.765 79.7402 278.498 79.7598 278.251 79.7598C278.068 79.7598 277.938 79.7174 277.86 79.6328C277.782 79.5482 277.743 79.3854 277.743 79.1445V73.998C277.743 73.7832 277.792 73.6237 277.889 73.5195C277.994 73.4154 278.14 73.3633 278.329 73.3633H283.924C283.977 73.3633 284.025 73.3796 284.071 73.4121C284.123 73.4382 284.165 73.4805 284.198 73.5391C284.23 73.5977 284.253 73.6725 284.266 73.7637C284.286 73.8548 284.296 73.9622 284.296 74.0859C284.296 74.3203 284.263 74.5026 284.198 74.6328C284.133 74.763 284.042 74.8281 283.924 74.8281H279.208V78.373C279.436 78.3405 279.667 78.321 279.901 78.3145C280.142 78.3079 280.419 78.3047 280.731 78.3047C281.454 78.3047 282.085 78.3926 282.626 78.5684C283.166 78.7376 283.615 78.9818 283.973 79.3008C284.338 79.6133 284.611 79.9941 284.794 80.4434C284.982 80.8926 285.077 81.3906 285.077 81.9375ZM290.126 78.1875C290.126 78.3958 290.109 78.5716 290.077 78.7148C290.051 78.8581 289.995 78.9753 289.911 79.0664C289.833 79.151 289.729 79.2129 289.598 79.252C289.468 79.2845 289.302 79.3008 289.1 79.3008C288.892 79.3008 288.723 79.2845 288.592 79.252C288.462 79.2129 288.358 79.151 288.28 79.0664C288.202 78.9753 288.147 78.8581 288.114 78.7148C288.088 78.5716 288.075 78.3958 288.075 78.1875C288.075 77.9661 288.088 77.7839 288.114 77.6406C288.147 77.4909 288.202 77.3737 288.28 77.2891C288.358 77.1979 288.462 77.1361 288.592 77.1035C288.723 77.0645 288.892 77.0449 289.1 77.0449C289.302 77.0449 289.468 77.0645 289.598 77.1035C289.729 77.1361 289.833 77.1979 289.911 77.2891C289.995 77.3737 290.051 77.4909 290.077 77.6406C290.109 77.7839 290.126 77.9661 290.126 78.1875ZM290.126 84.9648C290.126 85.1797 290.109 85.3587 290.077 85.502C290.051 85.6452 289.995 85.7624 289.911 85.8535C289.833 85.9382 289.729 85.9967 289.598 86.0293C289.468 86.0684 289.302 86.0879 289.1 86.0879C288.892 86.0879 288.723 86.0684 288.592 86.0293C288.462 85.9967 288.358 85.9382 288.28 85.8535C288.202 85.7624 288.147 85.6452 288.114 85.502C288.088 85.3587 288.075 85.1797 288.075 84.9648C288.075 84.75 288.088 84.571 288.114 84.4277C288.147 84.278 288.202 84.1608 288.28 84.0762C288.358 83.9915 288.462 83.9297 288.592 83.8906C288.723 83.8516 288.892 83.832 289.1 83.832C289.302 83.832 289.468 83.8516 289.598 83.8906C289.729 83.9297 289.833 83.9915 289.911 84.0762C289.995 84.1608 290.051 84.278 290.077 84.4277C290.109 84.571 290.126 84.75 290.126 84.9648ZM301.044 79.6523C301.044 80.6224 300.966 81.5078 300.809 82.3086C300.66 83.1094 300.406 83.7995 300.048 84.3789C299.696 84.9518 299.234 85.3978 298.661 85.7168C298.088 86.0293 297.382 86.1855 296.542 86.1855C295.747 86.1855 295.077 86.0456 294.53 85.7656C293.99 85.4792 293.553 85.0625 293.221 84.5156C292.889 83.9622 292.652 83.2852 292.508 82.4844C292.372 81.6771 292.303 80.7526 292.303 79.7109C292.303 78.7474 292.382 77.8652 292.538 77.0645C292.694 76.2572 292.948 75.5671 293.299 74.9941C293.651 74.4147 294.113 73.9688 294.686 73.6562C295.259 73.3372 295.962 73.1777 296.796 73.1777C297.596 73.1777 298.267 73.321 298.807 73.6074C299.354 73.8874 299.794 74.304 300.126 74.8574C300.458 75.4043 300.692 76.0814 300.829 76.8887C300.972 77.6895 301.044 78.6107 301.044 79.6523ZM299.325 79.7695C299.325 79.138 299.302 78.5716 299.257 78.0703C299.211 77.569 299.143 77.1263 299.051 76.7422C298.967 76.3581 298.853 76.0293 298.71 75.7559C298.573 75.4759 298.407 75.248 298.212 75.0723C298.016 74.89 297.792 74.7598 297.538 74.6816C297.29 74.597 297.01 74.5547 296.698 74.5547C296.145 74.5547 295.695 74.6849 295.35 74.9453C295.005 75.2057 294.732 75.5638 294.53 76.0195C294.335 76.4753 294.201 77.0091 294.13 77.6211C294.058 78.2331 294.022 78.8906 294.022 79.5938C294.022 80.5378 294.071 81.3418 294.169 82.0059C294.266 82.6634 294.419 83.2005 294.628 83.6172C294.842 84.0339 295.113 84.3366 295.438 84.5254C295.77 84.7142 296.171 84.8086 296.639 84.8086C297.004 84.8086 297.323 84.75 297.596 84.6328C297.876 84.5156 298.114 84.3496 298.309 84.1348C298.511 83.9134 298.677 83.6497 298.807 83.3438C298.938 83.0378 299.042 82.6992 299.12 82.3281C299.198 81.957 299.25 81.5566 299.276 81.127C299.309 80.6908 299.325 80.2383 299.325 79.7695ZM311.18 79.6523C311.18 80.6224 311.102 81.5078 310.946 82.3086C310.796 83.1094 310.542 83.7995 310.184 84.3789C309.833 84.9518 309.37 85.3978 308.798 85.7168C308.225 86.0293 307.518 86.1855 306.678 86.1855C305.884 86.1855 305.214 86.0456 304.667 85.7656C304.126 85.4792 303.69 85.0625 303.358 84.5156C303.026 83.9622 302.788 83.2852 302.645 82.4844C302.508 81.6771 302.44 80.7526 302.44 79.7109C302.44 78.7474 302.518 77.8652 302.674 77.0645C302.831 76.2572 303.085 75.5671 303.436 74.9941C303.788 74.4147 304.25 73.9688 304.823 73.6562C305.396 73.3372 306.099 73.1777 306.932 73.1777C307.733 73.1777 308.404 73.321 308.944 73.6074C309.491 73.8874 309.93 74.304 310.262 74.8574C310.594 75.4043 310.829 76.0814 310.966 76.8887C311.109 77.6895 311.18 78.6107 311.18 79.6523ZM309.462 79.7695C309.462 79.138 309.439 78.5716 309.393 78.0703C309.348 77.569 309.279 77.1263 309.188 76.7422C309.104 76.3581 308.99 76.0293 308.846 75.7559C308.71 75.4759 308.544 75.248 308.348 75.0723C308.153 74.89 307.928 74.7598 307.674 74.6816C307.427 74.597 307.147 74.5547 306.835 74.5547C306.281 74.5547 305.832 74.6849 305.487 74.9453C305.142 75.2057 304.869 75.5638 304.667 76.0195C304.471 76.4753 304.338 77.0091 304.266 77.6211C304.195 78.2331 304.159 78.8906 304.159 79.5938C304.159 80.5378 304.208 81.3418 304.305 82.0059C304.403 82.6634 304.556 83.2005 304.764 83.6172C304.979 84.0339 305.249 84.3366 305.575 84.5254C305.907 84.7142 306.307 84.8086 306.776 84.8086C307.141 84.8086 307.46 84.75 307.733 84.6328C308.013 84.5156 308.251 84.3496 308.446 84.1348C308.648 83.9134 308.814 83.6497 308.944 83.3438C309.074 83.0378 309.178 82.6992 309.257 82.3281C309.335 81.957 309.387 81.5566 309.413 81.127C309.445 80.6908 309.462 80.2383 309.462 79.7695ZM321.454 81.2246C321.454 81.9928 321.369 82.6829 321.2 83.2949C321.037 83.9069 320.793 84.4277 320.467 84.8574C320.148 85.2806 319.751 85.6094 319.276 85.8438C318.801 86.0716 318.257 86.1855 317.645 86.1855C317.385 86.1855 317.144 86.1595 316.923 86.1074C316.701 86.0553 316.483 85.974 316.268 85.8633C316.06 85.7526 315.852 85.6126 315.643 85.4434C315.435 85.2741 315.214 85.0755 314.979 84.8477V89.2422C314.979 89.2943 314.966 89.3398 314.94 89.3789C314.914 89.418 314.872 89.4505 314.813 89.4766C314.755 89.5026 314.673 89.5221 314.569 89.5352C314.465 89.5482 314.331 89.5547 314.169 89.5547C314.012 89.5547 313.882 89.5482 313.778 89.5352C313.674 89.5221 313.589 89.5026 313.524 89.4766C313.466 89.4505 313.423 89.418 313.397 89.3789C313.378 89.3398 313.368 89.2943 313.368 89.2422V76.9668C313.368 76.9082 313.378 76.8626 313.397 76.8301C313.417 76.791 313.456 76.7585 313.514 76.7324C313.573 76.7064 313.648 76.6901 313.739 76.6836C313.83 76.6706 313.941 76.6641 314.071 76.6641C314.208 76.6641 314.318 76.6706 314.403 76.6836C314.494 76.6901 314.569 76.7064 314.628 76.7324C314.686 76.7585 314.725 76.791 314.745 76.8301C314.771 76.8626 314.784 76.9082 314.784 76.9668V78.1484C315.051 77.875 315.308 77.6374 315.555 77.4355C315.803 77.2337 316.05 77.0677 316.298 76.9375C316.551 76.8008 316.809 76.6999 317.069 76.6348C317.336 76.5632 317.616 76.5273 317.909 76.5273C318.547 76.5273 319.091 76.651 319.54 76.8984C319.989 77.1458 320.354 77.4844 320.633 77.9141C320.92 78.3438 321.128 78.8451 321.258 79.418C321.389 79.9844 321.454 80.5866 321.454 81.2246ZM319.755 81.4102C319.755 80.9609 319.719 80.528 319.647 80.1113C319.582 79.6882 319.465 79.3138 319.296 78.9883C319.133 78.6628 318.911 78.4023 318.632 78.207C318.352 78.0117 318.003 77.9141 317.587 77.9141C317.378 77.9141 317.173 77.9466 316.971 78.0117C316.77 78.0703 316.564 78.168 316.356 78.3047C316.148 78.4349 315.93 78.6107 315.702 78.832C315.474 79.0469 315.233 79.3138 314.979 79.6328V83.1289C315.422 83.6693 315.842 84.0827 316.239 84.3691C316.636 84.6556 317.053 84.7988 317.489 84.7988C317.893 84.7988 318.238 84.7012 318.524 84.5059C318.817 84.3105 319.051 84.0501 319.227 83.7246C319.41 83.3991 319.543 83.0345 319.628 82.6309C319.712 82.2272 319.755 81.8203 319.755 81.4102ZM336.913 85.7559C336.913 85.8079 336.9 85.8535 336.874 85.8926C336.848 85.9251 336.805 85.9544 336.747 85.9805C336.688 86.0065 336.607 86.026 336.503 86.0391C336.398 86.0521 336.268 86.0586 336.112 86.0586C335.949 86.0586 335.816 86.0521 335.712 86.0391C335.607 86.026 335.523 86.0065 335.458 85.9805C335.399 85.9544 335.357 85.9251 335.331 85.8926C335.305 85.8535 335.292 85.8079 335.292 85.7559V80.4141C335.292 80.043 335.259 79.7044 335.194 79.3984C335.129 79.0924 335.025 78.8288 334.882 78.6074C334.738 78.3861 334.556 78.2168 334.335 78.0996C334.113 77.9824 333.853 77.9238 333.553 77.9238C333.182 77.9238 332.808 78.0671 332.43 78.3535C332.059 78.64 331.649 79.0599 331.2 79.6133V85.7559C331.2 85.8079 331.187 85.8535 331.161 85.8926C331.135 85.9251 331.089 85.9544 331.024 85.9805C330.966 86.0065 330.884 86.026 330.78 86.0391C330.676 86.0521 330.546 86.0586 330.389 86.0586C330.24 86.0586 330.109 86.0521 329.999 86.0391C329.895 86.026 329.81 86.0065 329.745 85.9805C329.686 85.9544 329.644 85.9251 329.618 85.8926C329.598 85.8535 329.589 85.8079 329.589 85.7559V80.4141C329.589 80.043 329.553 79.7044 329.481 79.3984C329.41 79.0924 329.302 78.8288 329.159 78.6074C329.016 78.3861 328.833 78.2168 328.612 78.0996C328.397 77.9824 328.14 77.9238 327.841 77.9238C327.469 77.9238 327.095 78.0671 326.717 78.3535C326.34 78.64 325.93 79.0599 325.487 79.6133V85.7559C325.487 85.8079 325.474 85.8535 325.448 85.8926C325.422 85.9251 325.38 85.9544 325.321 85.9805C325.262 86.0065 325.181 86.026 325.077 86.0391C324.973 86.0521 324.839 86.0586 324.676 86.0586C324.52 86.0586 324.39 86.0521 324.286 86.0391C324.182 86.026 324.097 86.0065 324.032 85.9805C323.973 85.9544 323.931 85.9251 323.905 85.8926C323.885 85.8535 323.876 85.8079 323.876 85.7559V76.9668C323.876 76.9147 323.885 76.8724 323.905 76.8398C323.924 76.8008 323.964 76.7682 324.022 76.7422C324.081 76.7096 324.156 76.6901 324.247 76.6836C324.338 76.6706 324.458 76.6641 324.608 76.6641C324.751 76.6641 324.869 76.6706 324.96 76.6836C325.057 76.6901 325.132 76.7096 325.184 76.7422C325.236 76.7682 325.272 76.8008 325.292 76.8398C325.318 76.8724 325.331 76.9147 325.331 76.9668V78.1289C325.826 77.5755 326.304 77.1719 326.766 76.918C327.235 76.6576 327.707 76.5273 328.182 76.5273C328.547 76.5273 328.872 76.5697 329.159 76.6543C329.452 76.7389 329.709 76.8594 329.93 77.0156C330.152 77.1654 330.341 77.3477 330.497 77.5625C330.653 77.7708 330.783 78.0052 330.887 78.2656C331.18 77.9466 331.457 77.6764 331.717 77.4551C331.984 77.2337 332.238 77.0547 332.479 76.918C332.727 76.7812 332.964 76.6836 333.192 76.625C333.426 76.5599 333.661 76.5273 333.895 76.5273C334.462 76.5273 334.937 76.6283 335.321 76.8301C335.705 77.0254 336.014 77.2891 336.249 77.6211C336.49 77.9531 336.659 78.3438 336.757 78.793C336.861 79.2357 336.913 79.7044 336.913 80.1992V85.7559ZM113.133 106.455C113.133 107.048 113.023 107.575 112.801 108.037C112.587 108.499 112.284 108.893 111.893 109.219C111.509 109.538 111.053 109.779 110.526 109.941C110.005 110.104 109.442 110.186 108.837 110.186C108.413 110.186 108.02 110.15 107.655 110.078C107.297 110.007 106.975 109.919 106.688 109.814C106.408 109.71 106.171 109.603 105.975 109.492C105.786 109.382 105.653 109.287 105.575 109.209C105.503 109.131 105.448 109.033 105.409 108.916C105.376 108.792 105.36 108.63 105.36 108.428C105.36 108.285 105.367 108.167 105.38 108.076C105.393 107.979 105.412 107.9 105.438 107.842C105.464 107.783 105.497 107.744 105.536 107.725C105.575 107.699 105.62 107.686 105.673 107.686C105.764 107.686 105.891 107.741 106.053 107.852C106.223 107.962 106.438 108.083 106.698 108.213C106.958 108.343 107.271 108.467 107.635 108.584C108.007 108.695 108.433 108.75 108.915 108.75C109.279 108.75 109.611 108.701 109.911 108.604C110.217 108.506 110.477 108.369 110.692 108.193C110.913 108.011 111.083 107.79 111.2 107.529C111.317 107.269 111.376 106.973 111.376 106.641C111.376 106.283 111.294 105.977 111.132 105.723C110.969 105.469 110.754 105.247 110.487 105.059C110.22 104.863 109.914 104.688 109.569 104.531C109.23 104.368 108.882 104.206 108.524 104.043C108.166 103.874 107.818 103.688 107.479 103.486C107.141 103.285 106.838 103.047 106.571 102.773C106.304 102.5 106.086 102.181 105.917 101.816C105.754 101.445 105.673 101.003 105.673 100.488C105.673 99.9609 105.767 99.4922 105.956 99.082C106.151 98.6654 106.418 98.3171 106.757 98.0371C107.102 97.7572 107.508 97.5456 107.977 97.4023C108.452 97.2526 108.964 97.1777 109.51 97.1777C109.79 97.1777 110.07 97.2038 110.35 97.2559C110.637 97.3014 110.904 97.3665 111.151 97.4512C111.405 97.5293 111.63 97.6204 111.825 97.7246C112.02 97.8223 112.147 97.9036 112.206 97.9688C112.271 98.0273 112.313 98.0762 112.333 98.1152C112.352 98.1478 112.369 98.1934 112.382 98.252C112.395 98.304 112.404 98.3691 112.411 98.4473C112.417 98.5254 112.421 98.6263 112.421 98.75C112.421 98.8672 112.414 98.9714 112.401 99.0625C112.395 99.1536 112.382 99.2318 112.362 99.2969C112.342 99.3555 112.313 99.401 112.274 99.4336C112.242 99.4596 112.202 99.4727 112.157 99.4727C112.085 99.4727 111.971 99.4271 111.815 99.3359C111.665 99.2448 111.48 99.1439 111.258 99.0332C111.037 98.916 110.773 98.8118 110.467 98.7207C110.168 98.623 109.829 98.5742 109.452 98.5742C109.1 98.5742 108.794 98.623 108.534 98.7207C108.273 98.8118 108.059 98.9355 107.889 99.0918C107.72 99.248 107.593 99.4336 107.508 99.6484C107.424 99.8633 107.382 100.091 107.382 100.332C107.382 100.684 107.463 100.986 107.626 101.24C107.788 101.494 108.003 101.719 108.27 101.914C108.544 102.109 108.853 102.288 109.198 102.451C109.543 102.614 109.895 102.78 110.253 102.949C110.611 103.112 110.962 103.294 111.307 103.496C111.652 103.691 111.958 103.926 112.225 104.199C112.499 104.466 112.717 104.785 112.88 105.156C113.049 105.521 113.133 105.954 113.133 106.455ZM122.889 109.756C122.889 109.808 122.876 109.854 122.85 109.893C122.831 109.925 122.792 109.954 122.733 109.98C122.674 110.007 122.596 110.026 122.499 110.039C122.408 110.052 122.294 110.059 122.157 110.059C122.007 110.059 121.883 110.052 121.786 110.039C121.695 110.026 121.62 110.007 121.561 109.98C121.509 109.954 121.473 109.925 121.454 109.893C121.434 109.854 121.424 109.808 121.424 109.756V108.594C120.923 109.147 120.428 109.551 119.94 109.805C119.452 110.059 118.957 110.186 118.456 110.186C117.87 110.186 117.375 110.088 116.971 109.893C116.574 109.697 116.252 109.434 116.005 109.102C115.757 108.763 115.578 108.372 115.467 107.93C115.363 107.48 115.311 106.937 115.311 106.299V100.967C115.311 100.915 115.321 100.872 115.341 100.84C115.367 100.801 115.412 100.768 115.477 100.742C115.542 100.71 115.627 100.69 115.731 100.684C115.835 100.671 115.966 100.664 116.122 100.664C116.278 100.664 116.408 100.671 116.512 100.684C116.617 100.69 116.698 100.71 116.757 100.742C116.822 100.768 116.867 100.801 116.893 100.84C116.919 100.872 116.932 100.915 116.932 100.967V106.084C116.932 106.598 116.968 107.012 117.04 107.324C117.118 107.63 117.232 107.894 117.382 108.115C117.538 108.33 117.733 108.499 117.967 108.623C118.202 108.74 118.475 108.799 118.788 108.799C119.191 108.799 119.592 108.656 119.989 108.369C120.393 108.083 120.819 107.663 121.268 107.109V100.967C121.268 100.915 121.278 100.872 121.298 100.84C121.324 100.801 121.369 100.768 121.434 100.742C121.499 100.71 121.581 100.69 121.678 100.684C121.783 100.671 121.916 100.664 122.079 100.664C122.235 100.664 122.365 100.671 122.469 100.684C122.574 100.69 122.655 100.71 122.714 100.742C122.772 100.768 122.814 100.801 122.841 100.84C122.873 100.872 122.889 100.915 122.889 100.967V109.756ZM130.438 109.111C130.438 109.3 130.425 109.45 130.399 109.561C130.373 109.671 130.334 109.753 130.282 109.805C130.23 109.857 130.152 109.906 130.048 109.951C129.943 109.997 129.823 110.033 129.686 110.059C129.556 110.091 129.416 110.117 129.266 110.137C129.117 110.156 128.967 110.166 128.817 110.166C128.361 110.166 127.971 110.107 127.645 109.99C127.32 109.867 127.053 109.684 126.844 109.443C126.636 109.196 126.483 108.887 126.385 108.516C126.294 108.138 126.249 107.695 126.249 107.188V102.051H125.018C124.921 102.051 124.842 101.999 124.784 101.895C124.725 101.79 124.696 101.621 124.696 101.387C124.696 101.263 124.702 101.159 124.716 101.074C124.735 100.99 124.758 100.921 124.784 100.869C124.81 100.811 124.842 100.771 124.882 100.752C124.927 100.726 124.976 100.713 125.028 100.713H126.249V98.623C126.249 98.5775 126.258 98.5352 126.278 98.4961C126.304 98.457 126.346 98.4245 126.405 98.3984C126.47 98.3659 126.555 98.3431 126.659 98.3301C126.763 98.3171 126.893 98.3105 127.049 98.3105C127.212 98.3105 127.346 98.3171 127.45 98.3301C127.554 98.3431 127.635 98.3659 127.694 98.3984C127.753 98.4245 127.795 98.457 127.821 98.4961C127.847 98.5352 127.86 98.5775 127.86 98.623V100.713H130.116C130.168 100.713 130.214 100.726 130.253 100.752C130.292 100.771 130.324 100.811 130.35 100.869C130.383 100.921 130.406 100.99 130.419 101.074C130.432 101.159 130.438 101.263 130.438 101.387C130.438 101.621 130.409 101.79 130.35 101.895C130.292 101.999 130.214 102.051 130.116 102.051H127.86V106.953C127.86 107.559 127.948 108.018 128.124 108.33C128.306 108.636 128.628 108.789 129.091 108.789C129.24 108.789 129.374 108.776 129.491 108.75C129.608 108.717 129.712 108.685 129.803 108.652C129.895 108.62 129.973 108.59 130.038 108.564C130.103 108.532 130.161 108.516 130.214 108.516C130.246 108.516 130.275 108.525 130.301 108.545C130.334 108.558 130.357 108.587 130.37 108.633C130.389 108.678 130.406 108.74 130.419 108.818C130.432 108.896 130.438 108.994 130.438 109.111ZM141.053 105.068C141.053 105.322 141.024 105.498 140.966 105.596C140.907 105.693 140.822 105.742 140.712 105.742H136.63C136.512 105.742 136.424 105.693 136.366 105.596C136.307 105.492 136.278 105.316 136.278 105.068C136.278 104.821 136.307 104.648 136.366 104.551C136.424 104.453 136.512 104.404 136.63 104.404H140.712C140.764 104.404 140.809 104.414 140.848 104.434C140.894 104.453 140.93 104.492 140.956 104.551C140.988 104.603 141.011 104.671 141.024 104.756C141.044 104.84 141.053 104.945 141.053 105.068ZM154.735 106.455C154.735 107.048 154.624 107.575 154.403 108.037C154.188 108.499 153.885 108.893 153.495 109.219C153.111 109.538 152.655 109.779 152.128 109.941C151.607 110.104 151.044 110.186 150.438 110.186C150.015 110.186 149.621 110.15 149.257 110.078C148.898 110.007 148.576 109.919 148.29 109.814C148.01 109.71 147.772 109.603 147.577 109.492C147.388 109.382 147.255 109.287 147.176 109.209C147.105 109.131 147.049 109.033 147.01 108.916C146.978 108.792 146.962 108.63 146.962 108.428C146.962 108.285 146.968 108.167 146.981 108.076C146.994 107.979 147.014 107.9 147.04 107.842C147.066 107.783 147.098 107.744 147.137 107.725C147.176 107.699 147.222 107.686 147.274 107.686C147.365 107.686 147.492 107.741 147.655 107.852C147.824 107.962 148.039 108.083 148.299 108.213C148.56 108.343 148.872 108.467 149.237 108.584C149.608 108.695 150.035 108.75 150.516 108.75C150.881 108.75 151.213 108.701 151.512 108.604C151.818 108.506 152.079 108.369 152.294 108.193C152.515 108.011 152.684 107.79 152.801 107.529C152.919 107.269 152.977 106.973 152.977 106.641C152.977 106.283 152.896 105.977 152.733 105.723C152.57 105.469 152.355 105.247 152.089 105.059C151.822 104.863 151.516 104.688 151.171 104.531C150.832 104.368 150.484 104.206 150.126 104.043C149.768 103.874 149.419 103.688 149.081 103.486C148.742 103.285 148.439 103.047 148.173 102.773C147.906 102.5 147.688 102.181 147.518 101.816C147.355 101.445 147.274 101.003 147.274 100.488C147.274 99.9609 147.369 99.4922 147.557 99.082C147.753 98.6654 148.02 98.3171 148.358 98.0371C148.703 97.7572 149.11 97.5456 149.579 97.4023C150.054 97.2526 150.565 97.1777 151.112 97.1777C151.392 97.1777 151.672 97.2038 151.952 97.2559C152.238 97.3014 152.505 97.3665 152.753 97.4512C153.007 97.5293 153.231 97.6204 153.426 97.7246C153.622 97.8223 153.749 97.9036 153.807 97.9688C153.872 98.0273 153.915 98.0762 153.934 98.1152C153.954 98.1478 153.97 98.1934 153.983 98.252C153.996 98.304 154.006 98.3691 154.012 98.4473C154.019 98.5254 154.022 98.6263 154.022 98.75C154.022 98.8672 154.016 98.9714 154.003 99.0625C153.996 99.1536 153.983 99.2318 153.964 99.2969C153.944 99.3555 153.915 99.401 153.876 99.4336C153.843 99.4596 153.804 99.4727 153.758 99.4727C153.687 99.4727 153.573 99.4271 153.417 99.3359C153.267 99.2448 153.081 99.1439 152.86 99.0332C152.639 98.916 152.375 98.8118 152.069 98.7207C151.77 98.623 151.431 98.5742 151.053 98.5742C150.702 98.5742 150.396 98.623 150.135 98.7207C149.875 98.8118 149.66 98.9355 149.491 99.0918C149.322 99.248 149.195 99.4336 149.11 99.6484C149.025 99.8633 148.983 100.091 148.983 100.332C148.983 100.684 149.064 100.986 149.227 101.24C149.39 101.494 149.605 101.719 149.872 101.914C150.145 102.109 150.454 102.288 150.799 102.451C151.145 102.614 151.496 102.78 151.854 102.949C152.212 103.112 152.564 103.294 152.909 103.496C153.254 103.691 153.56 103.926 153.827 104.199C154.1 104.466 154.318 104.785 154.481 105.156C154.65 105.521 154.735 105.954 154.735 106.455ZM164.491 109.756C164.491 109.808 164.478 109.854 164.452 109.893C164.432 109.925 164.393 109.954 164.335 109.98C164.276 110.007 164.198 110.026 164.1 110.039C164.009 110.052 163.895 110.059 163.758 110.059C163.609 110.059 163.485 110.052 163.387 110.039C163.296 110.026 163.221 110.007 163.163 109.98C163.111 109.954 163.075 109.925 163.055 109.893C163.036 109.854 163.026 109.808 163.026 109.756V108.594C162.525 109.147 162.03 109.551 161.542 109.805C161.053 110.059 160.559 110.186 160.057 110.186C159.471 110.186 158.977 110.088 158.573 109.893C158.176 109.697 157.854 109.434 157.606 109.102C157.359 108.763 157.18 108.372 157.069 107.93C156.965 107.48 156.913 106.937 156.913 106.299V100.967C156.913 100.915 156.923 100.872 156.942 100.84C156.968 100.801 157.014 100.768 157.079 100.742C157.144 100.71 157.229 100.69 157.333 100.684C157.437 100.671 157.567 100.664 157.723 100.664C157.88 100.664 158.01 100.671 158.114 100.684C158.218 100.69 158.299 100.71 158.358 100.742C158.423 100.768 158.469 100.801 158.495 100.84C158.521 100.872 158.534 100.915 158.534 100.967V106.084C158.534 106.598 158.57 107.012 158.641 107.324C158.719 107.63 158.833 107.894 158.983 108.115C159.139 108.33 159.335 108.499 159.569 108.623C159.803 108.74 160.077 108.799 160.389 108.799C160.793 108.799 161.193 108.656 161.591 108.369C161.994 108.083 162.421 107.663 162.87 107.109V100.967C162.87 100.915 162.88 100.872 162.899 100.84C162.925 100.801 162.971 100.768 163.036 100.742C163.101 100.71 163.182 100.69 163.28 100.684C163.384 100.671 163.518 100.664 163.68 100.664C163.837 100.664 163.967 100.671 164.071 100.684C164.175 100.69 164.257 100.71 164.315 100.742C164.374 100.768 164.416 100.801 164.442 100.84C164.475 100.872 164.491 100.915 164.491 100.967V109.756ZM175.038 109.756C175.038 109.808 175.025 109.854 174.999 109.893C174.973 109.925 174.93 109.954 174.872 109.98C174.813 110.007 174.732 110.026 174.628 110.039C174.523 110.052 174.393 110.059 174.237 110.059C174.074 110.059 173.941 110.052 173.837 110.039C173.732 110.026 173.651 110.007 173.592 109.98C173.534 109.954 173.492 109.925 173.466 109.893C173.439 109.854 173.426 109.808 173.426 109.756V104.609C173.426 104.108 173.387 103.704 173.309 103.398C173.231 103.092 173.117 102.829 172.967 102.607C172.818 102.386 172.622 102.217 172.382 102.1C172.147 101.982 171.874 101.924 171.561 101.924C171.158 101.924 170.754 102.067 170.35 102.354C169.947 102.64 169.523 103.06 169.081 103.613V109.756C169.081 109.808 169.068 109.854 169.042 109.893C169.016 109.925 168.973 109.954 168.915 109.98C168.856 110.007 168.775 110.026 168.671 110.039C168.566 110.052 168.433 110.059 168.27 110.059C168.114 110.059 167.984 110.052 167.88 110.039C167.775 110.026 167.691 110.007 167.626 109.98C167.567 109.954 167.525 109.925 167.499 109.893C167.479 109.854 167.469 109.808 167.469 109.756V100.967C167.469 100.915 167.479 100.872 167.499 100.84C167.518 100.801 167.557 100.768 167.616 100.742C167.674 100.71 167.749 100.69 167.841 100.684C167.932 100.671 168.052 100.664 168.202 100.664C168.345 100.664 168.462 100.671 168.553 100.684C168.651 100.69 168.726 100.71 168.778 100.742C168.83 100.768 168.866 100.801 168.885 100.84C168.911 100.872 168.924 100.915 168.924 100.967V102.129C169.419 101.576 169.911 101.172 170.399 100.918C170.894 100.658 171.392 100.527 171.893 100.527C172.479 100.527 172.971 100.628 173.368 100.83C173.772 101.025 174.097 101.289 174.344 101.621C174.592 101.953 174.768 102.344 174.872 102.793C174.982 103.236 175.038 103.77 175.038 104.395V109.756ZM180.36 102.188C180.36 102.396 180.344 102.572 180.311 102.715C180.285 102.858 180.23 102.975 180.145 103.066C180.067 103.151 179.963 103.213 179.833 103.252C179.702 103.285 179.536 103.301 179.335 103.301C179.126 103.301 178.957 103.285 178.827 103.252C178.697 103.213 178.592 103.151 178.514 103.066C178.436 102.975 178.381 102.858 178.348 102.715C178.322 102.572 178.309 102.396 178.309 102.188C178.309 101.966 178.322 101.784 178.348 101.641C178.381 101.491 178.436 101.374 178.514 101.289C178.592 101.198 178.697 101.136 178.827 101.104C178.957 101.064 179.126 101.045 179.335 101.045C179.536 101.045 179.702 101.064 179.833 101.104C179.963 101.136 180.067 101.198 180.145 101.289C180.23 101.374 180.285 101.491 180.311 101.641C180.344 101.784 180.36 101.966 180.36 102.188ZM180.36 108.965C180.36 109.18 180.344 109.359 180.311 109.502C180.285 109.645 180.23 109.762 180.145 109.854C180.067 109.938 179.963 109.997 179.833 110.029C179.702 110.068 179.536 110.088 179.335 110.088C179.126 110.088 178.957 110.068 178.827 110.029C178.697 109.997 178.592 109.938 178.514 109.854C178.436 109.762 178.381 109.645 178.348 109.502C178.322 109.359 178.309 109.18 178.309 108.965C178.309 108.75 178.322 108.571 178.348 108.428C178.381 108.278 178.436 108.161 178.514 108.076C178.592 107.992 178.697 107.93 178.827 107.891C178.957 107.852 179.126 107.832 179.335 107.832C179.536 107.832 179.702 107.852 179.833 107.891C179.963 107.93 180.067 107.992 180.145 108.076C180.23 108.161 180.285 108.278 180.311 108.428C180.344 108.571 180.36 108.75 180.36 108.965ZM196.483 108.213C196.483 108.317 196.48 108.408 196.473 108.486C196.467 108.564 196.454 108.633 196.434 108.691C196.421 108.75 196.402 108.802 196.376 108.848C196.35 108.893 196.304 108.949 196.239 109.014C196.174 109.079 196.037 109.18 195.829 109.316C195.62 109.447 195.36 109.577 195.048 109.707C194.742 109.831 194.387 109.935 193.983 110.02C193.586 110.111 193.15 110.156 192.674 110.156C191.854 110.156 191.112 110.02 190.448 109.746C189.79 109.473 189.227 109.069 188.758 108.535C188.296 108.001 187.938 107.344 187.684 106.562C187.437 105.775 187.313 104.87 187.313 103.848C187.313 102.799 187.447 101.865 187.714 101.045C187.987 100.225 188.368 99.5312 188.856 98.9648C189.344 98.3919 189.927 97.9557 190.604 97.6562C191.288 97.3568 192.043 97.207 192.87 97.207C193.234 97.207 193.589 97.2428 193.934 97.3145C194.279 97.3796 194.598 97.4642 194.891 97.5684C195.184 97.6725 195.445 97.793 195.673 97.9297C195.9 98.0664 196.057 98.1803 196.141 98.2715C196.232 98.3561 196.291 98.4212 196.317 98.4668C196.343 98.5124 196.363 98.5677 196.376 98.6328C196.395 98.6914 196.408 98.763 196.415 98.8477C196.428 98.9323 196.434 99.0332 196.434 99.1504C196.434 99.2806 196.428 99.3913 196.415 99.4824C196.402 99.5736 196.382 99.6517 196.356 99.7168C196.33 99.7754 196.298 99.821 196.258 99.8535C196.226 99.8796 196.184 99.8926 196.132 99.8926C196.04 99.8926 195.913 99.8307 195.751 99.707C195.588 99.5768 195.376 99.4368 195.116 99.2871C194.862 99.1309 194.549 98.9909 194.178 98.8672C193.814 98.737 193.374 98.6719 192.86 98.6719C192.3 98.6719 191.789 98.7858 191.327 99.0137C190.871 99.235 190.48 99.5638 190.155 100C189.829 100.436 189.576 100.97 189.393 101.602C189.217 102.227 189.13 102.943 189.13 103.75C189.13 104.551 189.214 105.26 189.383 105.879C189.559 106.491 189.807 107.005 190.126 107.422C190.451 107.832 190.848 108.145 191.317 108.359C191.786 108.568 192.316 108.672 192.909 108.672C193.41 108.672 193.846 108.61 194.217 108.486C194.595 108.363 194.914 108.226 195.174 108.076C195.441 107.92 195.66 107.78 195.829 107.656C195.998 107.533 196.132 107.471 196.229 107.471C196.275 107.471 196.314 107.48 196.346 107.5C196.379 107.52 196.405 107.559 196.424 107.617C196.444 107.669 196.457 107.744 196.464 107.842C196.477 107.939 196.483 108.063 196.483 108.213ZM200.135 109.756C200.135 109.808 200.122 109.854 200.096 109.893C200.07 109.925 200.028 109.954 199.969 109.98C199.911 110.007 199.829 110.026 199.725 110.039C199.621 110.052 199.488 110.059 199.325 110.059C199.169 110.059 199.038 110.052 198.934 110.039C198.83 110.026 198.745 110.007 198.68 109.98C198.622 109.954 198.579 109.925 198.553 109.893C198.534 109.854 198.524 109.808 198.524 109.756V96.709C198.524 96.6569 198.534 96.6113 198.553 96.5723C198.579 96.5332 198.622 96.5007 198.68 96.4746C198.745 96.4486 198.83 96.429 198.934 96.416C199.038 96.403 199.169 96.3965 199.325 96.3965C199.488 96.3965 199.621 96.403 199.725 96.416C199.829 96.429 199.911 96.4486 199.969 96.4746C200.028 96.5007 200.07 96.5332 200.096 96.5723C200.122 96.6113 200.135 96.6569 200.135 96.709V109.756ZM211.288 105.264C211.288 105.98 211.193 106.641 211.005 107.246C210.816 107.845 210.533 108.363 210.155 108.799C209.784 109.235 209.315 109.577 208.749 109.824C208.189 110.065 207.538 110.186 206.796 110.186C206.073 110.186 205.441 110.078 204.901 109.863C204.367 109.648 203.921 109.336 203.563 108.926C203.205 108.516 202.938 108.018 202.762 107.432C202.587 106.846 202.499 106.182 202.499 105.439C202.499 104.723 202.59 104.066 202.772 103.467C202.961 102.861 203.241 102.34 203.612 101.904C203.99 101.468 204.458 101.13 205.018 100.889C205.578 100.648 206.232 100.527 206.981 100.527C207.704 100.527 208.332 100.635 208.866 100.85C209.406 101.064 209.855 101.377 210.214 101.787C210.572 102.197 210.839 102.695 211.014 103.281C211.197 103.867 211.288 104.528 211.288 105.264ZM209.589 105.371C209.589 104.896 209.543 104.447 209.452 104.023C209.367 103.6 209.224 103.229 209.022 102.91C208.82 102.591 208.547 102.34 208.202 102.158C207.857 101.969 207.427 101.875 206.913 101.875C206.438 101.875 206.027 101.96 205.682 102.129C205.344 102.298 205.064 102.539 204.842 102.852C204.621 103.158 204.455 103.522 204.344 103.945C204.24 104.368 204.188 104.831 204.188 105.332C204.188 105.814 204.23 106.266 204.315 106.689C204.406 107.113 204.553 107.484 204.755 107.803C204.963 108.115 205.24 108.366 205.585 108.555C205.93 108.737 206.359 108.828 206.874 108.828C207.342 108.828 207.749 108.743 208.094 108.574C208.439 108.405 208.723 108.167 208.944 107.861C209.165 107.555 209.328 107.191 209.432 106.768C209.536 106.344 209.589 105.879 209.589 105.371ZM219.178 107.363C219.178 107.812 219.094 108.213 218.924 108.564C218.762 108.916 218.527 109.212 218.221 109.453C217.915 109.694 217.551 109.876 217.128 110C216.704 110.124 216.239 110.186 215.731 110.186C215.419 110.186 215.119 110.16 214.833 110.107C214.553 110.062 214.299 110.003 214.071 109.932C213.85 109.854 213.661 109.775 213.505 109.697C213.348 109.613 213.234 109.538 213.163 109.473C213.091 109.408 213.039 109.316 213.007 109.199C212.974 109.082 212.958 108.923 212.958 108.721C212.958 108.597 212.964 108.493 212.977 108.408C212.99 108.324 213.007 108.255 213.026 108.203C213.046 108.151 213.072 108.115 213.104 108.096C213.143 108.07 213.186 108.057 213.231 108.057C213.303 108.057 213.407 108.102 213.544 108.193C213.687 108.278 213.859 108.372 214.061 108.477C214.27 108.581 214.514 108.678 214.794 108.77C215.074 108.854 215.396 108.896 215.76 108.896C216.034 108.896 216.281 108.867 216.503 108.809C216.724 108.75 216.916 108.665 217.079 108.555C217.242 108.438 217.365 108.291 217.45 108.115C217.541 107.939 217.587 107.731 217.587 107.49C217.587 107.243 217.522 107.035 217.391 106.865C217.268 106.696 217.102 106.546 216.893 106.416C216.685 106.286 216.451 106.172 216.19 106.074C215.93 105.97 215.66 105.863 215.38 105.752C215.106 105.641 214.836 105.518 214.569 105.381C214.309 105.238 214.074 105.065 213.866 104.863C213.658 104.661 213.488 104.421 213.358 104.141C213.234 103.861 213.173 103.525 213.173 103.135C213.173 102.79 213.238 102.461 213.368 102.148C213.505 101.829 213.706 101.553 213.973 101.318C214.24 101.077 214.572 100.885 214.969 100.742C215.373 100.599 215.842 100.527 216.376 100.527C216.61 100.527 216.844 100.547 217.079 100.586C217.313 100.625 217.525 100.674 217.714 100.732C217.902 100.791 218.062 100.856 218.192 100.928C218.329 100.993 218.43 101.051 218.495 101.104C218.566 101.156 218.612 101.201 218.632 101.24C218.658 101.279 218.674 101.325 218.68 101.377C218.693 101.423 218.703 101.481 218.71 101.553C218.723 101.624 218.729 101.712 218.729 101.816C218.729 101.927 218.723 102.025 218.71 102.109C218.703 102.188 218.687 102.253 218.661 102.305C218.641 102.357 218.615 102.396 218.583 102.422C218.55 102.441 218.514 102.451 218.475 102.451C218.417 102.451 218.332 102.415 218.221 102.344C218.111 102.272 217.967 102.197 217.792 102.119C217.616 102.035 217.408 101.956 217.167 101.885C216.932 101.813 216.662 101.777 216.356 101.777C216.083 101.777 215.842 101.81 215.633 101.875C215.425 101.934 215.253 102.021 215.116 102.139C214.986 102.249 214.885 102.383 214.813 102.539C214.748 102.695 214.716 102.865 214.716 103.047C214.716 103.301 214.781 103.516 214.911 103.691C215.041 103.861 215.21 104.01 215.419 104.141C215.627 104.271 215.865 104.388 216.132 104.492C216.398 104.596 216.669 104.704 216.942 104.814C217.222 104.925 217.495 105.049 217.762 105.186C218.036 105.322 218.277 105.488 218.485 105.684C218.693 105.879 218.859 106.113 218.983 106.387C219.113 106.66 219.178 106.986 219.178 107.363ZM228.993 104.98C228.993 105.234 228.928 105.417 228.798 105.527C228.674 105.632 228.531 105.684 228.368 105.684H222.606C222.606 106.172 222.655 106.611 222.753 107.002C222.85 107.393 223.013 107.728 223.241 108.008C223.469 108.288 223.765 108.503 224.13 108.652C224.494 108.802 224.94 108.877 225.467 108.877C225.884 108.877 226.255 108.844 226.581 108.779C226.906 108.708 227.186 108.63 227.421 108.545C227.661 108.46 227.857 108.385 228.007 108.32C228.163 108.249 228.28 108.213 228.358 108.213C228.404 108.213 228.443 108.226 228.475 108.252C228.514 108.271 228.544 108.304 228.563 108.35C228.583 108.395 228.596 108.46 228.602 108.545C228.615 108.623 228.622 108.721 228.622 108.838C228.622 108.923 228.619 108.997 228.612 109.062C228.605 109.121 228.596 109.176 228.583 109.229C228.576 109.274 228.56 109.316 228.534 109.355C228.514 109.395 228.485 109.434 228.446 109.473C228.413 109.505 228.309 109.564 228.133 109.648C227.958 109.727 227.73 109.805 227.45 109.883C227.17 109.961 226.844 110.029 226.473 110.088C226.109 110.153 225.718 110.186 225.301 110.186C224.579 110.186 223.944 110.085 223.397 109.883C222.857 109.681 222.401 109.382 222.03 108.984C221.659 108.587 221.379 108.089 221.19 107.49C221.001 106.891 220.907 106.195 220.907 105.4C220.907 104.645 221.005 103.968 221.2 103.369C221.395 102.764 221.675 102.253 222.04 101.836C222.411 101.413 222.857 101.09 223.378 100.869C223.898 100.641 224.481 100.527 225.126 100.527C225.816 100.527 226.402 100.638 226.883 100.859C227.372 101.081 227.772 101.38 228.085 101.758C228.397 102.129 228.625 102.568 228.768 103.076C228.918 103.577 228.993 104.115 228.993 104.688V104.98ZM227.372 104.502C227.391 103.656 227.202 102.992 226.805 102.51C226.415 102.028 225.832 101.787 225.057 101.787C224.66 101.787 224.312 101.862 224.012 102.012C223.713 102.161 223.462 102.36 223.26 102.607C223.059 102.855 222.902 103.145 222.792 103.477C222.681 103.802 222.619 104.144 222.606 104.502H227.372Z" fill="#BCBCBC"/>
<path d="M122.508 42.9492C122.508 44.4167 122.326 45.7292 121.962 46.8867C121.597 48.0443 121.055 49.0286 120.335 49.8398C119.615 50.6419 118.721 51.2572 117.655 51.6855C116.598 52.1048 115.372 52.3145 113.977 52.3145C112.601 52.3145 111.398 52.1367 110.368 51.7812C109.347 51.4167 108.495 50.8652 107.811 50.127C107.128 49.3887 106.613 48.4499 106.266 47.3105C105.929 46.1712 105.76 44.8223 105.76 43.2637C105.76 41.8327 105.943 40.5475 106.307 39.4082C106.672 38.2598 107.214 37.2845 107.934 36.4824C108.654 35.6803 109.543 35.0651 110.6 34.6367C111.667 34.2083 112.902 33.9941 114.305 33.9941C115.645 33.9941 116.826 34.1719 117.846 34.5273C118.876 34.8828 119.733 35.4297 120.417 36.168C121.109 36.9062 121.629 37.8405 121.975 38.9707C122.331 40.0918 122.508 41.418 122.508 42.9492ZM118.735 43.1406C118.735 42.2109 118.662 41.3678 118.516 40.6113C118.37 39.8457 118.12 39.194 117.764 38.6562C117.418 38.1094 116.953 37.6901 116.37 37.3984C115.786 37.0977 115.057 36.9473 114.182 36.9473C113.298 36.9473 112.56 37.1159 111.967 37.4531C111.375 37.7812 110.897 38.2233 110.532 38.7793C110.167 39.3353 109.908 39.987 109.753 40.7344C109.607 41.4727 109.534 42.2565 109.534 43.0859C109.534 44.0521 109.607 44.9225 109.753 45.6973C109.898 46.4629 110.145 47.1191 110.491 47.666C110.837 48.2129 111.302 48.6322 111.885 48.9238C112.469 49.2064 113.202 49.3477 114.087 49.3477C114.971 49.3477 115.709 49.1836 116.301 48.8555C116.894 48.5273 117.372 48.0807 117.737 47.5156C118.102 46.9505 118.357 46.2943 118.503 45.5469C118.658 44.7904 118.735 43.9883 118.735 43.1406ZM137.616 45.2598C137.616 46.3444 137.497 47.3242 137.26 48.1992C137.033 49.0651 136.695 49.8034 136.249 50.4141C135.802 51.0247 135.246 51.4941 134.581 51.8223C133.915 52.1504 133.154 52.3145 132.298 52.3145C131.942 52.3145 131.614 52.278 131.313 52.2051C131.022 52.1413 130.734 52.041 130.452 51.9043C130.178 51.7585 129.905 51.5807 129.632 51.3711C129.358 51.1615 129.076 50.9154 128.784 50.6328V56.375C128.784 56.4661 128.757 56.5482 128.702 56.6211C128.647 56.694 128.551 56.7533 128.415 56.7988C128.287 56.8535 128.114 56.8945 127.895 56.9219C127.676 56.9492 127.398 56.9629 127.061 56.9629C126.724 56.9629 126.446 56.9492 126.227 56.9219C126.008 56.8945 125.831 56.8535 125.694 56.7988C125.566 56.7533 125.475 56.694 125.421 56.6211C125.366 56.5482 125.339 56.4661 125.339 56.375V39.3398C125.339 39.2487 125.361 39.1712 125.407 39.1074C125.452 39.0345 125.53 38.9753 125.639 38.9297C125.758 38.8841 125.908 38.8522 126.091 38.834C126.282 38.8066 126.519 38.793 126.801 38.793C127.075 38.793 127.303 38.8066 127.485 38.834C127.676 38.8522 127.827 38.8841 127.936 38.9297C128.055 38.9753 128.137 39.0345 128.182 39.1074C128.228 39.1712 128.251 39.2487 128.251 39.3398V40.7754C128.606 40.4108 128.952 40.0918 129.29 39.8184C129.636 39.5358 129.987 39.3034 130.342 39.1211C130.698 38.9297 131.063 38.7884 131.436 38.6973C131.819 38.6061 132.225 38.5605 132.653 38.5605C133.546 38.5605 134.307 38.7383 134.936 39.0938C135.565 39.4401 136.076 39.9186 136.467 40.5293C136.869 41.14 137.16 41.8509 137.342 42.6621C137.525 43.4733 137.616 44.3392 137.616 45.2598ZM134.034 45.5059C134.034 44.9863 133.993 44.4896 133.911 44.0156C133.838 43.5326 133.706 43.1042 133.514 42.7305C133.332 42.3568 133.086 42.0605 132.776 41.8418C132.475 41.6139 132.097 41.5 131.641 41.5C131.413 41.5 131.186 41.5365 130.958 41.6094C130.739 41.6732 130.511 41.7826 130.274 41.9375C130.046 42.0924 129.809 42.293 129.563 42.5391C129.317 42.7852 129.057 43.0905 128.784 43.4551V47.4746C129.267 48.0853 129.727 48.5592 130.165 48.8965C130.602 49.2246 131.058 49.3887 131.532 49.3887C131.979 49.3887 132.357 49.2747 132.667 49.0469C132.986 48.819 133.245 48.5228 133.446 48.1582C133.647 47.7845 133.792 47.3652 133.883 46.9004C133.984 46.4355 134.034 45.9707 134.034 45.5059ZM151.643 45.082C151.643 45.5013 151.548 45.8112 151.356 46.0117C151.174 46.2122 150.919 46.3125 150.591 46.3125H143.167C143.167 46.832 143.226 47.306 143.344 47.7344C143.472 48.1536 143.668 48.5137 143.932 48.8145C144.206 49.1061 144.552 49.3294 144.971 49.4844C145.4 49.6393 145.91 49.7168 146.503 49.7168C147.104 49.7168 147.633 49.6758 148.089 49.5938C148.544 49.5026 148.936 49.4069 149.264 49.3066C149.602 49.1973 149.88 49.1016 150.098 49.0195C150.317 48.9284 150.495 48.8828 150.632 48.8828C150.714 48.8828 150.782 48.901 150.837 48.9375C150.891 48.9648 150.937 49.0195 150.973 49.1016C151.01 49.1836 151.033 49.3021 151.042 49.457C151.06 49.6029 151.069 49.7897 151.069 50.0176C151.069 50.2181 151.064 50.3913 151.055 50.5371C151.046 50.6738 151.033 50.7923 151.014 50.8926C150.996 50.9928 150.969 51.0794 150.932 51.1523C150.896 51.2161 150.846 51.2799 150.782 51.3438C150.727 51.4076 150.568 51.4941 150.303 51.6035C150.039 51.7129 149.702 51.8223 149.292 51.9316C148.882 52.0319 148.412 52.1185 147.883 52.1914C147.355 52.2734 146.79 52.3145 146.188 52.3145C145.104 52.3145 144.151 52.1777 143.331 51.9043C142.52 51.6309 141.841 51.2161 141.294 50.6602C140.747 50.1042 140.337 49.4023 140.063 48.5547C139.799 47.707 139.667 46.7135 139.667 45.5742C139.667 44.4896 139.808 43.5143 140.091 42.6484C140.373 41.7734 140.783 41.0352 141.321 40.4336C141.859 39.8229 142.51 39.3581 143.276 39.0391C144.051 38.7201 144.921 38.5605 145.887 38.5605C146.908 38.5605 147.779 38.7109 148.499 39.0117C149.228 39.3125 149.825 39.7318 150.29 40.2695C150.755 40.7982 151.096 41.4271 151.315 42.1562C151.534 42.8854 151.643 43.6784 151.643 44.5352V45.082ZM148.307 44.0977C148.335 43.1315 148.139 42.375 147.719 41.8281C147.309 41.2721 146.671 40.9941 145.805 40.9941C145.368 40.9941 144.985 41.0762 144.657 41.2402C144.338 41.4043 144.069 41.6276 143.85 41.9102C143.641 42.1836 143.477 42.5117 143.358 42.8945C143.249 43.2682 143.185 43.6693 143.167 44.0977H148.307ZM166.135 51.5352C166.135 51.6263 166.108 51.7083 166.053 51.7812C165.999 51.8451 165.908 51.8997 165.78 51.9453C165.652 51.9909 165.475 52.0228 165.247 52.041C165.028 52.0684 164.755 52.082 164.426 52.082C164.089 52.082 163.807 52.0684 163.579 52.041C163.36 52.0228 163.187 51.9909 163.059 51.9453C162.932 51.8997 162.841 51.8451 162.786 51.7812C162.731 51.7083 162.704 51.6263 162.704 51.5352V44.5762C162.704 43.9837 162.658 43.5189 162.567 43.1816C162.485 42.8444 162.362 42.5573 162.198 42.3203C162.034 42.0742 161.82 41.8874 161.555 41.7598C161.3 41.623 160.999 41.5547 160.653 41.5547C160.216 41.5547 159.773 41.7142 159.327 42.0332C158.88 42.3522 158.415 42.8171 157.932 43.4277V51.5352C157.932 51.6263 157.905 51.7083 157.85 51.7812C157.796 51.8451 157.7 51.8997 157.563 51.9453C157.436 51.9909 157.262 52.0228 157.044 52.041C156.825 52.0684 156.547 52.082 156.21 52.082C155.872 52.082 155.594 52.0684 155.376 52.041C155.157 52.0228 154.979 51.9909 154.842 51.9453C154.715 51.8997 154.624 51.8451 154.569 51.7812C154.514 51.7083 154.487 51.6263 154.487 51.5352V39.3398C154.487 39.2487 154.51 39.1712 154.555 39.1074C154.601 39.0345 154.683 38.9753 154.801 38.9297C154.92 38.8841 155.07 38.8522 155.253 38.834C155.444 38.8066 155.681 38.793 155.964 38.793C156.255 38.793 156.497 38.8066 156.688 38.834C156.88 38.8522 157.025 38.8841 157.126 38.9297C157.235 38.9753 157.313 39.0345 157.358 39.1074C157.404 39.1712 157.426 39.2487 157.426 39.3398V40.748C158.101 40.0189 158.785 39.472 159.477 39.1074C160.179 38.7428 160.908 38.5605 161.665 38.5605C162.494 38.5605 163.191 38.6973 163.757 38.9707C164.331 39.2441 164.791 39.6178 165.137 40.0918C165.493 40.5566 165.748 41.1035 165.903 41.7324C166.058 42.3613 166.135 43.1178 166.135 44.002V51.5352ZM187.518 51.5352C187.518 51.6263 187.491 51.7083 187.436 51.7812C187.382 51.8451 187.29 51.8997 187.163 51.9453C187.035 51.9909 186.857 52.0228 186.63 52.041C186.411 52.0684 186.137 52.082 185.809 52.082C185.472 52.082 185.189 52.0684 184.962 52.041C184.743 52.0228 184.57 51.9909 184.442 51.9453C184.314 51.8997 184.223 51.8451 184.169 51.7812C184.114 51.7083 184.087 51.6263 184.087 51.5352V44.5762C184.087 43.9837 184.041 43.5189 183.95 43.1816C183.868 42.8444 183.745 42.5573 183.581 42.3203C183.417 42.0742 183.202 41.8874 182.938 41.7598C182.683 41.623 182.382 41.5547 182.036 41.5547C181.598 41.5547 181.156 41.7142 180.71 42.0332C180.263 42.3522 179.798 42.8171 179.315 43.4277V51.5352C179.315 51.6263 179.288 51.7083 179.233 51.7812C179.178 51.8451 179.083 51.8997 178.946 51.9453C178.818 51.9909 178.645 52.0228 178.426 52.041C178.208 52.0684 177.93 52.082 177.592 52.082C177.255 52.082 176.977 52.0684 176.758 52.041C176.54 52.0228 176.362 51.9909 176.225 51.9453C176.098 51.8997 176.007 51.8451 175.952 51.7812C175.897 51.7083 175.87 51.6263 175.87 51.5352V33.5566C175.87 33.4655 175.897 33.3835 175.952 33.3105C176.007 33.2376 176.098 33.1784 176.225 33.1328C176.362 33.0781 176.54 33.0371 176.758 33.0098C176.977 32.9824 177.255 32.9688 177.592 32.9688C177.93 32.9688 178.208 32.9824 178.426 33.0098C178.645 33.0371 178.818 33.0781 178.946 33.1328C179.083 33.1784 179.178 33.2376 179.233 33.3105C179.288 33.3835 179.315 33.4655 179.315 33.5566V40.2969C179.908 39.7135 180.509 39.2806 181.12 38.998C181.74 38.7064 182.382 38.5605 183.048 38.5605C183.877 38.5605 184.574 38.6973 185.139 38.9707C185.714 39.2441 186.174 39.6178 186.52 40.0918C186.876 40.5658 187.131 41.1217 187.286 41.7598C187.441 42.3887 187.518 43.1543 187.518 44.0566V51.5352ZM203.241 45.3145C203.241 46.3535 203.104 47.3014 202.831 48.1582C202.557 49.015 202.143 49.7533 201.587 50.373C201.031 50.9928 200.333 51.4714 199.495 51.8086C198.656 52.1458 197.676 52.3145 196.555 52.3145C195.471 52.3145 194.527 52.1641 193.725 51.8633C192.923 51.5625 192.258 51.125 191.729 50.5508C191.201 49.9766 190.809 49.2702 190.553 48.4316C190.298 47.5931 190.171 46.6361 190.171 45.5605C190.171 44.5215 190.307 43.5736 190.581 42.7168C190.863 41.8509 191.283 41.1126 191.839 40.502C192.395 39.8822 193.087 39.4036 193.917 39.0664C194.755 38.7292 195.735 38.5605 196.856 38.5605C197.95 38.5605 198.898 38.7109 199.7 39.0117C200.502 39.3034 201.163 39.7363 201.682 40.3105C202.211 40.8848 202.603 41.5911 202.858 42.4297C203.113 43.2682 203.241 44.2298 203.241 45.3145ZM199.7 45.4512C199.7 44.8496 199.65 44.2982 199.549 43.7969C199.458 43.2865 199.299 42.8444 199.071 42.4707C198.843 42.097 198.538 41.8053 198.155 41.5957C197.781 41.3861 197.307 41.2812 196.733 41.2812C196.223 41.2812 195.776 41.377 195.393 41.5684C195.01 41.7507 194.696 42.0241 194.45 42.3887C194.204 42.7441 194.017 43.1771 193.889 43.6875C193.771 44.1888 193.712 44.763 193.712 45.4102C193.712 46.0117 193.762 46.5677 193.862 47.0781C193.962 47.5794 194.122 48.0169 194.341 48.3906C194.568 48.7643 194.874 49.056 195.257 49.2656C195.639 49.4661 196.113 49.5664 196.678 49.5664C197.198 49.5664 197.649 49.4753 198.032 49.293C198.415 49.1016 198.729 48.8281 198.975 48.4727C199.221 48.1172 199.404 47.6888 199.522 47.1875C199.641 46.6771 199.7 46.0983 199.7 45.4512ZM217.542 51.5352C217.542 51.6263 217.519 51.7083 217.473 51.7812C217.428 51.8451 217.346 51.8997 217.227 51.9453C217.118 51.9909 216.967 52.0228 216.776 52.041C216.594 52.0684 216.361 52.082 216.079 52.082C215.778 52.082 215.532 52.0684 215.341 52.041C215.158 52.0228 215.012 51.9909 214.903 51.9453C214.794 51.8997 214.716 51.8451 214.671 51.7812C214.625 51.7083 214.602 51.6263 214.602 51.5352V50.127C213.928 50.8561 213.24 51.403 212.538 51.7676C211.845 52.1322 211.125 52.3145 210.378 52.3145C209.539 52.3145 208.833 52.1777 208.258 51.9043C207.693 51.6309 207.233 51.2572 206.878 50.7832C206.531 50.3092 206.281 49.7624 206.126 49.1426C205.98 48.5137 205.907 47.7344 205.907 46.8047V39.3398C205.907 39.2487 205.93 39.1712 205.975 39.1074C206.03 39.0345 206.121 38.9753 206.249 38.9297C206.385 38.8841 206.563 38.8522 206.782 38.834C207.01 38.8066 207.288 38.793 207.616 38.793C207.953 38.793 208.231 38.8066 208.45 38.834C208.669 38.8522 208.842 38.8841 208.969 38.9297C209.106 38.9753 209.202 39.0345 209.257 39.1074C209.311 39.1712 209.339 39.2487 209.339 39.3398V46.2305C209.339 46.8685 209.38 47.3561 209.462 47.6934C209.544 48.0306 209.667 48.3223 209.831 48.5684C210.004 48.8053 210.218 48.9922 210.473 49.1289C210.738 49.2565 211.043 49.3203 211.389 49.3203C211.827 49.3203 212.264 49.1608 212.702 48.8418C213.148 48.5228 213.622 48.0579 214.124 47.4473V39.3398C214.124 39.2487 214.147 39.1712 214.192 39.1074C214.247 39.0345 214.338 38.9753 214.466 38.9297C214.602 38.8841 214.78 38.8522 214.999 38.834C215.217 38.8066 215.495 38.793 215.833 38.793C216.17 38.793 216.448 38.8066 216.667 38.834C216.885 38.8522 217.059 38.8841 217.186 38.9297C217.314 38.9753 217.405 39.0345 217.46 39.1074C217.514 39.1712 217.542 39.2487 217.542 39.3398V51.5352ZM228.848 40.4746C228.848 40.8027 228.839 41.0716 228.821 41.2812C228.803 41.4909 228.775 41.6549 228.739 41.7734C228.702 41.8919 228.652 41.974 228.589 42.0195C228.534 42.0651 228.461 42.0879 228.37 42.0879C228.297 42.0879 228.215 42.0742 228.124 42.0469C228.033 42.0104 227.928 41.974 227.809 41.9375C227.7 41.901 227.577 41.8691 227.44 41.8418C227.303 41.8053 227.153 41.7871 226.989 41.7871C226.798 41.7871 226.606 41.8281 226.415 41.9102C226.223 41.9831 226.023 42.1016 225.813 42.2656C225.613 42.4297 225.398 42.6484 225.171 42.9219C224.952 43.1953 224.715 43.5326 224.46 43.9336V51.5352C224.46 51.6263 224.432 51.7083 224.378 51.7812C224.323 51.8451 224.227 51.8997 224.091 51.9453C223.963 51.9909 223.79 52.0228 223.571 52.041C223.352 52.0684 223.074 52.082 222.737 52.082C222.4 52.082 222.122 52.0684 221.903 52.041C221.684 52.0228 221.507 51.9909 221.37 51.9453C221.242 51.8997 221.151 51.8451 221.096 51.7812C221.042 51.7083 221.014 51.6263 221.014 51.5352V39.3398C221.014 39.2487 221.037 39.1712 221.083 39.1074C221.128 39.0345 221.21 38.9753 221.329 38.9297C221.447 38.8841 221.598 38.8522 221.78 38.834C221.971 38.8066 222.208 38.793 222.491 38.793C222.783 38.793 223.024 38.8066 223.216 38.834C223.407 38.8522 223.553 38.8841 223.653 38.9297C223.762 38.9753 223.84 39.0345 223.885 39.1074C223.931 39.1712 223.954 39.2487 223.954 39.3398V40.8574C224.273 40.4017 224.574 40.028 224.856 39.7363C225.139 39.4355 225.408 39.1986 225.663 39.0254C225.918 38.8522 226.173 38.7337 226.428 38.6699C226.684 38.597 226.939 38.5605 227.194 38.5605C227.313 38.5605 227.44 38.5697 227.577 38.5879C227.714 38.597 227.855 38.6198 228.001 38.6562C228.147 38.6836 228.274 38.7201 228.383 38.7656C228.493 38.8021 228.57 38.8431 228.616 38.8887C228.671 38.9342 228.707 38.9844 228.725 39.0391C228.753 39.0938 228.775 39.1712 228.794 39.2715C228.812 39.3626 228.826 39.5039 228.835 39.6953C228.844 39.8867 228.848 40.1465 228.848 40.4746ZM239.198 48.0898C239.198 48.7826 239.066 49.3932 238.801 49.9219C238.546 50.4505 238.182 50.8926 237.708 51.248C237.234 51.6035 236.673 51.8678 236.026 52.041C235.379 52.2233 234.677 52.3145 233.921 52.3145C233.465 52.3145 233.027 52.278 232.608 52.2051C232.198 52.1413 231.829 52.0592 231.501 51.959C231.173 51.8496 230.899 51.7402 230.68 51.6309C230.462 51.5215 230.302 51.4212 230.202 51.3301C230.102 51.2298 230.024 51.0794 229.969 50.8789C229.915 50.6693 229.887 50.3639 229.887 49.9629C229.887 49.6986 229.897 49.4889 229.915 49.334C229.933 49.1699 229.96 49.0423 229.997 48.9512C230.033 48.8509 230.079 48.7871 230.133 48.7598C230.188 48.7233 230.257 48.7051 230.339 48.7051C230.439 48.7051 230.585 48.7643 230.776 48.8828C230.977 48.9922 231.223 49.1152 231.514 49.252C231.806 49.3887 232.143 49.5163 232.526 49.6348C232.918 49.7533 233.36 49.8125 233.852 49.8125C234.162 49.8125 234.436 49.7806 234.673 49.7168C234.919 49.653 235.128 49.5618 235.301 49.4434C235.484 49.3249 235.62 49.1745 235.712 48.9922C235.803 48.8099 235.848 48.6003 235.848 48.3633C235.848 48.0898 235.762 47.8574 235.589 47.666C235.424 47.4655 235.201 47.2923 234.919 47.1465C234.645 47.0007 234.331 46.8639 233.975 46.7363C233.629 46.6087 233.269 46.4674 232.895 46.3125C232.531 46.1576 232.171 45.9798 231.815 45.7793C231.469 45.5788 231.154 45.3327 230.872 45.041C230.598 44.7493 230.375 44.3984 230.202 43.9883C230.038 43.5781 229.956 43.0859 229.956 42.5117C229.956 41.9284 230.07 41.3952 230.298 40.9121C230.525 40.4199 230.854 40.0007 231.282 39.6543C231.71 39.3079 232.23 39.0391 232.841 38.8477C233.46 38.6562 234.153 38.5605 234.919 38.5605C235.301 38.5605 235.671 38.5879 236.026 38.6426C236.391 38.6973 236.719 38.7656 237.01 38.8477C237.302 38.9297 237.548 39.0208 237.749 39.1211C237.949 39.2122 238.091 39.2943 238.173 39.3672C238.264 39.431 238.327 39.4993 238.364 39.5723C238.4 39.6361 238.428 39.7181 238.446 39.8184C238.464 39.9095 238.478 40.028 238.487 40.1738C238.505 40.3105 238.514 40.4837 238.514 40.6934C238.514 40.9395 238.505 41.14 238.487 41.2949C238.478 41.4499 238.455 41.5729 238.419 41.6641C238.391 41.7552 238.35 41.819 238.296 41.8555C238.241 41.8828 238.177 41.8965 238.104 41.8965C238.022 41.8965 237.895 41.8509 237.721 41.7598C237.548 41.6595 237.329 41.5547 237.065 41.4453C236.81 41.3359 236.509 41.2357 236.163 41.1445C235.826 41.0443 235.438 40.9941 235.001 40.9941C234.691 40.9941 234.422 41.026 234.194 41.0898C233.966 41.1536 233.779 41.2448 233.633 41.3633C233.488 41.4818 233.378 41.623 233.305 41.7871C233.232 41.9421 233.196 42.1107 233.196 42.293C233.196 42.5755 233.283 42.8125 233.456 43.0039C233.629 43.1953 233.857 43.3639 234.139 43.5098C234.422 43.6556 234.741 43.7923 235.096 43.9199C235.461 44.0475 235.826 44.1888 236.19 44.3438C236.564 44.4896 236.928 44.6628 237.284 44.8633C237.648 45.0638 237.972 45.3099 238.255 45.6016C238.537 45.8932 238.765 46.2441 238.938 46.6543C239.111 47.0553 239.198 47.5339 239.198 48.0898Z" fill="white"/>
<path d="M45.2231 43.2816C37.1763 43.2816 30.5238 49.716 30.5238 57.6768C30.5238 61.6883 31.981 65.4126 34.3841 68.5692C37.0105 72.0512 40.2756 75.085 43.9718 77.4663C44.895 78.0581 45.6541 78.0166 46.4953 77.4663C50.1705 75.085 53.4356 72.0512 56.0848 68.5692C58.4861 65.4126 59.945 61.6883 59.945 57.6768C59.945 49.716 53.2925 43.2816 45.2231 43.2816Z" fill="#4096FE"/>
<g opacity="0.5" filter="url(#filter1_f_0_157)">
<path d="M45.259 51.3627C40.9052 51.3627 37.3059 54.7953 37.3059 59.0422C37.3059 61.1822 38.0944 63.169 39.3945 64.853C40.8156 66.7106 42.5822 68.329 44.582 69.5994C45.0815 69.9151 45.4922 69.893 45.9473 69.5994C47.9358 68.329 49.7024 66.7106 51.1357 64.853C52.4349 63.169 53.2243 61.1822 53.2243 59.0422C53.2243 54.7953 49.625 51.3627 45.259 51.3627Z" fill="#004FFF"/>
</g>
<g filter="url(#filter2_b_0_157)">
<path d="M63.4313 28C51.3424 28 41.3483 37.6665 41.3483 49.6262C41.3483 55.6528 43.5375 61.2478 47.1476 65.9901C51.0934 71.2211 55.9986 75.7788 61.5515 79.3563C62.9384 80.2455 64.0789 80.1831 65.3425 79.3563C70.8639 75.7788 75.7692 71.2211 79.749 65.9901C83.3566 61.2478 85.5483 55.6528 85.5483 49.6262C85.5483 37.6665 75.5542 28 63.4313 28Z" fill="#3EA0FE" fill-opacity="0.35"/>
<path d="M61.2807 79.7766L61.2816 79.7772C62.0322 80.2584 62.7591 80.5091 63.4996 80.4998C64.2387 80.4904 64.9314 80.2226 65.6152 79.7754C71.185 76.1665 76.1326 71.5693 80.147 66.2928L79.749 65.9901L80.147 66.2928C83.8102 61.4773 86.0483 55.7783 86.0483 49.6262C86.0483 37.3783 75.8181 27.5 63.4313 27.5C51.078 27.5 40.8483 37.3788 40.8483 49.6262C40.8483 55.7778 43.0835 61.4765 46.7491 66.292C50.7302 71.5698 55.6788 76.1675 61.2807 79.7766Z" stroke="url(#paint0_linear_0_157)" stroke-linecap="round" stroke-linejoin="round"/>
</g>
<g filter="url(#filter3_bd_0_157)">
<mask id="path-10-inside-1_0_157" fill="white">
<path d="M63.2712 57.4553C59.2625 57.4553 55.9932 54.3042 55.9932 50.2977C55.9932 46.3224 59.2625 43.0179 63.2712 43.0179C67.2825 43.0179 70.5832 46.3224 70.5832 50.2977C70.5832 54.3042 67.2825 57.4553 63.2712 57.4553Z"/>
</mask>
<path d="M63.2712 57.4553C59.2625 57.4553 55.9932 54.3042 55.9932 50.2977C55.9932 46.3224 59.2625 43.0179 63.2712 43.0179C67.2825 43.0179 70.5832 46.3224 70.5832 50.2977C70.5832 54.3042 67.2825 57.4553 63.2712 57.4553Z" fill="url(#paint1_linear_0_157)"/>
<path d="M63.2712 57.2553C59.3687 57.2553 56.1932 54.1895 56.1932 50.2977H55.7932C55.7932 54.419 59.1564 57.6553 63.2712 57.6553V57.2553ZM56.1932 50.2977C56.1932 46.4322 59.3737 43.2179 63.2712 43.2179V42.8179C59.1514 42.8179 55.7932 46.2127 55.7932 50.2977H56.1932ZM63.2712 43.2179C67.1725 43.2179 70.3832 46.4334 70.3832 50.2977H70.7832C70.7832 46.2115 67.3924 42.8179 63.2712 42.8179V43.2179ZM70.3832 50.2977C70.3832 54.1883 67.1775 57.2553 63.2712 57.2553V57.6553C67.3874 57.6553 70.7832 54.4201 70.7832 50.2977H70.3832Z" fill="url(#paint2_linear_0_157)" fill-opacity="0.5" mask="url(#path-10-inside-1_0_157)"/>
</g>
</g>
<rect x="1.66669" y="1" width="373.333" height="146" stroke="url(#paint3_linear_0_157)" stroke-width="2"/>
<defs>
<filter id="filter0_f_0_157" x="-335.013" y="-385.68" width="704.545" height="704.546" filterUnits="userSpaceOnUse" color-interpolation-filters="sRGB">
<feFlood flood-opacity="0" result="BackgroundImageFix"/>
<feBlend mode="normal" in="SourceGraphic" in2="BackgroundImageFix" result="shape"/>
<feGaussianBlur stdDeviation="82" result="effect1_foregroundBlur_0_157"/>
</filter>
<filter id="filter1_f_0_157" x="21.3059" y="35.3627" width="47.9184" height="50.4653" filterUnits="userSpaceOnUse" color-interpolation-filters="sRGB">
<feFlood flood-opacity="0" result="BackgroundImageFix"/>
<feBlend mode="normal" in="SourceGraphic" in2="BackgroundImageFix" result="shape"/>
<feGaussianBlur stdDeviation="8" result="effect1_foregroundBlur_0_157"/>
</filter>
<filter id="filter2_b_0_157" x="16.3483" y="3" width="94.2" height="102" filterUnits="userSpaceOnUse" color-interpolation-filters="sRGB">
<feFlood flood-opacity="0" result="BackgroundImageFix"/>
<feGaussianBlur in="BackgroundImageFix" stdDeviation="12"/>
<feComposite in2="SourceAlpha" operator="in" result="effect1_backgroundBlur_0_157"/>
<feBlend mode="normal" in="SourceGraphic" in2="effect1_backgroundBlur_0_157" result="shape"/>
</filter>
<filter id="filter3_bd_0_157" x="40.9932" y="28.0179" width="44.59" height="44.4374" filterUnits="userSpaceOnUse" color-interpolation-filters="sRGB">
<feFlood flood-opacity="0" result="BackgroundImageFix"/>
<feGaussianBlur in="BackgroundImageFix" stdDeviation="7.5"/>
<feComposite in2="SourceAlpha" operator="in" result="effect1_backgroundBlur_0_157"/>
<feColorMatrix in="SourceAlpha" type="matrix" values="0 0 0 0 0 0 0 0 0 0 0 0 0 0 0 0 0 0 127 0" result="hardAlpha"/>
<feOffset dx="5" dy="5"/>
<feGaussianBlur stdDeviation="5"/>
<feColorMatrix type="matrix" values="0 0 0 0 0.15375 0 0 0 0 0.522433 0 0 0 0 0.9 0 0 0 0.5 0"/>
<feBlend mode="normal" in2="effect1_backgroundBlur_0_157" result="effect2_dropShadow_0_157"/>
<feBlend mode="normal" in="SourceGraphic" in2="effect2_dropShadow_0_157" result="shape"/>
</filter>
<linearGradient id="paint0_linear_0_157" x1="48.3842" y1="34.0581" x2="82.2718" y2="69.733" gradientUnits="userSpaceOnUse">
<stop stop-color="white" stop-opacity="0.25"/>
<stop offset="1" stop-color="white" stop-opacity="0"/>
</linearGradient>
<linearGradient id="paint1_linear_0_157" x1="69.5488" y1="45.625" x2="53.2973" y2="46.1605" gradientUnits="userSpaceOnUse">
<stop stop-color="white"/>
<stop offset="1" stop-color="white" stop-opacity="0.2"/>
</linearGradient>
<linearGradient id="paint2_linear_0_157" x1="57.5649" y1="47.861" x2="69.9538" y2="47.9301" gradientUnits="userSpaceOnUse">
<stop stop-color="white"/>
<stop offset="1" stop-color="white" stop-opacity="0"/>
</linearGradient>
<linearGradient id="paint3_linear_0_157" x1="0.666687" y1="0" x2="159.076" y2="218.75" gradientUnits="userSpaceOnUse">
<stop stop-color="#306CA8"/>
<stop offset="1" stop-color="#306CA8" stop-opacity="0"/>
</linearGradient>
<clipPath id="clip0_0_157">
<rect x="0.666687" width="375.333" height="148" fill="white"/>
</clipPath>
</defs>
</svg>
