<svg width="47" height="24" viewBox="0 0 47 24" fill="none" xmlns="http://www.w3.org/2000/svg">
<path d="M11.6895 12.293C11.6895 13.0677 11.5755 13.7611 11.3477 14.373C11.1198 14.985 10.7845 15.5026 10.3418 15.9258C9.89909 16.349 9.35221 16.6712 8.70117 16.8926C8.05013 17.1139 7.30143 17.2246 6.45508 17.2246C5.66081 17.2246 4.94792 17.127 4.31641 16.9316C3.6849 16.7298 3.15104 16.4271 2.71484 16.0234C2.27865 15.6198 1.94336 15.1185 1.70898 14.5195C1.48112 13.9141 1.36719 13.2077 1.36719 12.4004V4.71484C1.36719 4.64974 1.38672 4.59115 1.42578 4.53906C1.46484 4.48698 1.5332 4.44466 1.63086 4.41211C1.73503 4.37956 1.86849 4.35352 2.03125 4.33398C2.19401 4.31445 2.40234 4.30469 2.65625 4.30469C2.90365 4.30469 3.10872 4.31445 3.27148 4.33398C3.43424 4.35352 3.56445 4.37956 3.66211 4.41211C3.75977 4.44466 3.82812 4.48698 3.86719 4.53906C3.91276 4.59115 3.93555 4.64974 3.93555 4.71484V12.1758C3.93555 12.6771 3.9974 13.1133 4.12109 13.4844C4.24479 13.849 4.42057 14.1517 4.64844 14.3926C4.88281 14.6335 5.15951 14.8158 5.47852 14.9395C5.80404 15.0566 6.16536 15.1152 6.5625 15.1152C6.96615 15.1152 7.32747 15.0534 7.64648 14.9297C7.96549 14.806 8.23568 14.627 8.45703 14.3926C8.67839 14.1517 8.84766 13.8587 8.96484 13.5137C9.08854 13.1621 9.15039 12.765 9.15039 12.3223V4.71484C9.15039 4.64974 9.16992 4.59115 9.20898 4.53906C9.24805 4.48698 9.31641 4.44466 9.41406 4.41211C9.51172 4.37956 9.64193 4.35352 9.80469 4.33398C9.97396 4.31445 10.1823 4.30469 10.4297 4.30469C10.6771 4.30469 10.8789 4.31445 11.0352 4.33398C11.1979 4.35352 11.3281 4.37956 11.4258 4.41211C11.5234 4.44466 11.5918 4.48698 11.6309 4.53906C11.6699 4.59115 11.6895 4.64974 11.6895 4.71484V12.293ZM22.207 15.9844C22.207 16.1732 22.1973 16.3327 22.1777 16.4629C22.1647 16.5931 22.1419 16.7005 22.1094 16.7852C22.0768 16.8633 22.0345 16.9186 21.9824 16.9512C21.9368 16.9837 21.8848 17 21.8262 17H14.375C14.1146 17 13.9128 16.9251 13.7695 16.7754C13.6328 16.6257 13.5645 16.4076 13.5645 16.1211V15.6914C13.5645 15.5612 13.571 15.444 13.584 15.3398C13.6035 15.2292 13.6328 15.1185 13.6719 15.0078C13.7109 14.8971 13.7663 14.7767 13.8379 14.6465C13.916 14.5163 14.0104 14.36 14.1211 14.1777L19.0234 6.4043H14.1602C14.082 6.4043 14.0137 6.38802 13.9551 6.35547C13.903 6.31641 13.8574 6.25781 13.8184 6.17969C13.7858 6.10156 13.7598 5.9974 13.7402 5.86719C13.7272 5.73698 13.7207 5.58073 13.7207 5.39844C13.7207 5.20312 13.7272 5.04036 13.7402 4.91016C13.7598 4.77344 13.7858 4.66602 13.8184 4.58789C13.8574 4.50326 13.903 4.44466 13.9551 4.41211C14.0137 4.37956 14.082 4.36328 14.1602 4.36328H21.1426C21.4095 4.36328 21.6048 4.43164 21.7285 4.56836C21.8587 4.70508 21.9238 4.89714 21.9238 5.14453V5.62305C21.9238 5.79883 21.9141 5.95182 21.8945 6.08203C21.8815 6.20573 21.8522 6.32943 21.8066 6.45312C21.7676 6.57031 21.7122 6.69401 21.6406 6.82422C21.569 6.94792 21.4779 7.09766 21.3672 7.27344L16.543 14.9395H21.8262C21.9499 14.9395 22.0443 15.0176 22.1094 15.1738C22.1745 15.3301 22.207 15.6003 22.207 15.9844Z" fill="white"/>
<path d="M40 9.16994C39.8126 8.98369 39.5592 8.87915 39.295 8.87915C39.0308 8.87915 38.7774 8.98369 38.59 9.16994L35 12.7099L31.46 9.16994C31.2726 8.98369 31.0192 8.87915 30.755 8.87915C30.4908 8.87915 30.2374 8.98369 30.05 9.16994C29.9563 9.26291 29.8819 9.37351 29.8311 9.49537C29.7803 9.61723 29.7542 9.74793 29.7542 9.87994C29.7542 10.012 29.7803 10.1427 29.8311 10.2645C29.8819 10.3864 29.9563 10.497 30.05 10.5899L34.29 14.8299C34.383 14.9237 34.4936 14.9981 34.6154 15.0488C34.7373 15.0996 34.868 15.1257 35 15.1257C35.132 15.1257 35.2627 15.0996 35.3846 15.0488C35.5064 14.9981 35.617 14.9237 35.71 14.8299L40 10.5899C40.0937 10.497 40.1681 10.3864 40.2189 10.2645C40.2697 10.1427 40.2958 10.012 40.2958 9.87994C40.2958 9.74793 40.2697 9.61723 40.2189 9.49537C40.1681 9.37351 40.0937 9.26291 40 9.16994Z" fill="white"/>
</svg>
